<mxfile host="app.diagrams.net" agent="Mozilla/5.0 (Windows NT 10.0; Win64; x64) AppleWebKit/537.36 (KHTML, like Gecko) Chrome/136.0.0.0 Safari/537.36 Edg/136.0.0.0" version="27.0.5">
  <diagram name="第 1 页" id="4pGhInz94iv45K36kQ0L">
    <mxGraphModel dx="1111" dy="724" grid="0" gridSize="10" guides="1" tooltips="1" connect="1" arrows="1" fold="1" page="1" pageScale="1" pageWidth="827" pageHeight="1169" math="0" shadow="0">
      <root>
        <mxCell id="0" />
        <mxCell id="1" parent="0" />
        <mxCell id="HCrk2KYDXEB9rWcXeqYh-24" style="edgeStyle=none;rounded=1;orthogonalLoop=1;jettySize=auto;html=1;exitX=1;exitY=0;exitDx=0;exitDy=0;fontStyle=0;curved=0;strokeColor=default;targetPerimeterSpacing=0;endSize=12;startSize=12;strokeWidth=3;" edge="1" parent="1">
          <mxGeometry relative="1" as="geometry">
            <mxPoint x="377.84130859375" y="155.99778262183779" as="targetPoint" />
            <mxPoint x="290.09000000000015" y="249.22" as="sourcePoint" />
          </mxGeometry>
        </mxCell>
        <mxCell id="HCrk2KYDXEB9rWcXeqYh-1" value="" style="shape=image;verticalLabelPosition=bottom;labelBackgroundColor=default;verticalAlign=top;aspect=fixed;imageAspect=0;image=data:image/png,iVBORw0KGgoAAAANSUhEUgAAAVMAAAGYCAYAAAD/ZAEDAAAAAXNSR0IArs4c6QAAAARnQU1BAACxjwv8YQUAAAAJcEhZcwAADsMAAA7DAcdvqGQAAEROSURBVHhe7Z0JmBXFtccLmIEZYFgGZEdWQVlENlFEUNQ8ooCCKxA1xgjuRp4JuGOUGDfUaEzANWqQRWJ0XBIExIVFFKNhUVlkH/YZtoEBBubdf1Nt7ru5M3P79qnuqurz8+tvqmrwTt+uqn+fU3WqqlJpDMEwDMP4orL8yTAMw/iAxZRhGIYAFlOGYRgCWEwZhmEIYDFlGIYhgMWUYRiGABZThmEYAlhMGYZhCGAxZRiGIYDFlGEYhgAWU4ZhGAJYTBmGYQhgMWUYhiGAxZRhGIYAFlOGYRgCWEwZhmEIYDFlGIYhgMWUYRiGABZThmEYAlhMGYZhCGAxZRiGIYDFlGEYhgAWU4ZhGAJYTBmGYQhgMWUYhiGAxZRhGIYAFlOGYRgCWEwZhmEIYDFlGIYhgMWUYRiGABZThmEYAlhMGYZhCKhUGkOmGcP45JNPxJo1a0R+fr7YsGGD2Lhxo9i7d6+oUaOGqFWrlsjJyXGuBg0aiFNPPdW5qlevLv9vRhWoiy+//FJ88803YteuXWLPnj1OveA6ePCgaNiwoWjRooVo1KiRaNasmejSpYto166d/L8ZU2ExDYDdu3eLzz77THzxxRdi3bp1YtOmTT+K3759+5x/U7t27R/FDxc62umnny569OjhiCDEEcyaNUtMmzZNTJ8+3emoXjnllFOczz3nnHPExRdfLEsZP+BlNnXqVDF37lyxYMECsX37dvmb1EG9oD5+9rOfiZYtWzplq1evdtrM4sWLxb/+9S9RUFDwoyjj2r9/v/Pv8LKEODdu3NgRZwhz7969Rc+ePZ3fM8HAYqoINP7nn3/eEdElS5bI0vQ56aSTxLZt28TOnTtliX9gpV544YXikksuEUOHDpWlTCps2bJFTJ48Wbz55puOgFJy8skni/Xr16f1sownKytLnHbaac6L8+abbxZ16tSRv2GUADFl6IhZEqUDBgzAC8qoq379+qWPP/54aXFxsfwmTDJ++OGH0hEjRpRWrlw56XPU9apZs2bpmDFjSmMvY/lNGGpYTIlYtWpV6QUXXJC0IZt0NWrUqPTZZ5+V34pxibnypTfeeGPSZ2bSFbNWS++88075rRhK2M0n4OWXXxa33HKLKCoqkiXm07x5c+f7YJwOY3JwPTFR0rFjR9G5c2dnLNcm4LZjOGbp0qXOz2XLljk/MX6N8UiMXdpE165dnXH3Nm3ayBLGLyymPsDk0bXXXutMCEWNzMxMZyzu0ksvFUOGDBF169aVvzEHzLZjzBPXd999J0ujA6I+nnnmGXHNNdfIEsYPLKYVgFn3FStWOJYLZml37Nghtm7d6qQR/oKZeUY4wnrZZZeJESNGOJ1UV1CXr7zyiiOgK1eulKXRplevXo71DQ8EYVv169cXxx13nGjSpInjjXA4XWqwmMbx7bffinnz5ol///vfzoUZecQIMqmDzjh+/HjHYtcJvAzvvvtu8dJLL8kSJlVatWrliCqGerp16ybOOussJ5SPSQBiGmUwOxvr/KWdOnVyBuj5ork6duxY+v7778unHB779+8vHTdunDObnew++fJ+Va1atXTw4MGlb7zxhvN8mWNEUkyLiopKn3nmmdJTTz01aWPhi+6Kuf+lS5YskU8+WCZNmlQac12T3hdfNFf16tWdULG5c+fKpx5dIiWmmzdvLh07dmxp3bp1kzYMvtRciMl88cUXZS2oBy/Lc889N+m98KXu6tGjR+nkyZNLS0pKZE1Ei0iIKWIEr7766qQNgK/grrvvvlvWiDq2bdtW2rVr16R/n69grqZNm0YyVtlqMT169Gjpc889V1qrVq2klc5X8BdcwkOHDskaogULJ1q0aJH07/IV/AVLdcWKFbJ27MdaMV29enVp3759k1YyX+FeGEfdt2+frCkaPv/889Lc3Nykf4+vcK8HHnhA1pLdWCmmeXl5zsB4sorlS48LrviOHTtkjfnjn//8Z2l2dnbSv8OXHlevXr1KCwoKZI3ZiXVi+sQTTxi3CUVUr7Zt25auX79e1lx6zJgxozQjIyPp5/Ol19W6dWvHY7QVq4L2b7zxRvGnP/1J5qJFbqd6IqtBtswJUbztgPOzYCndln0qwCqb2bNnixNPPFGWpM4f//hHZ2s5ncmO1Ul2g+o/1g3SIH/OBnFA1lGUyM3NFe+//76z6so2rBHThx9+WNx1110ypy/oXE36Nxd1O+bK/H+W6h3Ytt8RwYJlO4/9TFEI8ZlnTuwvc/8NOm3+Rxu17cDYZzPmqjubYKfKfffdJx588EGZ0wu3jttcfoIs+W9QD5+OmiNz5YPPqxt7WaKtVNRu8udslKX6Uq9ePWdfhKZNm8oSO7BCTHF8x9lnny2OHj0qS/QjlQ6WCDocOsoxISy7k1QkpvG4wrp6ygpZogfZ2dnivffec+qxPNBcR40a5Wy8rRNe6xf1ufSZb2Tuv3E/r8nZzZx0quhav4ngFID58+eLjIwMWWI+xospdp/HLvTYKk5nOt3SJdY5msmcd9BJCmOWKjpKMovV6+fjM5bFOjM+VxeqVavmvBjLs1Bvv/128dRTT8mcHmCIpceDp8lcanx578Kk9djminaeBTQZZX2+TvzqV78STz75pMyZj/Fiiu3DsAuQ7qTT4coCAgghjO8sXqxTFx2tGOxWBBcQ5xkl8vrrr4srr7xS5sLHqzXqguee6OJDRL1+Tlkk+3xdQV1jAxUbMFpMYZVi3KWkpESW6A0sR1iQVMBVXD11hdN5/Hx2eZ0PnRzjdBUNNVCCjYuxexdcfxdsznzGGWeIw4cPyxJ1uCKJ7124rCDpy8bPyzH+eeNzOsbqza8l6mKSkAJs2YiXpA0YLab33nuveOihh2TODPy6+4mg82BcFZ3SD7By4RrGkygY+FvHRFX9RNZFF10k3nrrLSeNPWW7d++e1qmfXoCgtbk85mbH1U8ycUrHC0jEfX5UIupignsfD8ZM165da8VklNFiijCLwsJCmVOPa7G4ZB+XvCOUNxtP6e5TkzgpUta9uqKqenjggQceEHfccYdzNDX2l1VFMhF1SRRT/NseD55OLoJUzBzynkz9B9yrEwkQq8+y2uyB7cfE3ZnwDMgDcbntttu0GwdPB2PF9NNPPxV9+/aVOTW44okGmK41ic6IiSNXYDG5QGmZUrN66sofRRL3Wd7QQRCiirOmcKKBKlIZq4wXKLxc/HoBqnDrA4LohlGle6+J7ValtYtYYxtOrDBWTOHew82nxhVQqskAE4GgoiO1jj2DVDpjvACbAuoZY5Wpfj8vz8NGVL8416xZI1q2bClzZmKsmJ533nli1qxZMucfFlF/oLN9ee8C56fuQBB1HWrRHVWiioicq6++WubMpLL8aRxUh6FBROHKYkKBhTR98Bx1Hkt0wdAFC2n6oH7RT5z+ckU7WeqfVatWyZS5GCumOGbZL7BQ0Ch0HsM0CVdQdXWF8dJMN3yM+f/EiyrFC7SoqEimzMVYMaVYOorJIIYWdCyMRVJaLRRQh6Qxx0B9x+8TkC6mxIqXh7FiSnHUrBvwztCCDoYXlS4WKgupOhBGRTHTn5OTI1PmYqyYNmvmv3OYNGliGq6FSuEC+gEiykKqhsS4ZD80b/6f+G1TMVZMsbkJBa6gmrRqxBQgpGFOSsEy5jFSNSBcjEpIQYcOHWTKXIwV086dO8uUfyCoiRuHqAB/J2qi7VqoQXNMyKM1ax9U+4KIUodGUfbnsDA2znTz5s2Oq0+5h6lqSyp+JQ3+Bpb35XY8tkO+rjPgVAQd2K/zSiUKIJxYSIBloM5KpTgRxbCGKoscfydxDwe/nHPOOaQx42Fh9Nr8oUOH/rgZBhXogKosmooEJV5gbRvnC8r6B5Tb2ekCnh+C5ROFMxG0oVRXdnkF96BiR6rp06eLSy65RObMxWgxxVEXAwYMkDk6VHZGt1OksvMSOoa7FZwNVpaqzhiPypdh0LhtJRWLHm2lrM1aqFCxI1XDhg1Ffn6+qFzZ2BHHHzFaTHHrrVq1EuvWrZMlNKh8u7ugo8DKQGdJpYG6VqtOIUfpoNrdN9m9d8XTy85NePFT7MxfEarq7Z577tH2LC+vGC2mYObMmY51Sv01grRw0IkQ85pqB3It1iA6ETX4rqrC0VSOFarEFdFUxcqt/yCHMpJt7eeX448/XixbtkzUrFlTlpiN8WIK7r//fvHb3/5W5ugI2spJp1OZaK2qmMQAP3nrApnSH7euvWy0HYaIAhVWKc77wukJNsziu1ghpvgKsE5hpVISlqXjVVRBWB0tXajH30yZdDKxbjHOnargp8pf//pXMXz4cJmzAyvEFOzcuVN06dKFdJNZNOIwg85tFlXK1TNAd6sUdellKAfoUJfU9QRwVPef//xnmbOHKuNiyLTRVK9eXRQXF4s5c+hmi0uKSkRmzczQXOjMGsf+NjpUyf7DYu+aPfI3ZYN7die2SvaXaOv+Z8S+2/ZFW5z79Qs8iAa9GsmcXkBEv39puRMWlkr9AYhoi0GtxSlje4Ref1///kuSOornzTffFHXq1JE5ezA/HiGOvLw8maIDwhQ26FwYbvCy3ZljCcUsWrhoGPPSDdfqogAhQbpxzBJd6Tx/L9YoXgw67a2L70HNO++8I1N2YY2bjxMsMTtIDTo9GrcuoHF7df2BK146uf/4Ln7jTnWbwfdTP6rD8byiwsUHffr0cc5wsw1rLNOpU6fKFC3oHNSByn5Ap4MgOtaLhz1D8T1cSxVpHcB38SseWC2mC64l6lVIUY+oT92GZHCYngrmzZsntmzZInP2YI2YooJUUbisQKb0IV5UkU4VCCniPHVx/RHa5Qe//z8Fx57pQs8iCvHExJlO3kI8qoa44Ayr7K9hYY2Yrl27VqbowYoUXYGQIuLAVCsVMbLpgu/u5UWiArjCeI5evJdjdXZaYItC0kVl21DZX8OCxTQFdHIlk4HOaYOV6pUwrVLXGvU6pghrVEeXPhkq79FGMbViAurAgQNOaJRfMJHhdlDXxUE+bOvHC+jk6U6AhBVTm24AP+oLE1BBk+7EjCkLC+JBe4rvC8BrvGwyBg4cqCT6JkyssEzXrFkjU/5Ax4SY4ELazZsE7hcd1usMd5hWKvZzNYV0rFHUiTNhaJiQgsS+gIvCU9u40Z8Y64gVYlqlShWZYlzQ+NGB8TNVIKiwaIMW1HRPtwzSzXfdeq8WtDtTDxFi/kOlSpVkyh6sENOWLVvKlD90CoGiAB0YFqqXySngTk4xx0C7SHeSyURrtCIoQqZatGghU/ZghZhiB5rWrVvLXProGAJFATq015ljWGJBzfZnH6ev1YaxQVikXjBpkikdKEKmOnbsKFP2YM1sPsXphtgOzVbcDu7F3XTHUf1ONqhCteuM4Q6v46MYVtE95MkPaBMUL1gWU42hEFM0Ettc/XiOuZ6nex9Hnap2HBWHwqWDyrqCNeo1IgLDKTotbVUB2gIFNhztnAiLaQLY3cdmIKjYGCSdIH9VgqrbogivE002j4/Gg3ZA4aXgvKeTTjpJ5uyBxTSBY5aYmUHsqXJMUE9Ia2JKxbMpjj3zdEj3/yuPdIRUtw1KVEFlaLRt21ZUrVpV5uzBGjE95ZRTyPZIxNipze6+SzoTUyoENd1njcUJlKQjpDZPNMWDOqfqE+edd55M2YU1YpqZmSl+/vOfy5w/YJ3iLYyftuNOTHmBUlD9uI2UwwNehTSd52YqeC5ex4/L45prrpEpu7BGTAGOQ6ACQoqZ7CjgWlj4mSpUguonZhF1RGEtpSOkNs/Yx4PngudDRbt27UT37t1lzi6sEtMTTzxRdO3aVeb8g86qw85KQQAh9bo236+g4rn6ndD4waegs5CWDbWQAkqDRzesElNA5eq7uBYqC2py/AgqxYQGOrwXMYyHhbRsVAgpZvGvuuoqmbMP68T0l7/8pWjcuLHM0cCCWj7pTNj5EcFE0hFlrxMqtgfjx5POqq9UuP7660X9+vVlzj6sOZ3UBRNRTZo0ETNmzJAlNOCERuc0TY1P/KQCp6LitM9UTw91TkRdttP5f/D/VgReSt8QnnqJz0Hgf6onlEJEvQgw6hsnhUYBrPiimlyMB5E2OEgvKytLltiHdZYpGDZsmDjjjDNkjg6IAOVMts54tVDxbFIRKPffUVv5sKZSqRf8XS9WV1Rce/e5UATlJ+Oxxx6z8njneKw5nTSR7777TnTq1EkcOXJEltCSjjtsIuhkXnaQwkKAslYCuUJK5d4no7y/D7yMk0ZFSCGg6Wx2nSo9evQQixYtsnLbvXisc/NdMDZTWFgoFi6kH/sBrtuf06pWTFD97/KvK3DbcUT0+ndT24Db2VEo1mkSh0IgYAtHf0pukSaCv4/dv7DXaeKQAwvpfwNr/vuXlsscPRDQf/zjH6Jhw4ayxF6sdPNdHn74YXHqqafKHD0QBpuF1AXWt5cNPOInpPCMYPWomNAoC/ztxFMDkE5VSI95HdGYbFK9/eGjjz4qOnfuLHN2Y62b77Jr1y5x2mmnie+//16W+AedDdYaTta03c2Px4s7iOeCF02qAqYKt35StYiPCan9wzcueC5YSQZrnnKVE7jpppvEs88+K3P2Y72Ygvz8fNGtWzexdetWWeIPr6uFbAIWHnWn0wlYpIlDFFGBsm4vvfRSMXXqVOvHSeOx2s13QajUrFmzRE5Ojizxh87n6KsGkzte9kM1iSgLKaBq1/379xeTJ0+OlJCCSIgpwMz+e++9J3P+SCdI3CawH6ptljmiAKIspBiOoQiLwpLut99+W2RkZMiS6BAZMQVnnnkmSfwpxpniJzeihjuuaAsQ0fLCqaKA3z0OXG6++WZRs2ZNmYsWkRJTMGjQIJnyB2asU53UsJFjgmr+jLct38MPXiIdKmLo0KEyFT1YTNMEQhqVLfrKwrHoPO7WrxvYJT/KQESpJp26dOlCvi+GSUROTHG8SatWrWTOHxBUlStHTADusaljjYidjfaEk7eltRUxePBgmYomkRNTQLkNmOqleCaA1UYmYup9UwAh9bJMuCIwc0+9/aVpRFJMb7jhBtLZRghqVDaRToazhNRATL1vv8C1pxRSMGDAANG6dWuZiyaRFFOsE77iiitkjgZ3DDWKs/xhr3JKF+oD+UwA7VPF0t7bbrtNpqJLJMUUjB49WqbogKBiMB9uf1SsVIrYxLCI0uIL1xpVsXoNFulPfvITmYsukVhOWhYXXnihs2GtChByE4X1+6YPb2A1l5dNXEwDdaN628Np06Y5y0ejTqTF9IcffhBt2rSROTVASDHRAVG1bebYhsm3Y3Gmdm1sAgHFEEYQsdBYCPPJJ5/IXLSJtJiCsWPHikceeUTm1OJaq3U75lohrDOH0CzPDRsbrFOIpqrdn8rj66+/duJLGRZTUVxc7DSGFSuC3QnJtVhzO8asVgM3DvGy0bIJVLRDv65gQglRCWHUxV133SXGjx8vc0zkxRQsXbpUdO/eXRw6dEiWBAusIpMEFa69yRNPycDLDauhTPIYwnyhYdP1efPmRXJDk7KI7Gx+PNhR6sknn5S54MkyaLwOImqbkAJ3okb1GKMNYCOT6dOns5AmwJZpHAMHDiTbpi9VTLJKbbRIE3HHtU1w+d0XQNDW6d/+9jcxZMgQmWNc2DKNY8qUKaJ3794yp55jHVd/IUWnhUtpu5ACfFfMgpuw+ALtp3XAoj9hwgQW0jJgMY0D7ss///lP0adPH1miFnRc3TstrB7Ekto02VQRTr1MWaF9DC3ujWof0lR44oknxO233y5zTCLs5iehqKhInH/++YHFz8HC0C3WER01DBdSN3R1+1EvKpaFlsUzzzzjbPzMlA2LaTmMHDlSPP/88zKnFl06LUQUAd9BxiqaQFTrp3r16uLVV18VF198sSxhyoLFtALQkEaNGuXEowZBWJ2WRTQ13PoJeuFFGPWDKJe33npLtG3bVpYw5cFimgJYdvrLX/5SfPTRR7JEPei0KoP60TnDWDFjE6qF1RXQoIPyq1atKn7961+Le++9V1SrVk2WMhXBYuqBl19+2WlkO3cGO46ITpvdoLoTj3ps45TqTlmqoFMCdMoD2w+EtmLGZtw6wgsw+7hsp668CKxbRxBPEFYdYfL1hRdeEO3bt5clTKqwmHpkz5494umnn3aC/AsLC2VpOLgd2MUN/i+WHROWp9tJmXBwX3ruy9DFrSOgw4uta9eu4v7773d2UmPSg8U0TSCqf/jDH5xwkV27dslShjELiOgDDzxAdtBklGEx9QlEtX///mLx4sWyhGHMAJbouHHjZI7xC4spAcuXL3d2niopKZElDKM3PXv2FAsXLhSVK/O6HSr4SRKA46Mx88kwpvDaa6+xkBLDT5OI++67TwwbNkzmGEZfcFQPz9bTw2JKyOuvvy5GjBghcwyjF5mZmeLdd9/lySZFsJgSAreJj7xldKVjx47i7LPPljmGGp6AIuSLL74Q5557rjPDz6RGk4waonv2ccfSmTWcn40zqjvljTP/E0O7+fB+kV9SdCxdEksfLnLyiw9sd8qY1EBQ/gcffODskMbQwmJKBIQUIVL79u2TJUwyXJHskd1AdM867kchTRcIKoR2cfF28eWBbSyuKdCrVy8xa9YsFlRiWEwJmD9/vvif//mfUIQ0XpwABArEW3UuEBpcQVt0uMdBtVqSiGdFuN8NV97etbI0GNzvCQbmtHB+xhNvXYdRD/GwoNLDYuoTCClc+wMHglu26Vec0Inf3btOTCxYJkvU4N7nyLodZEmwBPk9xzXomXZdhCX+EFRshl67dm1ZwviBxdQHc+fOdTaRDkpIB+XEhCm3g9N5KUBHHrTufZmjI2wRTUSlqEJAJzU5S+b84QorRDUoi7Vbt25izpw5LKgEsJimyYcffuiEmBw8eFCWqMEVJriNVCIaDzruuG1fyJw/cH8Qe4i+jqgQVQipiqEL3CvqJQhRhaCiPefm5soSJh1YTNNg/fr1TtCz6g2jR+V2VG7dUVmnlBaaavCdR2362PnphyC+M9W9VgQmT2fPni1zTDpwnKlH8O7BSieVQgoLD51UFze5PNx7NUVIAe55YtN+zstKd4K6V7j6zz33nMwx6cCWqUceffRRMWbMGJmjJwhrNB4/lqlJ1mhZ+LH8gv7+uEeVE2o472np0qWiVatWsoTxAlumHvjuu++UbWgSljWa7pgcxkVNF1LgWn746RWEOgUJ7hHtQ5WVun//fnH55ZeLo0ePyhLGCyymHrjkkkvEoUOHZI4OWDh5Lc53fgZNOuE46MwIBbIFV1C9Pn9YikGHMwEIKtpLOi+AisDik8cee0zmGC+wmKbIPffcI5Yto3evwrTwYJV6tUwhoiaM5XoFwpROrOikguUyFSzuC0CFoI4dO9Zx9xlvsJimwOeffy7Gjx8vc3RASMO08CYWens5QGh0DXuiwBVULwIVlnUKXEFV4dHwdpLeYTFNgdGjR8sUHei0YQqp18BwdFgbxkgrwhUoL8A6TWcCiwL3BUAtqLBMJ06cKHNMKvBsfgUsWrTIWXZHSdAz9omg43udwVc1RqcrXhcz4NngGYUF6pQ6yL9du3bi+++/lzmmItgyrYDHH39cpmiABRH2mKPXFU9w7aMkpAD15OU7Q8wmFYYzfgpcC5WynlasWCHy8vJkjqkIFtNy2LRpk5gxY4bM+UcHVzkd6wVLRKMGRMnr987bE9ya+mTgnr0OUVTEhAkTZIqpCBbTcoBVShVzh4YetpDCcvI6WRJFq9TF6zikClfbK6gryrF4bObz9ddfyxxTHiymZbB3717SAfgwJ5sAOng6K2fc3e+jCIQpXUHFz7DAC5Ay6uKJJ56QKaY8WEzL4PnnnyfbWg8N22unpARCOjJ/rsx5A0eIMN6AkAaxOUl5UG7ViIMi8/PzZY4pCxbTMnjqqadkyh/UbpdX/Agpkz6uoIYFdbt75plnZIopCxbTJHz66adiw4YNMuePMIUUHdqvkOLwuijjZ/09nr/XyAlK4A1ReURTpkyRKaYsWEyT8Nlnn8mUPygbs1eoOjJmqKMKrHq/rrrXeFVqqF7ma9euZVe/AlhMkwDLlIJRdcPZL9MVUoiBX/BZFJ9jIlTLRPE5YcWgwt2nmoz6+OPwhi1MgMU0AYRCUYhpWFYpxA+rmygFMEzLKizw/KjEFCCSIqznSBUnTGVk2AqLaQJLliwhObKZMjQlVVwhpca1dKOCqu8LcVZRPxWRTohXMqiGv2yFxTQBqrdv0GIKS0plRw3TVQ0SV0jxUwXuC0/V55cFRXuEoVFYWChzTCIspglQvH3DENIgwp/gquLvBC0EQeEKneoxYvydoONQqYac5s+fL1NMIiymCXzyyScylT5BjpXCYgwyjhRCAyGwzUrF9wnSBQ9aUKlcfYr+YSsspnFgu7HNmzfLXPoEJaYQgDDGMiEAsFKDsOJU44qoqkPqysMV1KBeTD2yG8hU+mCtPpMcFtM4fvjhB5nyB6wAlaATwhoNQwDice8Dgk45860a3He8iCIfFvjbuIcgBLV7lv+X/KpVq2SKSYTFNI7Vq1fLVPqoHi+FJaibRQghhaDiviAKulqruC9dRDQR3A/uS+U9Nc70v89CQUGB2LNnj8wx8fBO+3HceuutvtcgQ0xVLSGFEIRtjaaKO0aHK+gJORcIE86Zzz8c3jlNXnGC7Gu1VLaBOIVgL1y4kPz0CRtgMZUsX75cdO/eXRQXF8uS9ICQUosHGj8sP10tvlSIF9f4PAWuOOD5YC+BLw9sM/pZAVVH22BYxu+zgZBiVr9yZXZs42ExjQEB7datm/j2229lSfpQi6lJ1mg6uOPLcEHddEV7qMLSjBdQW8HzQHuieukAqvFtHH3+4IMPyhwDWExjjBw50tm/lAIqMbXBGmX8A0GldPspLFOXjz76SJx1lv0n1qZK5MUUDaJ///4y5x8K98x2a5TxDpWoUk5yNW/eXKxcuVJUq1ZNlkSbyA96XH/99TJFA1zQdIHF4M40M0w8EEC0C1iWVGLoF+z5O378eJljIi2mjzzyiHOcLSXpuFDoHOgkOnUURk/QvtIN9MdYKXX7wrjpmjVrZC7aRNbN37hxo2jXrh3ZOU/xpOrqo2FPKvB+YijDAK+uP+V4aTwDBgwQH3zwgcxFl8iKKdx7ytNHEylLUCGgOAoDAsoiylDgiipWOCWb+UebUz2Zid3W+vTpI3PRJJJiunXrVtGoUSOZUwcauRvyg3Af3eIf3ftzQd4FHVCnew2bxAiNeHcZL8f4fJjEtzkQVD0OGjRIvPPOOzIXTSIppnfddZd4+OGHZS46oIOVZ8EkI74zwpKOgsBCON3ng5/xL5mycJ/LxMJlWolrUFSqVMmJ027fvr0siR6RE1Psot+sWTOxe/duWWI3EAIcW0G1kAAiYes4L4ZmBua0SEk8KwLi6j6rqAjrL37xC/Hiiy/KXPSInJjiPPzbb79d5uwFFhUWEFAIQzIgEFj3jtNLTRYLPCe8aKheNsnAiycqorpp0ybRpEkTmYsWkRPTzp07i6VLl8qcfVBaV6ngiqqJsbGTmpyV8nAHBbBWMQxg81DJ73//ezFmzBiZixaRElOc/d2qVSuZswuIJ/U6bi+YtqNV2M/KdIu+LLAJCnaViiKREtMnnnhC3HHHHTJnDxRLWCmAOAR9tpFXIKCwSMPGhGeVLjitIohoGd2I1Aqot99+W6bsABYWhEEHIQW4n4lN+zniriN4VjoIKcCzymtxvvOskLaJqIZIRUZMMZZDdYyzDsDCQmcMy1UtCwgDxmx1uy+Ilm73BPAiVDlRGAYIPfzqq69kLjpEws2Haw8X3xZ0cVXLQyc3FjP1ECydsc3tr1mzpnj33XdFv379ZIn9WC+mV199tXj11VdlznxMEFIXCAN2wQoT056XbeOof//738WFF14oc3ZjtZs/ZMgQFtIQgesa5v2G/fe9gvvFmLNNLv9FF11kVR8sD2vFdPDgwc5b0RZME1IX3LfKgPjy0N21T4aNggrvcPr06TJnL1aK6U033STy8vJkznxMFVIXLGcNGjwzXCZio6BedtllYt68eTJnJ9aJKZaLPvfcczJnByZaWPFAFIIOl7LhmWFTGpvAzlLUm7HrhFViOmfOHOvW3cMitcFCQbhUUMAiteGZIWzKVOs6GYWFhY6g7t+/X5bYhTViunPnTjF8+HCZswOTXdVEIG5BWYumW6Xx4LvY8GJwgWV63XXXyZxdWCOmw4YNczZ9tgV0IJPHSZMRxIsBk102iQ++i23u/uTJk8Vrr70mc/ZghZhiddOHH34oc3Zgk3XlAmFQLag40cA24O7rukQ3XXBsEI6JtgnjxXTBggXizjvvlDl6ghCARGBd2eLeJ6I6TEqXfQqowfcK2uJGG1T1NzFuevHFF8ucHRgvptdee61M0YEGBEtgcZtLnfXvcLeRDso6CCsuMwhUviSCFpugCcLdxzN02zt+ov3jUtEmlyxZIh566CGZMx+jxXTSpEnOuTOUoLOj8SSzcFCG36kEf99WqxSgs6r6fraNLSaietNvfDbad2L9oBzDTioiS3AWmy1zHcaKKdyEe+65R+ZoQCOqaNLHbViqGFXXrrGxZPTIbiBTtOCgQJtB21P5osVCgfLA36ZeTIB+fN9998mc2Rgrpph02r6d7viHVITUBf9WRaNW9bm60TjjP8dLUxKFZ6dqCAhDWKmIJP4NtaDCw1y+fLnMmYuRYrp3714xYcIEmfMPGkaqQgrw71U0apvHSuOh7IguKj5TR/DCUNFOvEzc4VljiTDlM7fh6HUjxfT5558XRUV025Sl47arsIKiIqaNM9VYplGBup2k83n4fyjHqF9//XXnuBOTMU5Mjx49Kp588kmZ8w/cm3SEEW9lSkGNipCqIkoCjXZHaRWm246pw7X++Mc/ypSZGCem2FZv48aNMucPx13x4N4kQimAKixdXaHsgC4qPlNnKF8eftox5XLXiRMnypSZGCem2BWKCr+z8pQdOEpiCqjFz8aVT+VBFRHhtx7Qbqnc/R07dogXXnhB5szDKDFdv3492aF4aAR+BYzSOoiaZcX4gyoMjEIIKeNfTd6V3ygxpTxCliKeEw2IohHxeKl/8g/bd/58ecAQ0OUFjPugsk5hLGEHOBMxSkypds+HeFG51RTWKdW9mIRNh8aFBUW7obJwKa3T998P9xDGdDFGTBEKNXPmTJnzB6UlSDF2FTUxVSGkURRninFiqrYHIaX6LEoPNEiMEVPK82MoxUvVah6b2XyYfqd1FZ+pO37bHvUwAZWR8tFHH8mUWRgjpp9//rlM+YN65yeKBkndqHWHLVM7gZFC0ZYxZrp69WqZMwdjxHTRokUy5Q/qs4h4NY8+RE1Q/QqXiuElqokoqv4eJMaI6cKFC2UqfeCGUFuB+Dw/n0l9Pyaw+ADdBjXxRNHV94OK2FyqCS0qTzRIjBDTtWvXOgG9ftExsDuKlq0qMV1crOZzdUWFZekXKlf/iy++kClzMEJMqbbnsn2/S1NQ5Y5/eWCbTEUDXYc1KER+2bJlMmUORojphg0bZMofOr7Jo0be3rUyRQ8sXp6ISh2d95XdvXu3s9WmSRghplhG6hddVxlFbZxPlYvvovrzdULXtkPV16iMqKCIlGWqI1GzpFhM6fDbdlROflJ8NoURFSSREVOdXfyoCCpcfNXfNUqu/uYSf5apyudEMbHKlqkCqPYv1ZWouPoqx0tdIBBRsk51hcIyZTFVAMVxBjz5FC4QuKBEblLB8khYpzrvlEURhpifny9TZqC9mOIoWMrznnQkCIstbCYWBhfqEhXrVOd2QxEpQHn6cBBoL6bbttHEDuq80sj2jh+kVepi+wuKwvL2O+aqmq1bt8qUGWgvplu2bJEpffHbsG23pMIQNjxPmwX13b3rZCp9dN9Qmy1TYqgsU92xdSkkXhRhiRr+LoUFpyMUq710fzZsmRKDMVOdoRIKW5dCjtsW3hprWKcUFpxumODJUAyrmTZXor2YZmRkyJTdIDzKNld/UuHy0L/TxIJl1lmnVC8IlXVjq0dQHtqLaeXKNLeoqnKpGiTuz6YxPjwXCJkOjNr0sTWdG9+D8rmqei4Uk1tZWVkyZQaRsUxVBcZTvt3xWZSfFyZhuveJQDBscfepv4fOC0ZM80q1F9MqVarIlJ5QvtkdqyPAeExVjMyfq8ziSRcb3H2nfRBb+6qeCUWkAJVXGhTa322dOnVkyh8qGo2KzzTdOsVQha73b7q7r8K6VjW0RPGc69atK1NmoL2YNm/eXKb8oSJAWZVomGqdomPq5N4ngg5uqqDinlWMQatqwxSfS9X3g0J7MT3++ONlyh8qQo9UrSBBQ9RZlJKhu5C6mCio7j2rgvpZUH0eVd8PCiMGJZo0aSJT6aNioF1lbCjECaFFJmCKkLqYJqh4tirvlcKKjIeqrzVr1kymzMAIMaV4Q6ExUjca6s9LJG+PvuOPLqYJqYspgopnq7ydxeqQEqrVfOzmK6Bz584y5Q/KJZvUDTAZ6OhBdKZ0geVsopC64PkOWvd+IHWZDni+Qdwb2hflSwVGAAVU/T4ojBDT3r17y5Q/qCoZYM/MIHAFVSeX3xUhXYLy/YLni4tSUPyC+wny+VK9sPEMqZ5jz549ZcoMjBDT008/Xab8gUqmaDTUb/KKwN9Cx9JBUHEPENIgv38QwAKE208lKumC54o43aCtZarvTRW+1b17d1G9uprTU1VhhJi2b99e1K9fX+b8QeHqh+UWQlDDEjK3k9tijSbD/Y5hWakQNNRvGIKONk3xnam8PypvNEiMEFNAZZ1SVHaY1gsaPCyooKxUfFcITFidPAwgLPi+QYmqK+K4wsRv/eJ7UD2vPn36yJQ5VCqNIdNaM3HiRHH99dfLnD/GNeiZ9tne6GjoZDqAbc4G1WopBua0ID9JwJn8iL14ghAT3cH5YaPqdiQ/RwxtCZcuLyl8v0lNzpI57+BlQPVdCgsLyVY/BoUxYlpQUCDq1asnc/6A8OS1OF/mvAEhRQfQDbwccKXb4SGa7niXza68H/Bse2Q3EN2zjnOOMk73BYb2o+uhf+gX6XwvfBdY8xQMHDhQ5OXlyZw5GCOmYPDgwWQPeVRuRzGybgeZS52wxiy9gM7giip+Io/OHx9Mje/gruDSTTwri0qiRuVMUaVSrIHG/gPFR4+IA6UlTloXXHHF4XGJAuQ+bzxn11rDT93bTrr9gtIqnTJlirj88stlzhyMEtM33nhDDB8+XOb8gcY/sWk/T29huL5stdHRKCZC7arVEa0yc8TxsatZZg1xXEa2OK5Ktqhe+b+3Xys4Uix2HjkYE6kisTEmSusO7RWrD+0Wq2LX3qOH5b9i/OLVOqXsFzVq1BA7duwwbi9TYJSY4ggTzOofOHBAlvgDlkWqY0R464Y9QWA6VSpVEj2yGoguWfVE59jVKStX1KpcVf42fdYf3ieWHSwQ/y7eKf4Vq6eVMXFl0gf9AvMKqQgqpXsPfvazn4nXXntN5szCKDEFt9xyi3j22Wdlzj+pujWUbkzUaF21ljizemNxRuxyhx9UsefoITF//xYxz7k2i91HDsnfMF4Iq18sWLBAnHbaaTJnFsaJ6aZNm8g3QKio4bCQpgcs0P41msWupqJJzIUPmq+Kt4u5+/LFnKKN2p8RryNB94vzzjtPzJw5U+bMo8q4GDJtBLVq1XLGVL74gi48CQ0CnQ3jdzlxbidcmP/dMp+F1COtYpbolXXaiRtzO4nTqzcSOVX8u/Lp0DjmpuLvd8jKFZmVqoi1h/eKktKj8rdMRaDdV6pUyZlMi+8XKB+V/7FYcWiXLKHh1VdfNW7bvXiMs0zB5s2bnYdeUkI7u4sxIjfkJX4WlkmNKqKSuKhWa3FhrZaiY7VcWaoPM/dtEG/vWSMWHjDrPHYdcKNC0CdURCT069dPzJ1r9pyEkWIKxo4dKx555BGZY8KmbdXa4rLabcXFMTHVGXggU3avjF2r2ErVCHiaPXr0kDkzMVZMMaOPNfsbNmyQJUxYYHJpeJ0TxKnZDWWJ/kzfs1q8sWulWBdz/Zlwuemmm0gnlcPCWDEFCOBHID8THljK+ou6J4kWmTmyxBzmFG0SLxV+K749WChLmKBp2LChWLlypcjJMa/9JGLMRifJGDRokLP0jAmHITGX/obcTkYKKUCUwU2x+z8li2ZHMsY7Tz75pBVCCoy2TMHGjRtFu3btyAL5mdTAPgC31Oss6lUxb6VKIgv2bxHPFiwV37GFGij9+/cXs2fPljnzMdoyBYg5nTRpkswxQXBWjSbi53VPtEJIAcKnrqlzomiWWVOWMKrBSsa//OUvMmcHxospwBK0W2+9VeYYlZxYrY64sk570dJQ174szq3ZTFxRu63MMar529/+ZtzpoxVhhZiCp59+WvTt21fmGBVUrVRZXFqrrbVjjJfHxPTSWm1kjlEFZu7PPPNMmbMHa8QUvPnmm6JRo0Yyx1BzYU4rcVGtVjJnH9j679LabbRccGALw4YNc0KhbMT4CahEqDdCSResFnFWjWTWcPa7BO7qERNXVrWpWtvZSahDtbqyxF6m7V4lHtnxL5kzC0wMxrc5LFL48sC2H/dWDZuPP/7YWg/SOjF96623xNChQ2UueCCiI3M7lHssiiuouHTctT8ZCIH6Zd2TZM5u9h8tEWO2LnB2nzIBtDW0ObS98gj7KJrs7GxnG01bsU5MKY838YqX/VFd0LBxXIjOm07DKn2k4emiVVW7Jp3K4529a8QD276UOf1I5aWdDLQ3HMgYhqCec845YtasWTJnH1aNmYLc3FznzO2gSUdIgdMp6nZwdjfHlmc6guWiURJScE6N5s4WgjqCdoL24lVIAdqb1xMmqEBcqc1YJ6Yg6EpDw/RzqiOIF9UwGnpZZFWqIs6oHr1JvRqVM5z4U53ACxvtI5VNm8sD7Qvj30Fz9tlny5SdWCmm55+f3smj6ULZMNHQYTnoYqV2yaovusU6cRQ5NbuBTIUPXta4qF60EOYg2xjW4J9++ukyZydWiin2RgwqIBiuFhomJa6VGob1kMjJmrq6QYAXSdiuvmuNUrcxgE1qgvKCRowYIVP2YqWYYndwrIoKAhWN3AVCHbbbH4VQqPJoH+L3R9uitEYTweeqbL/xXHXVVTJlL1aKKbjyyitlSi3pTAJ4AQ0+LLc/u1KGM5MfZdpWrSVTwYL69jsOnwqq2y848cQTRZcuXWTOXqwV0w4dOohu3brJnBqCaIgAggqXLGhBbZiRLZqGcBCeTrTMDF5MIaJ+J5lSBZapas/nF7/4hUzZjbViClS7FkG5SAANHh0sSEFtEBPTqBP0M4CQBtmuAM49U0kUxkuB1WJ67bXXirp11Y15Bd3oQZCCWrNypkxFF1jnWLOvGrwswxBS0ENh1MLll18umjRpInN2Y7WY1qxZU/zqV7+SOXpUu0dlEZSgZlXOkKnoUrVSFVGtchWZUwciN8IQUtA9S83frVy5sjDsJHlfWC2m4Pbbb1dyLEJYDd8lCEEtjf3HqCcsi9RFlZuPHaIw+RQVrBdTCKkK6zQsqzQe1YJafPSITEWX4tIjsedQInP0hC2kQEVbhlX629/+VuaigfViCkaPHu24/DaiUlD3Hj0sU9Fla8l+Zfa5DkLqQi2oiPNu3bq1zEWDSIhpnTp1yN+S2DNSFxA2paJTQkiijqpngBegLkJKDQyX3/3udzIXHSIhpgBjp71795Y5/7ib7+oArApMYFBbF1tiQrL+8F6ZiyZrDtF/f8Qnw6PQCcpx0wkTJoimTZvKXHSIjJiCV155RWRl0ZyoqcOYaTy4H6yUouRw6VGx6tAemYsmKw/tlikaYI3qsOeCKrAz1HXXXSdz0SJSYnrCCSeIBx98UOb8sbhYv6NHXAuVkmXFBTIVPQ7FXibfE56lj/rBOKmO4FgTv2An/RdffFHmokekxBTccccdJJtH41wdHYELSTkh9U3xDpmKHvjuywnFVGeLlGLnfcxLtGpl74GLFRE5MQWDBw+WqfSheJOrgnJC6pvinWLB/q0yFy0WEb4wdZ5wojrCZODAgTIVTSIppiedZPfBcJTu/lFRKubt3yxz0aHgyMHYS4TmQD3Uh24TTvFQnZYbpQD9ZERSTLGjlF/wNg/jULJUoRTUT2Ni+t3BXTIXDWbv2yi+JXLxqScGqcFx0H7p2FH98mbdiaSY4g1apYr/9dY6u/oAbiWFa7nx8D4xu2iDzNlPwZFi8SHR94V7jxebzlCM/9vu7aVCJMUUQtqmTRuZS5+JhfoezwwordOZMUvtKyJ3UHdw9DaF66u7ew/gXVF8Vwpvz3QiKaaAovJ1t0wBOjTF7D6s07f3rhVHLN/8ZGlxgciLfU8KdJ69d6FqwyymERZTCreE6q2uGqqD096Nicy03atkzj6Kjh4W0/esFj8QLFQwZbkoVbw0iylbpr6hsmJUQunuT9u9WswnmuXWjamxFwVeGH4xwb13mVjgf6gKO0S1b99e5qILi6lPTLBMAdVkFNbqv7bre9Jgdh14JyaibxBZ3YNqBXM2mF+oolGwsrBq1aoyF10iK6Y4LZHiSBNTXH0wqi5N+AqC2V8p/M6aTVBm7dsoXir81pnF94tJVumkguUy5Q+sx2ciLKaY0b/ssstkzh/jtn0hU3pDZZ2C2UUbxZ9jLuJq4o1AggZC+mJMSDcc3idL/GGSVUo1RIUd9ZkIiym44oorZMofUbROwT/3bRDPxQR12UEzN0OBmPyxYIlYcYhmQYJJVinCvyho0KCBOPPMM2Uu2kRaTPv16ycaNmwoc/6IonUK5hZtEk/u+EbMiVmqplBcWiJe3vWdeGbnErGeyCIFJlmlFBNPADvqV6qk/vRWE4i0mKIRULkoJlmn2FmKkn8V7xCPxwT1lZhAFSk8L4mCFQd3icd2fC2ejQnpToIx0niiZpUCKu/OBiItpoCyMZhknVKD4z1g6Y3f/qVYqOEuU9joesae1eKh7YvF3/eskaV0qHimKqC0Sps1ayZ69tR/YUJQRF5Me/XqJZo3by5z/kBDnVRIM0OqEoztqer8GEe9f9si8Yed/xarNJmc+qQoX9wbu6ffbf9K2fgutbWvCsoX/tVXXy1TDIi8mAKM+1CRt2etEe4+5URUIjti7vNfdn0vxmxdIJ4rWBpaTCrGc++Picc9MSH9MCbyqsDLyQQxxYuesm0OHz5cphhQqTSGTEeWjRs3OoHHxcU0Y2joXHktzpc5PYEVPWjd+zKnlnpVssSZNRqL07MbiV7VG4qcypnyN/Qg9nX+/q2xa7OYF9BKLQip7uvwIaIj8+fKnH/OO+88MXPmTJljAIup5De/+Y147LHHZM4/JnQwdK6grej21eqIk7Pqic7V6olOWbmiRWaO/E16YCx0ecx1XxazfpcU73Qmw7aXHJC/DQasw9d58gkvzlGbPnZ+UrFkyRLRqVMnmWMAi6lk9+7dokWLFs5PKnB4ms4TE3D7qCYj0qFqpSqiXbXaomVmLXF8Zk3RNLOGOK5KtqifkSVqxqxXXJVi/x0qPSIOHC1xdr/HKiUcQb3xcJFjha4+tEesC3kllu71TP3SHDFihHj99ddljnFhMY0DliksVCrg7sM61bWjUbt+UWVxm0tlSj8w4US5GU9mZqZYsWKFaNnSjAm3IOEJqDhuueUWJ9yDCrhVaMxBu9JMcOCFqSvwPKh3NbvhhhtYSMuAxTSOrKws8dBDD8kcDToLauPM6jLF2AZElHoIJycnR9x7770yxyTCYpoAYueoDwdjC9VedHwhQUgp40ldxowZI+rXry9zTCIspkl45JFHZIoOHQXVhGNXdEe3ZwjXXoWQNmrUSIwePVrmmGSwmCbhggsuULKtmCuouqySwv0w/tDlGeI+MJmoKjrjpZdeEtnZ2TLHJIPFtAxeeOEFJcfXotGjwSNgnsXMDsKuR3g7aE+qvJ67775b/PSnP5U5piw4NKocVq1aJbp27Sr27aPbpi0eZxlirZahBXyzoNMQZtC+6ljhvn37io8++sg554kpH35C5dC2bVsxefJkmaPHtVLRIYIWNVgxLKQ0YD+GMOpPpVsPmjRpIt566y0W0hSpMi6GTDNJwKmLsEwXLFggS+hBx/i4KF/sKz3szA7nVFZ/ONm47V+IzSU8AUXB3qOHRa0qVQNZnIG2grrDC1hl/eFYH1ikrVu3liVMRbCbnwIlJSWOu6NSUF2CcP3DWJMfBbDaTdXuUaiviYXLAqu3p556Stx2220yx6QCi2mKbN261Rk/3bx5syxRC0QVlg4uqg4KV5TjXdWC8dOBOS3IVkYhZhRXkHWGgyanTp0qc0yqsJh6ABNSODxsy5ZgtnZz8SusEFEcVaFyfI35D2494Wc6ohqGgLogLBDjpFiDz3iDxdQjEFScE449UMPA7ZwYW3VFNhkYT/vywDa2QkPGrZ8e2Q1E44z/Xi2Feso/XOS88LAAIMxJQQjp3//+d5GRkSFLGC+wmKbB2rVrHQs1LEG1jcQXREXoIDy2MWTIEDFt2jQWUh+wmKYJC6p3XEu6SWbsZ9ZxKYtnebiCCgvctfLgIjOpAyGdPn26M4PPpA+LqQ8gqHD58ZP5byCUiEyAcJY1HKEKiCwEFheLa9ngdF5s9MxC6h8WU5/AMoWFyoJ6DFdAKWe0/eIOC7gTO8wxIKRYlFKpUiVZwviBxZSAHTt2iJ///OfivffekyXRwxVRnc9CAhDWqEc2VK1aVYwfP1787//+LwspISymhDz33HPijjvuEAcOBHugW5iYIqKJRFVUcQrvjBkzROfOnWUJQwWLKTHff/+9uPjii8WyZfZ3UhNOYK0IiCr1yZ26MnLkSPH00087J0ow9LCYKuDgwYNi7NixTsO19fGqXDoZNLZbqXXq1BFvvPGGGDBggCxhVMBiqpCZM2eKq666ylmKahM2CakLBHVSAf0BdGGDaBPM1mMHKEYtvLeWQn7yk584x+I++OCDjnVgAxBR24QUYOx3ZG4HbSIQ/HLyySc7Y6Nz5sxhIQ0ItkwDYs+ePY7bP2HCBLFr1y5Zah46nxFPAeJSsauWqXTp0kXcf//94qKLLuKZ+oBhyzQgatWq5RyTu27dOvHAAw8YaanaaJEmouNpo6kASxSrmL7++mtnRRMLafCwmAYMRPW+++4zUlSDXsUUBnDzTfqeroh+88034pJLLpGlTBiwm68BeXl54oMPPhBvv/22yM/Pl6X6YePEUzKw56vOE1E9e8bqYdAgZ5enbt26yVImbFhMNeOrr74S77zzjiOwSOtEmAfHBYluBw3iiOVzzz3XEdDBgweLhg0byt8wOsFiqjGbNm1yRPXNN98Us2fPlqXhAfd3UpOzZM5euq+eLlPhct111zniOXDgQFnC6AyLqSE8+uijzkKAsKsLYmrz2KkOLn79+vXFu+++K3r16iVLGBNgMTUIdLBLL71UFBcXy5LgwQRNXovzZc4u4NrDxQ+Tdu3aiQ8//FAcf/zxsoQxBZ7NNwi4e5999lmoY2YQHFhvtqGDkPbp00csWrSIhdRQWEwNo3v37mLx4sVOSExYwA3Gue22oMMLAnuLYrVS7dq1ZQljGiymBtK0aVPx+eefi5tvvlmWBA82BdFt1jsdsOIJ3wM/w+L3v/+9sxEJnwhqNjxmajiY5R8+fLjYtm2bLAkWU/czBbCuw9wpqmPHjuKvf/2rswSUMR8WUwvYuXOnuOaaa5wwqrBAML8pG4XACoVbH5ZVjfOWEJmBNfRsjdoDi6lFvPLKK+LWW28Ve/fulSXBoruV6o6NhunSt2/f3rFGMfbN2AWLqWVs3rzZsXpeffVVWRI8EFVYqbosPYWI6rD58z333ONsx8jYCYuppWDG/7bbbhPz5s2TJcHjWqphnVSqg4hi96Zhw4Y5k0zNmzeXpYyNsJhaDpai/uY3vxFr1qyRJcEDIcWqKViqqldPuQKat2dtaGOiLmeccYZ49tlnxSmnnCJLGJthMY0AOJPqqaeeco73DWs81QXCij1De2Q3EN2zjvMtrhBMnIm/uHi7+PLAtlDHQ12wigmWKPYVZaIDi2mEKCwsdI6j/sMf/hBaKFUirrjiZ5PMWDrj2ObM7rAAfgexBI5wlsj04SInr4N4umBSCUd9Y8kvZuyZaMFiGkFgqWKC6vHHH3fOqGLSB2OiP/3pT8Wvf/1rcdZZ9u+oxZQNi2mEQdVj71TsSDV//nxZyqRCtWrVxIgRI5zxaIQ7MQyLKePw8ssvO/tnHjlyRJYwZYFZ+ffff1906tRJljAMiykTx8cff+xsRoyTVJnk4MgQHDFTr149WcIwx+CNTpgf6devnxOf2rKl/ec8pQMmlrAFIgspkwwWU+b/0bZtW+eky6FDh8oSpnr16uJPf/qTmDZtmqhataosZZj/D7v5TJlMnjxZ3HjjjWL37t2yJHp07dpVTJ06VZxwwgmyhGGSw5YpUybY2m/ZsmWid+/esiQ6VK5cWdx5553OzvcspEwqsJgy5YKNqDFO+NJLL0XmiGEsA8Ux27/73e9ERkaGLGWY8mExZSoEgenYL3XlypVOXKWt44Y4e2nKlCnOy4M3bGa8wmOmjGd++OEHMXr0aPH222/LErPBBNOYMWOcF0VWVpYsZRhvsJgyafP111+Lp59+2rHmwjx+Ol0QfH/DDTeIUaNGidzcXFnKMOnBYsr4pqCgQEyaNMkJH1q/fr0s1Resob/lllvEhRdeyBuSMGSwmDJkHD161FlFhZCqGTNmOLtU6cJJJ53kHKeMCAXE0jIMNSymjDKwiQrOO/rHP/4RyhLVDh06iAsuuMAR0W7duslShlEDiymjHDQxxKvCasX1ySefiK1bt8rf0oCIAxyd3LdvX2dZ7DnnnMPLPplAYTFlQmHLli1i1apVzn6qCLnCBYHFaqt9+/Y5F04FwMRWTk6OqFmz5o9X7dq1RYsWLZxgelxt2rRxrNDs7Gz56QwTPCymDMMwBHDQPsMwDAEspgzDMASwmDIMwxDAYsowDEMAiynDMAwBLKYMwzAEsJgyDMMQwGLKMAxDAIspwzAMASymDMMwBLCYMgzDEMBiyjAMQwCLKcMwDAEspgzDMASwmDIMwxDAYsowDEMAiynDMAwBLKYMwzAEsJgyDMMQwGLKMAxDAIspwzAMASymDMMwBLCYMgzDEMBiyjAMQwCLKcMwDAEspgzDMASwmDIMwxDAYsowDEMAiynDMAwBLKYMwzAEsJgyDMMQwGLKMAxDAIspwzAMASymDMMwBLCYMgzDEMBiyjAMQwCLKcMwDAEspgzDMASwmDIMwxDAYsowDEMAiynDMAwBLKYMwzAEsJgyDMMQwGLKMAxDAIspwzAMASymDMMwvhHi/wC/ntIPmm47UAAAAABJRU5ErkJggg==;" vertex="1" parent="1">
          <mxGeometry x="238" y="268" width="83.09" height="100" as="geometry" />
        </mxCell>
        <mxCell id="HCrk2KYDXEB9rWcXeqYh-8" value="" style="group" vertex="1" connectable="0" parent="1">
          <mxGeometry x="367" y="62" width="187" height="120" as="geometry" />
        </mxCell>
        <mxCell id="HCrk2KYDXEB9rWcXeqYh-5" value="" style="html=1;verticalLabelPosition=bottom;align=center;labelBackgroundColor=#ffffff;verticalAlign=top;strokeWidth=2;strokeColor=#0080F0;shadow=0;dashed=0;shape=mxgraph.ios7.icons.cloud;movable=0;resizable=0;rotatable=0;deletable=0;editable=0;locked=1;connectable=0;" vertex="1" parent="HCrk2KYDXEB9rWcXeqYh-8">
          <mxGeometry x="34.410000000000004" y="21" width="150.58" height="95.53" as="geometry" />
        </mxCell>
        <mxCell id="HCrk2KYDXEB9rWcXeqYh-2" value="" style="shape=image;verticalLabelPosition=bottom;labelBackgroundColor=default;verticalAlign=top;imageAspect=0;image=data:image/png,iVBORw0KGgoAAAANSUhEUgAAAd4AAAIQCAYAAAAvlA+aAAAAAXNSR0IArs4c6QAAAARnQU1BAACxjwv8YQUAAAAJcEhZcwAADsMAAA7DAcdvqGQAAMzuSURBVHhe7P0HgGTVdeePn85pciDnnHPOAgQIBEhCQjlY2fbKkteW/f/ZXofdtS2t115LtixZsrIEAgmJnHOGGWBggGEGBibnPNPTXfl/vufe+959r15Vveququ6eOZ+Z2ze+UOl+37mxrcSQoiiKoigtod36iqIoiqK0ABVeRVEURWkhKryKoiiK0kJUeBVFURSlhajwKoqiKEoLUeFVFEVRlBaiwqsoiqIoLUSFV1EURVFaiAqvoiiKorQQFV5FURRFaSEqvIqiKIrSQlR4FUVRFKWFqPAqiqIoSgtR4VUURVGUFqLCqyiKoigtRIVXURRFUVqICq+iKIqitBAVXkVRFEVpISq8iqIoitJCVHgVRVEUpYWo8CqKoihKC1HhVRRFUZQWosKrKIqiKC1EhVdRFEVRWogKr6IoiqK0EBVeRVEURWkhKryKoiiK0kJUeBVFURSlhajwKoqiKEoLUeFVFEVRlBaiwqsoiqIoLUSFV1EURVFaiAqvoiiKorQQFV5FURRFaSEqvIqiKIrSQlR4FUVRFKWFqPAqiqIoSgtR4VUURVGUFqLCqyiKoigtRIVXURRFUVqICq+iKIqitBAVXkVRFEVpISq8iqIoitJCVHgVRVEUpYWo8CqKoihKC1HhVRRFUZQWosKrKIqiKC1EhVdRFEVRWogKr6IoiqK0EBVeRVEURWkhKryKoiiK0kJUeBVFURSlhajwKoqiKEoLUeFVFEVRlBaiwqsoiqIoLUSFV1EURVFaiAqvoiiKorQQFV5FURRFaSEqvIqiKIrSQlR4FUVRFKWFqPAqiqIoSgtR4VUURVGUFqLCqyiKoigtRIVXURRFUVqICq+iKIqitBAVXkVRFEVpISq8iqIoitJCVHgVRVEUpYWo8CqKoihKC1HhVRRFUZQWosKrKIqiKC1EhVdRFEVRWogKr6IoiqK0EBVeRVEURWkhKryKoiiK0kJUeBVFURSlhajwKoqiKEoLUeFVFEVRlBaiwqsoiqIoLUSFV1EURVFaiAqvoiiKorQQFV5FURRFaSEqvIqiKIrSQlR4FUVRFKWFqPAqiqIoSgtR4VUURVGUFtJWYmxYUZRGUiyKK7Fr6+gggpsooFpwrp2fz9vabIaiKKNFhVdRRgOENZcjyuWplM+znzO+CyM9l6WOWTOpbdo0auvttQeOb0pDg1Qa3CH339bVJQ8Nbe14eGARFp/jeJBAGMKsKEpqVHgVZaQUClQc3EmF5cupuGwFFVZYt3I1FdetZ+EaNOXYWOy5/N3sLqOuE44zaeMZrhJy8+ZSds5TVNyyiQW3ndr6B6h9ylR+eJhObVOmU/v0mdQ+g930GdTWN6AWsaLUgQqvotQCVu2OQSqsXkNFdoXVa6m4Zi0V1q2j4oZNYh3S0DCVhoc4zG44Q6VsVoS5rZ0FiUWp48D9qefqq6jvwx9ioeqzJx6fFFYspdzcZyn32jy22vl1wKLt7GTLt5ufILqt30Nt3ezYgm/r7WcxnsrCzBb91Gnit0+aStTN5VSQFaUMFV5FicOC6YRWrNe1LLBw6zZQceNGdpuouIndli1SDkMU2yAwEChxCENw2VLsMMJL3V3Ufe451PfRD1PXiSeYcuMNVAX8kJF56hHKs+gW16029x5xXM4Lt/FrpK4uahuYxG4yC+5kaoPjcBBHeDJbyyzUE6qfW1GahAqvogBYtZkMFTezmK7fSIVlyyk3/3XKw735FhXWb2BBzkuzqxFVdjYcpMFHOvpBJR95rlw7dRywH3VfeAH1/95n2OrtNWXGE/k8FbdupuG7f8ev/21+Twom3b3ewHEa+/KwAcSz6UaNzWufPIXap8+ijll7Utsee7MlPINFeIDaevrYjcPXrygtQoVXUZjS8DAV3llGmbvuo8wDbPG9ukAGRTkRceLTFohqKLaBteusWz/P+hLv7KSOww6jKf/r76h9j9lsAXbZq48PSju2U+7luZR78Vnp25XXIq+HHQSVXwbi8nrhgISt7wjyjCcB/t8+bSZ17HsgdRx0OHXuf6hYypHjFGU3QYVX2a0prlhF2WfnUubhxyn/+hvSlFzauk36aoUyETVhcRANFtuwmTnq+9auSWtjwd2D+q77APVcejG177mnucZ4gC3+4vq1NHzHzfwerDcPHbhnvDbPyWsCQZqJBnEXTgL9xOgb7hug9klsDe9/CHXudzC1z5zN19ImaGX3QYVX2e0oZbIsMhso9/yLlJvLbt6rlF/4JhU3bDRCEhFNCAr7EFjEISp+HjvT1OziXjqOi6f191MnW70Dv/8l6jzm6HHT51navo3yixeytX8Hi27GJDoxxb2zH1i6/D/IQxh/gjCiNuDiZXAGv240Q7fP2pM69tiHH0L2lbgM3FKUXRwVXmX3gb/qGIWcf3Mx5ea8RNn7HqLcK69RcdNmTxxjoluWnpTmlYXo2HjSeTD3FU3MA1/9I+o652wWm+n25saWwvJ3KPvCs5Rf8Aq/T0Vzz3hwgCevSQLW8QFB2MalYOi7YCJc40ilw3/aYAVPnkYdbP12sPXbMXMPwkAt6uiUooqyK6LCq+z64CuOwVODOynz8BM0/Kvf0vAd98joZREOTxyTxDXIQ9lYH29kYJX4tqxLix3jzt971ZXUc8Xl1HncOJjXy0Kbe+VFyjx2P79H28y9ioNn7tvFzeuQDBM3hSRq/ng+8IKCX9u4qoc9hNqnz6auo06kjoOPoPbJU8dNa4CiNBr+RSnKrk0pm6PCilW043//M+34+3+m4fsflhWZBBEMEwxFIp5gfT/qO4fEWYSCSOiZPOfaKLdgAVuZK5Az5hS3bGarfx2Vdu6QezMOHv9xoouawn+YEIcHCeMk3eXbhwsTruJkFSxTFg8kpe2bKTv/Oco+9wjll71FlM+ZG1SUXQz+5ivKrktxI1fmjz9N2//nP9HwbfdQfsEiKm3bbnMBV/ye54uj7xs5hbNpJmCcK+vnIyh+GIZnInxf69aZFa/Wr5f4WFJcu1oGVkkTM+4P/3HfEEfxkWDF0sYhlGHrAB8mPsq4NA5jlHcQt85Pc9eQMG6kQMTiX1y9jPKvzuWHk3lU2roptIwVZRcBPxlF2SXBAhjZR56goZ/fRMO/vo3yi99mqw6jlVHLw7O+xP1wAq6IOwZ+kObFA1zEFJBYcAxbd5i+tGIF5ZcsQc7YUShQYe0qKm7gBwDcH9cI5aIb9cNBY87Zsu64QExd2HORYxH3jzPh0vBO/uxYfBe+wp/ZAn544oeCIh4KFGXXgL/tirKLgZWntm6j7GNP084f/oKGbriFStt3cDpX3ly3GxWMIemo+J0vAc9ZIkEvInDcHYssOYdJDpB0uDYqrFpFhYWLxs6iQ783LMwNa6m4fYvcU23RtfFASF2ejQdlvbDv3LF+2MWDNHYyvWk15V57gfKLXjX3p+Kr7CLwN15Rdi2KLLrDd95Hg//ve5R99EkziAqgYrcqKEEJWJeEyxPnRZxIuKRqSBlX3h0Ax/e5fj0V3mErHDsZjYH4lgp5Fv/lsguR4L8u1Azi2zT2Q9G1aRLngrG+Wiwy4vp+Jew7Px3HuvNxPCrAJg8PBvm3XqPs3CfMmtgqvsouAH+7FWXXobB8FWUgut/6T8ovWCgbFkTgOt3gAvBNZY/6viqJ+eZY4+AZP+JAPAxyWSpu3kyFt96S5SpbDgt+YfkSFrftfE9GNMPXAhE0QojXZF4XO1fGCSY7yYcvcSueXn6is2XMcSzC8WP4v5ShkjQ9F1cto+zzj8kgMBVfZaKjwqvsMmATg+wTT9PQL2+h3IuvmOblJFChu4pdfEk1+Gku7BPkSSyGS/QLxHwRE/gwcktU3LaN8q+/Hq6U1SrQzDw8RIU1K+XaclvBa0/y2Ykgej67UDC5KnGiGYQhwghbV9bnGz3OCDe72DUw6AsPB/kli9j6RZ8vi68OuFImMPytV5QJDlfCsGyxEtXwrXdT5sFHw+bluuBKPvDDsLH2JGixgSDd+ZJq8NLleCFegG99xw7Kvf4ai9/OlooJloQsbdtCRYwadmtS45bEt45rh4gl6sLie03FrnwgrMi3zh/FXDbK2SvrzunO4V8LDu/N0CDl33yNBfhNft+2mReiKBMQ/oYrygQnX6DCylW088c3UOb2eyo3RXL9HSEeTyAsgpBzIO5b/CI+Ll2cK4A+zJ1UWLTIWOctbEIt7RyU/l3suBS5NxE7hG2CEz64iEAibMuJgFoRjcQrOVtGzgFn0+VYZ0WH8cDnNAyyyr+9QARYUSYq/O1WlAmMTIdZR4P/598oN/clWSyjKlLRS8Bz0WAZlfIi6S5QyY/BybgV0+Q7TIVlS2V/31aBAVWFlcuohJYBeU9wM9a3LrB2+b+fj1CQFggkxxG2cRwr/bcuHE+zQmochznN9+HZP9Y3cQQxtze/9C1j+WbHoG9cUUYJfi6KMmEprFhNmTvuo8wjT8hm9dWba20FLpV5GDRhm4Ca3aU55/DSnBZECI51mdZ3aRI1aSwh4gOIX34pC+/WFgkvxB4W7/o11OY3ybv7dvfqhNBzEM1QII3ImrgNo4wboQyHsO8CsUVTtTvW8z0XuZY4c2+lfE4GWeVff8lsX4hR4YoygeBfgKJMTEo7Bin38qs09KvfUnH5Ktl1aGSgRk/ykynLFUEwwQCXJukuk31Ji/n8sACLt9QiixdWYnHHNtNPitWqAmFzDp7xBRcWEbRxiKf4SDO+WLOIR1xUbKN5Xnm5RiVnrwkkCYtsDFF++WIqLH+bX8tWk6coEwT+JSjKxCS/eAllH3tKloREc21jkdrec82Czy3Cu5yKm1l4WzDACoOqSls2eqLLiZ6Pf2Ga7/w0DqP2EJ+PQJovok5oq6WLS7J8zTnDMnEn/8XSzS+YR8U1K0c4mE5Rxgb8dBRlwoFFJ7IPPkqZu+63KSNAau+0oHA15/4mUDHDwmJb2rGdips2yvSiZlPcuplFnoW30o1Jss2D0ImP//jjOwioG2jlOd+ylZHMVmwjo5pxLPv8H76Ir38Oc0HJ9ssZXEZJXkth5RJZ9lJRJgr87VeUCQZbN7ln51L2uRfYUmRrpx5cnZ2En5EmHIEzJK9igWRc8QKWSFwvmyc0m5II76ZA3wJhczcTxBGGi1vB1gcu7ITT99lhepBrgo6s8SxlnPiywxUk3Z7P8xEMyvkOFAtUWLVMmpzHagUwRakXFV5lYoGBQUPDlLn3Icq/gvmvI1h4wtbZEZLSfPx8F4YfOc6LiDhIQKIBiMaSHBDd4prVNtYcMH+3uG0rW9iuX9TdDPtyb37chiUdzqYF6S5uw4GgmnjY/AzBNaIbWLa2THAM/y+7RuA4PRGTIRb8mhVU3LBGhFhRxjsqvMqEAgOoCitWUuahx6mwZJlNTQHq6IoVeAWqHeOn++Uk7EesHxcQhL1suOJ6CC+LR7NAk/b2bWZglZuG499THMmzNxc4i43KS3WvDb4VUrO4hnWSjzyEYQHbNPaCPDgfFw/yXDx0QTKLbXHzBiq8tYBfFwbYqdWrjG/w1VeUCUNx3XoavvUeKq5YVXvObhpc5d0Sql8M6zbL/rzNWkiDhbe4cT3Jhvc+7rbYxfUvwJURXMQ6XxiZsj7fYCoRh50wIz04BzwblmNMkndKE/bjMYrbt1L+7YVmwwfsQqUo4xgVXmXiwIJUWLWGhn93Z8tGAEeoUvFXQvSkjAoqksuxNbqdxXFjc0bpQng3bTDLU1bDv734rbq474CE+Y9zksZ+0JTsO1cWvnXA+QlUzrInYLGVucnLFlNxUJeTVMY3KrzKhKG4cTPlF75F+dfZshlq9PShsSAmJ9gMgC029PPKilINh4V388bawjsq7Gtywoo/vugKcb8RlKSZOb/kLWlOV5TxjAqvMmFAn24euw7t2HX3ZZW1m1dhXmqDV2NC/y6LeQkrPQ03cyck2wqB1ggJ4o91QQtF3G8Q/J7JIKutm6mUa0A3hKI0CRVeZcKQf3MxZZ9/wcZ2BcqFpzSIzQtYePMNtnjxoMKCi77Qmusb47Z8bfRvs1q6E1snsBJnV7TOxfl/6FtXg8pFvJPI9oE7ZNtALBKiKOMVFV5lQoCN4gtLllNh4Vs2ZWIQFQwXi6b6wOItrlrF1mljLV6ILdZmpnyCJWh1Cw56mIgrA6SQdeK5DMCWtYiqdSK6LPpwXrqUcecAku75wPlA8kywKlymuH4tFTettwmKMv5Q4VUmBNgMobBiFRW3bbcpY0Caij9O2TEuIflkeMDA4CpYvo0cYIX+TwiSWWQCCSa9wm0YJK9KYcniP75DDwD7RnwhthBdpMMZAQ6E2ZYNnH9+iVtfgi4euuAQOA9YvGZlLkUZn6jwKhOCwqLFsueuVN6NJKHirkn8mCDuEpN8F7bEk1wY/bCDbPVCfFmEGwY2Rli3VkZOR/FuQoIuzn4gfnA2HjiThmCQ74QUPgQ2JrgImzSEbVn+b04C34YjzqYl4qVLORvctk12eipldoUBeMquiAqvMiHIL3qTiitHsaqTVzGnZkTH8AFyjDvQ+vBcUpxYOpqZC2hu3slWb4MILd5QeAM9cyKHGxHP+kB8FkwE/Dx3sDtWnBVYhCGsVmh9Z4TYHYeytjw7yef/Jh6eG0EXjjiXbkoIksWvETsvyZaBrpyijCNUeJUJQWHpChaOBjQfomJOqouRVqmOrpQn6S4jVqDqMSZYhstjq7e4lkVyZ4NGH+MeYfFuXCc7+hh1sheDl4jNkLImKhLojvWcaTo2ZSTNs3DDcEKalLXnFtH1nCTKfxv3fJMaeOJHjuN74oeWEpqbg2MUZfygwquMb1BxQojQv7tps01sENXq5LI8mxBU5H4BE65Yx1dKB2V5nIBpMetYeBs07QfWLkb7StO1CB4STZ7ctMRDPxRS+L5DWvwY40q+mDonafB955URsUWTdOw4/i95CCDufAka3yRH0+wfAe9dcQt/X6SgoowvVHiV8Q1XyqVt2DJvc+MswFS4Chu+H07yR0P5uTDfVoR3JBtAJCAihEUlnMCZVPMfUREu52yW9YUg3WY4J8IZ+iLYIq5w9lrwfRekmXKBpRv3xdlrcnHxgc0K8sObNEFx/CczTKXt2AjC5SvK+EGFVxnXYCGEwpp1VIToosJuKqi8rXNxHxuNpZqEskSLS3dlJM5/3HUkzfgsQ8g0Fv5Gu7RjA14zml2LMq8VF3EOUXs9h8RdfrIz4mrLStjz2YX9uHChwCalRcq68wUOnhf3r+lc2etxZfg/W/fY41jSFGWcocKrjG+yLLwYVNXIEb6uwna+C8dxyfFsDgeH+OnAT/ev4WfASwJZyIMoDcFi287W6uhH5kp/51a2/oLrIuAuZv1IGEEnsmHcOfyLiGUkbJqOjYO4+nGXZtJFhP1zuPMg354ryLf3ZoII+74J458tYAaTyeA0xBVlfKHCqwRgjmdh2QrKv/GmTRl7Snm2/jZs5Iq0EUsA2oo5qS429XVIUhlQKR0ZttIPXWUiuZHiNlIqspW6zVhtowSWs+zBGxMq8UXsXJqNIyD5MeesTgio+C7dimhcSLFLEPwy55eLHcv5EdFlz6WL71z8HkHgs8MgMkwnskljDt+bLAe6YiUV12+wicruigqvYiqsQoGyjz5FO39yI+38xc2Um/uSVBRjDgYaYSeiRqy9G6+EU1TKYREXquTHqJAs6SIWxgvEQhKM5xys1OL22BZ+I4GF1/R3Mvba4uQiVuiCdP4jImfLuDxJg0C6MhBfxJ1AOmfTnFAGcd/FygVlY6LL/+WaEvYdp7tjEGa//DUUpJtCpk8hPpbg/nbsoMwjj9Lwrbex/xgVli4b+/tSxgwVXkWaM3MLFtHOn/2Kdn7vxzT0s5tYfH8tSzRi4/kxhSthbIrQnN16quEqRa40XdhV7F6e8Wx64Kqlw4F42Poumcs2xOLl82CQlunvxPl9h3xbxvqCyxch5LgnjMa3ZZCPtLgTS7eGS7CGEy1dz4Xi6pwpg6AfFyfn5JO46VNjCEQ3v3ARZVh0h397K2XuvIuyTzwlLTkNeaBUJhwqvLs7XDlhOcbt//OfKHPvw1RYvVaWZtz5/Z9R5rGnqbh2jNe8RYWMZmZUpI3EnQ6+qbmNcxU3kLBJFufw0/z0CC6D7z+poJ/kwhIPM0poHt4+OuGFxVeExYsR0vx6zCX4r1zGXkvinIf32IZ9S1OOcum+MIq4cS7KwCHPnQN+wfpxh3xbRvp97fGhGNt7C65l8+PH+85PF+w92dhYkl+yhIZ+/RvKL35HPof8okUcv4WyTz1LRfS9K7sdKry7M1wxZV+YRzu+/Z9GZLfYHV1QYWUzYv1mHnqMK4ddZX9Tv3J2viUWTV9ju4LwrUCYYBWHP4B9dy+Bs0nw+X0ftfBiGhFGR8t91XC4vggYBwPxMy4QR0mDIFpRdHErmuEgqtBJvp/GZcV357D5wfm8JmwZiCVlrHNh/u/uyxzjOVeO/481ENncE09S7pVXZcCXu2/08+78CT/cPvoEFVatMYWV3QYV3t2Y3Cuv0fDt91Lmngdts5e3Iw5Xjth0fvj2e1h8H+d4q5t6m4BXEYfBWrUz56OIq8iDCh1+LA0ugkvwfFcufoyfDtiXAVE7RtfHiyZmY+0iAsdiJRn818YD3wmZEy7fty6wip1YivPTTLkwzRyT2CQtLnaMc3xseK0wzXdGdJNfC4ImMkbwDRQ3bKDcc89T9tnnZf1oea3uHrFb1LJllLn7Xso9/Yz5/Sm7DSq8uyP5gkzRGb7rAXb3U37xEqkU4tUU5kJmn3qOhm+7m3KvvWGe2McCWECNrERxqiQHgjj/CdLlT9R3wQixcvCC81g/KGNgifDSbdiWlc0SsEsR+ilHiAgvVsCSc4bOiJYvmi4PnhMIL90XPl8sXV4gKl68qnPlXFn2Aws4wblzWxcVXev48DAPTt6C1sOvR8ZNvPAiZZ+fI03NcjO4J8HeG8dzL79CmYcfpdycF8xgRrwXyi6PCu/uBv+wi9u3U+a+h2noljso99J8m2GI11VYHzn7xLM09OMb+al805hYvm2ojOI3NlISzyO1IP+3flDI+RY/mV2kuKvofT8JSUaZuHN5no+BN17/7EgoDe6ICS8nRoQMheRPJM2IryeETqTZSRHxXZ71RUBtuSAtwVUpHzRHI+7KubAr46fjeD8fDthwW3ubibcQPKAWVvOD7Z13Uv6NheYeJcN4EfghOPvcHBr69W+p8PYS/qwyyeWUXQoV3t2M4pat/EN/gXb82w+4UlhkU6uDwVZDaHK++0EZfNVS2rji7O7hb2ojv6qugra+DQbO4aVJZW8CXgbww0wkmf9Yh+PDc0iJkCDdOg474cFCGkHf+wjAQ5YstenO7Tl3DRGxuJDBk/QwHuQHaXwODqPPNjiHy5e0Ci6SZ89j+30lnnCdoJyLuzLi44WaNDPFCWF8dfi709Xd4O9ODfgeiitW0tBPf06FpcvDfl1x5h7NfYZhLBKD3+Lgv37HTDPydpBSdk1UeHcj0HSZnfsS7fjujyj31ttSqaeCLa/iqtW088e/pOwzc8y82lbR0U7tkweorbPDJjQArusifgBXiOLZChGuvJBBslw5L4xzVDrOJUeOMV5QXCKhD2vVrDrlCtSHa2o21+A/gWjBIRiNm7AVNMlycQiaTZeyNm7PZyxV+MaF5RKclPdd/LxeWckzaYmiy/8lnwPmtdjX0MZVW2eX8VtIYckSyjz1FOXnzzf987hPgHuyvgSdA3z/GESXe/U1Gv7NrZRfwA/ErryyS6LCu7vAFYAMprrjPso8/ITpT6rjxy39vc+/yMffS7m586jkD8RqJmyttE2exALcKOGN1HihHwS9ihFI2Ob74aAAsGGXFJyD//g+/kgGgjYtEo+GISToK8Sm7kFenaDyD5qqcQp77sA5QZMwBM6WcYLH4UDwAodyftiUC8LsjPWa7Mry/GMRttf1rxlasoi7fL5XGw5fg/Hb8L1ha7eVDc3YyCM372UzWGrTJtM3z7cjf5wfYMNy3+xzWTxgYXGN7FPPyApyyq6LCu/uAP+4C+s30NCd90mTMRakkAqqHmzlgObmodvuocLKVfWfYySw4LZNmczWS6dNGCXull2F53z8Ed/hIp6PshJE2PiS5JyUgQ9swCsb5DkfAUl3ziSF5fj8EN5tI7R4WZREeLHec+Q65S4iXIHAhS5qyeLc0fxwDm7oolZt6OLljOiy718Tc4DtPQXCL74R2iDu5wdl2FnhbQm4Jv828q+/zg+nz8sUIpPM6fIZS9T44pDmnIvzf77vwvIVLL6PU/bJp8MuAmWXQ4V3NwBrMA/d9DvK3P+I2XBgFBQ3b6bsw4/Tzh/90izH12TaWHjbp03jSrRBwguksjNeFJdi/VjFKDjfZFgHrB8c4zn8kXQrEoFDHrJtOJ4Hj0VTpqLUC0SXLV3Zg1csLyt6OC+EE9eIiZi5t3IBlTI2zzQL2+PgpIyL49gk55WLu+B67PsLbthrGesYcVtGfNw/HOcH98DOhdlv6+iitr5+M0agyWA98cLGTZS57z5pYjaJxjP3ae+NXfD5lxGWkZHO9z7A/vyxXzlOaQoqvLs4WPwC/bJDt95FuUVvceU2ylHJXLGhGQwinrnz/ubPP+zqova99qC2nh6b0AhsxScVne/Hw+yATZdoPF+cS4NvE1E+CLPnEykPH//xxzpgj8UoV+xHHKSnhT9n6d91axVbQTLCiTiXwSljghUIg0uXMMQPzqSHgujOZcs44QzSqjhXRo6x57bXCs7vn9uV8eKVRFccf2+of0DeiqbC91HcsJ6Gb7qJ8osXm3ET7h74f8QXrB/kOWfjIMfW84JFNPzzG6m4ahXRWE3jU5qGCu8uDEZUYpm6wZ/+inLzXzcVeAPAIK3CG2/STj5vfv4CM4ikScDSbd9zNlEvC29DrRdbyQUVISo/OJvkKkHx/bAETFiyIFbGd8VC36ZFfCtuSLBxwXoSDwSE/2fQ1LzNHpOeUrFARWyMgClJ7jo4BfuRebpwMeEKxdcXu3LnBNI4xF2eE8pazhxjXHgu/xrigvsJ41VFF46Ft22AhbfJFm9x/XrKzX1BmphL6NfF/cstxO6H/4e+DQPr8ysK09mhvzg75wXK3H2/6dZx5ZVdAhXeXRgsRZd54hna+ZvbqLi5fE3YSj/lND/xIot45u4HaPi+hyn/5jujt6QrIU3NU6lt0iSi7gb12UkFZ5zUZ5EXbBKkIoSTihBB51sn2ADnmfPwn8C3eV6ZyLEu35VlF62sbR4sXiz7iHA9wOLFUp8R4Q1dIL5x4bIWaESc46KGeJlAIm4EWM7hNxvHnc03Qm2OSywHF1zPhtkZ0bXHuHybJ/mIY2DVAH9nmggGKObfeIOyjz1GxXXr+EEX7zUy8MfzHS7Pd5KEsASND5fPU3HjZhq65XbKvfTKLrRsqwJUeHdV+Mcsovvzm42lW0EY3e+9bvj86DvGNoLD9z5ExWZuIchWS8ces6gdg6wahVR67PA6pOKDM0mhwx9gfe+YaBnn4LEfJCGc5DiPdSMqGOYYeBKXCN9bNmO2BsTnJ+kpKdj9fDH6PBAovihOgWvj3BJHOvIhZC6OMkbAImVE7Gxc0ry4ly+WK/pfvXMYZ+OSZ48V55/Phv3zI02O9Y7jpKCM95CA88Nv6+6h9slTmmrxYkWq7Jy5lHv55fDz8Z39DJ2T75lgfXiBi0TY8V/M7134JmUefJTyL78qacqugQrvLgoWycg88iTl+IcLzE/ZEY2NBjSJZVh4MXirmbTvuze1z5xuYw0ieBtcIObDC5wJBJVn4PuO/7gKVMIuij9R34YMUjbmREA4D34+ZzZLwCCplGAbRdndCBavFS5zXitU/B9xETJJN/Ew3x7DcSd4ImpwGMEcsWhR3h3jwmldteONkEYEV8p45dy923ImzsLb00NtU6c1R3j5OjLI8NHHKPfCC+aa/N84+9lG0lzcuTAteOgDQZ5Nsy7LD9DZR58wG+gjTZnwqPDuasDSYQsJU4eyzzxvpg5ZmvKT5Yo9/9oCmWYEsUf/bzPogPDOaLTwusrNhf00W4Hir6T7zgZcWRAPR3wXZufKsQstbedsETnGpbHLF4z1WqHVIhHp490mYh1cB4IV+BAuLsdxI1iIe/m+C9KsACPupYXlvHA8r1Ja5HphnhPcIC9yzZjj60aazvkdbOvppfYpU+WtaCh8jdLgIAshW6Hz55v5uu7ekOeFzefppdvjAxePIynwbZjBZgvZ5+ZS5r6H6nr4UsYvKry7GFhUHz/S4YcfJ9n8oAWgLyo35yUauvEWKixfaZbJazAdB+xH7bNn2lgTMHVctNJzDglBhYhK1CsDrG/S+Y9zwXHOuULWdy4ej7lSgcXTimhqYPFiDq/t400UXydsyPfTXdmgnB/HMdYCDYTW+WF+mObHXVqlcuxDRP10X1Al7jkbDyxxiRfNwhn9A02ZTgTRzb/1FmXY2i2sXGmbmJEBhz/Wd/HAdw7xWBqwnvP5VYX5/DBdWLTYDLRasszMy1YmNCq8uxJcWWEt5R3f/THl33zbVLotAgO5hn5yA2WfnWs2U3AVSoPoPPhAat9zjwZXpGHlFqno+L9xLow/UT9q2fgO+aaM+CwG8II0KxYuH14Yt07KeOnO4q1LeFnAMP/Xm05UJr6xuFiZLu7ELxI35UwaBNIeI/meix+T5IIyxkXPZa+beB6ETRz3KuVdOeu3TZpCbejfbfQazSyyssDFgw/J0pDxNbDD7wSXFefiiLg0OBf3fM8F55E842G97tzLr9HwPQ9ok/MugArvLkRh3QbKznmRhh97atTrKdf9s+bKsDi4kwa/+yPZSrDRS0q2H7AvdWA+b3eXTWkAeJHi+I/zBev7UVcZBs5kBWH44tkMlxZ3kuf5cBANP84uqHxZY8R6rbePt2jm8coey54olYkknM1zohY08Up6KHSBQx9vEA+PCRxE345ajqRH8qNpZdeRa3hxlx+8Dpdvy7jXwH771GlmYFWDKa5dS7l5L1H26afD+bp8ef/zF985iXqfZcyF6SjIDvcP/LSgTImKGzfR0M9+JbsYyWh1ZcKiwrurwBVQ7tUFtPOW283Ugzr6A/H7bghcWWLiv/T3PvWsTWwMGCzTvvee1L7fvjal0aBygxdWdHBGSG0cOD8oD4ew55wQwAEIBYLivDxx8PhPcIwcIWFE5Q8Lbv0WL6zk7eYBKHJ++5r8e0wQsEA0q5QJ4pLmh61z8biL5/vHJl6DHcdxL3JfLk98fq2ujJRni3f6dDOwqoFg6lAW83WffsbMW+cHG7m+fID2fXL35JyLywmcc3HkwbdhGzHvt8tHwIQlmsHm+WxxP/wE5Re+ZfKUCYkK7y4CloLMPv8CZZ5+vi7RbSioILbvkGlMmXseMgu91yMW1WhrE+HtPPQgm9AgXAVn/ps/4iQmvgRdWty5A8XhD7xYmnUmHc6lWx+4uBUPibOPY7AkoczJTfteQoTYIpLNEfhY/3xOoIxQeIIl17dlJBwKmbEubV4Q9v14uF6XdB7r2/sKLXWbF9xrWMbdc/v0mSK+DYN/T/nXXqPcC3Op8M479lqcbu8hKpZxP9lFjgF+PJLmOVxrOCNLtuZemGc2OlEmJCq8uwL8o8w8/6KIbnGd6f+xP90ywvRKJUZPYfE7lHnoMZl/KHNQUUE2gI699qSOww6xsQaC2/MruCQXlINDGjzjR8pZZ/KsA34cTkQjwZkTixeICgtuPU3NsIyN6HJ5scwgSPZccl0Txz06J+mBMwIWuEizsZfun1Oahl3Y5gXl4o7zyqYjsS/nih4XXtNPRzheDo5P0d5BbTNmUvuUBlm8/B5i6lDmoYdlz1xZ+5ovKffqHF83Euf/8OV9BV6aiXrxMidFTNj5CHplcvNepeycl3QHowmMCu9Eh3+IGEU8/MgTlHl2jk002J/umJBf8CYN/seP2EJYZiqrBiAW7+FNEF68U65i85E045vK0ubbtMDJ8V468PM9Fz2PDUM0kOTigTNpMicXwpu2JSOfo6LswQtx5VM4YYBYiY9E61sn03HKBM3G3Uls3DRBG0E0m+DbMja/7PgyF883cdPvi3thx+liaSfNF5b7CePm3jmOVpFppn+3rUGrnInoYr4uW7wIy3Xk2vC5AMLy+du4y484Wy7JAQnbKP7Ia7UJ7AKhBgjDAp/3CmUffMwmKhMNFd4JDgZ5DGOhjNcXUnErV87jBOmPemcpDX73h5Tne5MKY5RgOhFGN7dNGuBIE766QSVnKzq5ZReXiPURt15QViIRBy/IAzYeWI1eWTgjODbu57MgYZpY2nm80q8Li1euA6EyghY5r+TBWTHjsFw/LsBS1gu7uLNqcQyO5bDx7XlcuJKLlwnOzc4Xc0lLjpv7RdykYQ/ejn33M0tFNmD0O/pyscVf5v77rejydSWDr8cfZOT68D1nXg8X8/PkUJsuzqb7TrC+i8OLlcMyrZknn6PCmnUNH8ioNB8V3okM/wAxgGbojnsJmyHUNfgmhv2JR0hKSw1XUsVtO8wuRo8+KfMPR0tbb69smNB5+KEcbuBuRXihXqUGz/yB75yrTOFMPOKQaD0Tt75zCZVz6GJl43E0HWMhlDosXhl1C6HA8fbagcAh7py7hpeGMqacFTwvL4gHx9h40Lw8QufEFi5yP0iLhp1Yh+nscExHB3UccCC1Y13v0cLXwnxdDKYqLOPvrjQx41qx++P/Evec3FssLUj384CE4XnpnoPHASlqI+JjACWWk8w+/IRpDVEmFCq8ExjMI8wvXU7DEDZ+8q0f+0OuQu0SVWDBKCxbSZl7HqTsk8+aeY+jga2YtmlTqev0k6mtv98mNgj3Qm2FF7iyStSWQcDGTaWZcKxzCecIKtoKlXTgOF+amrEYRtoHK7aASkM7+VhftLzzxc5fyUXF1z9XPK1avJqzZQPRTTrWT/PEK0i3Yf7f1tlNHfujRWT0wlvArkMvvkS5OXPMA49cwzoOVxVKCcf9Cs4/F7CvxeQ7P+5MenH1Whq+5Q6zNSfeC2XCoMI7gYHYYs5uHs1NdawWhd9tSDTWDDKPPkXDdz1AhbeXjrqCaJ86hbrOPJXaBhosvEAqNDj7njjfEVR8MYfKExUmDpY0DkoFaitV4JV14bLK21a6gcXkfIxqxkYXGKGcAiycIg85wbVC4XLnlf5TOMlHmldGnAnjXsx9xvOj5dx5k8tUclWO9dPQVM5xI7oogzRXxsbxUNbXSx377CurVo0KPm/u6adZeF8wTczuWuKMF8TlXjnu7tmWCcPs+PaCNCBhdjgG+Mcg4OLAnd+l4aUjneOY15t96DEqrljdsHEUSmtQ4Z3A5JevoKG7H4hYkvKj9IjHxwSuGLGiFRbXMDsloSYaGbB4u885XQS44f28UvHB5/9+RYqwjRsRMmWE4BgrDJLvnM3348DFuTw8//zOGcG2cX7/sEtRKccPVxCZGojwRixeJJrziIOI2mvUFmB2/HnFF8QIziNl3DFJ8Wou4Vgr8O46ck00Y0esYi9u7xv9uu0HHCzzvUfTv4vR4LnXX6fsc8+bJmZ5T8w1At++f3FnvhvWeffGf8K84BzGRY+Bj+ImXvZ9ct8H5/C5DGco8/jTMohRmTio8E5QClgfedFiyr66wFTI4xmuJIpr1souK0O33i3NeCOlraebOvbeizoOP0T26W04fsXm4uI7Z/NQKXLdGsTF+WVC31SuNh6vTOFMIfH89KDihY/mTrZqUi0Dij7hnejjRcUOAWAn9+udz3NyHefc9UXk7HHBMeF5jAjDWXH045GRyMnOCHnCsTYcjmZOugd2sdfRNmkydR56qOzDO2L4fcO+upl77pH5upFWA+vLvUmcy8O3efCCsoHzyiTFgR/3XCDIQRn28bKDuHHofsg+8qRZzcqVV8Y9KrwTlDz/0LKvvCbNTaOxIH0q/Wwb8XMuZbKUX7KMdv78Jsq/+oYZLDQSYOX29VLnicfJ9KKGI5WXqdTKK1LjpFJ0ZRGMxNnFj5OK2U9zZa3vl3dh6/sVPaybVEsFwuLFdCIrWuE54s7kw0mZII6LsS/H2LSIdev8eDiMm2snuzAPZSudy4aD+0iKG4cophB1HAzh7bRvQv0UN26k3CuvUPbZ50iWXMX53bXYj4quvUekI805V4b/O9+8twj4zr1GhG1ZwL4Eg3KVnCmO9yTP9YCszY7WJGVCoMI7EeEfXnb+65R58eXg9+f8kREePbrzVAerWmEUZuahx+XBQSqQEdDW3kHdp50sWwU2BdwWu4ilahKCeFllayvWyDEuz8ajx9gynB8c44TFnis4p0uHxZtigJWUkVHN9jxyDhuGj/NFRMzEUcaIBJ/ElQuOceXYj6TF4+Ex7nxxFxwj5VKeM0izYXZ43/DetHV2ykpVHfsfQG0dIxRefljJL1xImfsfsJtL8Hvo7kGuY68P574L7Ec+U+eCe/Xyg2MQRBieTbNx8YPrmKKRvCBunY0Xt2yl/KLF/JtaatKUcY8K7wQEFWvuzbcot2CRTTHYn2Iq6inbaIZu+i1lHnzMrHk7EjraqevUE2WrQOJKtzmYyi2sHE2SCbNDBWnLCEnpcecqYidOcJHreOdxjovCh8DIAJo0Fi9GQcv0l1Ck5NpyXe/aImLlcbmWlGfn9626MpH+1nicHeJBWoJz+VKm1jnDtGCBDXFhmfY996SO/fYXAR5p/27uzTcp+8ILVFi8mM9bsK+VHfsR0fXSzX35aXwiOMBp+FfpmFCQTVmXJylePAiL59LkqAgivK+/YWPKeEeFd6LBFQ322c0vW2mWY0wg/rtM+J3WTSPO4SisXCPCO3zPQzalTrhybZ8+jTqOOJQ6Dj7AJjYQW9G5Sg+e/WPTTLysQrYuSHeVZCQ/Fg/KsqhE4tYXobTXG0Yfb4opRdLUbC1eCJScA87cm9xfxBkBM9fz4sjDMXIchM8eK2VcuQrxIC3BRfIrn0Pu1fUFlx3DzqZ17L2PWLsjEl0+DzagyD37HOXnvWya8+Ua5tzB63XO5fHlXZlyP/ZZ8n/jG4doEA/KVHKmbPR8SIxSeOtts1AN3hdl3KPCO8FAJZR5+VUqrFhlnswnItks5V6aT8N33U95rjBGNBWiq5M6jzqcOo89yiY0GFe5uYoOLqGShBdJs8cEQuFccCwqZXuMS0NdaeORCjbwITL8P6XFixYREV5YhO48MReKL5fx0s214nnWh3hzWKzNSF6leBqXfI7gGnJNV8bz7fuCpuV2CO8+I9u1Cu9pbu4LlJs3jwqrVoevnf2KouveB69suY+T23ilMoEzZRGMpie4ChTXrpcBVrJW+0StF3YjVHgnGlyZZl98mfJcSfBP1SaOjEpHj+6s6cAo59zTc2j4tnvMxvmoUOsEwtt1wrGmuXkUU0gq4lV4oZDadARcWllFahw8+ePnV6qEvYo6sUJnB5EoYWP7WjjhxbG+k/MZ0XDCIYZwvFzQzOvi8L04O7FGcQ741hI2YunK13C2TNI54EfL83n9c1rhw0fQNm06dey1N7XPmGFffHow9724Zg1l7r2XCkuWmn5dOb+5F/e+m/fNOvsgEH4fXLrn83/5E8TNvSIcHBfkOWfyTboNWx9BE7cuAXw3CqvXitVbyqb4jihjigrvRIMrHLF4Wbgc/k8x+WdZmbB8vUeOnvyyFTT47e9TfgFXFiPY4gzrNncddzS1z+RKtylrNzvHf3yHytGvOAE8OJdu/aACjx0j/2zYiIiXz36Z+KKMjGpOM7iqYJql3XnFQTC8OMJiEZs0J3r+PUoZOcamu3jg4mnmHPU4cw7/PAlhuR+X5tLZURs/fPHnv8ceI3rwwsb22AAhv+hNs+wizmnfi+A9kPcBDvdhrh0RXTh88NZHnvnsUN6mS1b8ONyACct7L2kJxwT3wvEaFDdtodz816VFSRnfqPBOIFCZ5lesosK69VTEqNUqxH+nKX63NWnEOSLkclTk17LzxzdS7sVX+AJ1XkHW5t2Xui88R9ZxbgquIrR1YnCPEmaHStNVjkEl6TkU8n0EUc6WNVkI+5UuO5zX+kEcFSqsslrAKpZNEnyRs+cS510L4cCZ12JcwjHw3T0lpnE8OG8NFylnj3Nhvwx8scD9NHtvLLadxxxjhLdOilu3Uv611yn78CMy2t6dWx4GcA3nguviIM6P53m+3FPwgBDPs+d16YHj80bi7PwywM+rQmnzFn5Nb6jFOwFQ4Z1AwCrMvfW2GVSVoh8n/jOt/rONUk/ZEcMVCeb3Zh57it3TVFi8xGakBIOs9tmbei6+gNr6myS8AG+GrfgiYui5sEJ2Za3PZeMCGvgSZhFhT/4kuMixLLxpphPJqGaItLuGdU5U4+nGWcGwVp1Liwq3y7Nly8J+vB5X4zx4H9j376WtqysYzdw+abJ94Snhc+QXvEHZZ56lwoqVZjCaPbe8z8H1bdiKaW3RRRznt+G4Q574Lg1x/5ouDX7ss5eM6sjGCYsWm89eGdeo8E4gioM7KbvwTTPy0sI/T+tPULhSKa5czZbH47L0nbw2qWjSga0Cu848hSvhPWRVq6aA+wlcUtxUnkHF7CpLr4I1efZYPz8Ix/K8fFcBp7V4ZQoQrB7vHOE5jXBF8vx8v383ViYUX5vvwsExNuycS4u7pDIVy7vrRh3WY+48iq3d6dOJWIRTw69JNkCYM4dy817m6/JDinvt7vxBnK9vH0SCMq5cNT/mKn72yIscY8tI1KWZuLgaYKUtDBCTxWnSPKApY4YK7wRCLN5Fb5nRrQmk+G0mEh6X8hfeBDJPPU/Dd95HBRZh9FGmBU3MWEij67STqA19vU2D35dIZcguqEQ5O6hIUVmH8dDB8+LBsXDGmooIoitn45Kf1uKV3YkwuAr3gnNAPKyz5zRzYsO4u48wjvKe76w+3Iu7HxsOj7cuOEcFl5TP8aRzyz2W3QsL7+Qp/JmfVv8uVfz+5Z58mvKvzKfSps1yDf8ezH2F14Evn1u8nPXd/UqaOD7WhV2eOwZ57nvEvuQB5LsyZcdYlwY8ROzYKZunyOevjFtUeCcQRfTxLl9VsynJ/5nGf7Ipf8IVwfGjPUciqBBffpUG//0HVNqyhS+S/iptfX3U8+53sQDvY1OagLxw/mMrxqDSFJ8d/EoOFbn49jg4dwx8VLJSJmaNurIS53wMrIJlWAXZQrDAwuuOcSLiruGcPa8IsIiwV0asz1h5cUlpRsAb4ZLOnXRNTCHqmDGDuo44oq6+fYz0zi9dSpnHHmd/Gb98e055r2LOpiWKoI0Hn5WkufPgQuzixwY+8r1jxcfdmXSJiG/jLpwW/uyLK7mOGKx/sKLSOlR4JxAyuApNSeiTsmmAf8Y21Fiac9YKcAVTXL2Osg89LhvnY9BVWrApfvfZp1HHQfs3b5AVwBviKkNUrGWVqvEDcY3khRV8YoUchCFCXtw5jqdqakbfPxwfE4ppkuP7cfck1zLXDa+NfPi+S0pLcHVMJ6rp/PfBhttnzaKOQw5hq3eyDLBLBd87pg4N33EXFd5ZYkbR++d3IsxhfD7yXgR5nrPx4H3y0kKf38vEdL6PpM/XHgM/kge/XvihCXN61eId36jwTiBQ8RYwQd5WviP4WaYkPHPzrlEOtmTDGs7DN99GuQXRvuyqdLIFdOD+1HXskc1bv9kHFSLeGL+CdA6Va8WKN/TLKvXEsqiMTYUs8UyKpmYssAHL2B4j13EO5xDH54yE7TVEfFD5u3ybF8TjaX5eUno9Ln5+G45Y3+zzfbbvt5+MZq5nChn21c29+hplH31MRjS7c8XPHVjBku6VSfKDMMrzRWw8lWDH88XZc/jxeuGHruLGzRW7o5TxgQrvRIIr3eKWLVX7QEfyWwUjPa7RYIDI8O33Uu7p59hCCecq14Qr4a4zTqPOk46X0c5Nw68g/Uo2UpGa/FD0OO5VzM5PFF9xnnDbOPJlmkiN/m/pB4ZlbI/B8UFTbtl1nOM8cRyOHOO9BpcflImWj+TF05JcUjkr/EF+kMfpHJf76eyijgMOoM4jjrCvOAUsRjKK+fEnqbieH1zxcCL3b87rriWiCCdxmx/EQz/6maMMX8MeY4Qb6TGHL4H4tmyZg+fF5UtTP/jcpI7ghzRl/KLCO4FA/12RhUkq0Rr4P934T3hkP+kojThHIlzpoCl96JY7KXPvQ1KZpaXrtBOp6+Tjqa27jlGuI8GvHH1fHN8vfFv5GgsHaTbdy4NfJr4uLpW4zXdp0oRc4/2AhejKBc4cXy7AYZ5xHBcL05ax+eHmBOwjHDQT2/LuGD8epLmyCccEZcrjbvAXhEyubfOw527HgQdS28CAfcG1KaxZQ7kXXhQXXM+7H3MdDgfviwvzwcH7YO/D5SNNwmGZip+l9QNR9tLgh+e15xQnt14/OBYtRfgOKOMWFd6JAioeNDPix+nhfp/807WhRhGer9FnrglXHvk3F8v83uxTz6WuRLBxQufRR1DnKSem7/sbKVJRsmPfiCvi0fTyfK9i9cpUrLCtc8enWjKSvyPSIuLfizhOCM4XExs/P3btMM3LZydi4VxSPEizguWHI/nWxeKcYK4nIm/fN453HXccdR50kLRw1ATn5Pcj++jjlHvxJTPgSM7DeTi3u1bcuWvLazbvE5K4sE1DGZwD9xWWCY51zjuXuY69Lv93eZHXKsfhOuxGCs6JxVMKNboklDFFhXeCEPywq8A/ORsaGfUePbqrVQerCeXmzjNrOWOz/1p9m6CzkzqPOJR63nV+84UXSEVpXFiB2vRYhRrkp7F84z47HI+WgJpNzTgmsHjD4yUszqbbMMQwmufiLlwtLY2rdd40jo9ra6f2GdP58z089UpVMor59QWUfe55KixdHp4LPt5T/70J3iNbxuYFn0twLNJxvDkH4qlEVwTaplV0uGn8GQU4jTx4jfI8SlNR4Z0gtLW38acV9l1W+1n5efX+/MbTzxUbew/f/YAIcHHbdptaHQyy6j7/bGqfNtVsntBsvIpTRAxhr9L1famAXZpXcTu/XHxtZR2k2WOqIcd4FpgIhj0uSHPpJuxbpZE8V95ZnS5fmn1tOMmlHbFczUWuUaS2nh7qPPoY6th333TNzPzwgf7czF33yJZ5pcFBOQ/Oh/fGPHDYa8jr5LAvjign1w7jQdg5lHF5sfQgX8I4N9+T5Nvr+OV9N1q4imjDQ2czxzkoo0aFd6KAprWOTip5P6h6fqYo65dPd2xYqp5rNQyuDLH94Y5/+jfZ8ixNxdQ2aYA6Dj2Ius85ncV3ik1tIrgl5+DJPbJzFalXCcM3lblfEYd5pqJG5W8rZvakknZp6PdEejVyWWMZc/mooNpz+NdMSAuPYd/2q5aVrxiOu6S8tOWj4baBSdR9wfnUNj3dIil4UMsvXEiZBx6i4oYNwfsQfX/j98JxScf7bMv45YKwcRHR9dJdXK5VJrphGflcvHhD4PoB0+uoswUtPsqIUeGdQLR1dVL7FBaTWDOq/5Pln7P1R049xzaouqgIRjnn5r1Kmfsfpfyit2xqFbB+84zp1PuBq2UZyZYglSq7eIUaS4/ku8o+KOPC8FwcZVw+H4eRqrV2J0J5CKZ/XnZOeCReZrHG02yYj8e9BGIsYS/flgmPs/EgLX6dWFrSsUE8vCaxtdu+117Uddyx1M4PVjXhYzGKGXN2sXyiaXoNX1PydXGceX3mNcJxontf+L8rG9yXjQe+c8iXND5GHNL4POKbuMlH3PqNAg/mWM2rFa09yohR4Z1IYL7q9Kmp+y/dz7nSz7ren3ujzlMXaDLcslWanLPPvpBqRZ62yQPUff5Z1HnYwRyeZFObDCpPryINKta4i+f7giBhEw8qducQRz93rYFmKOcfG4l7YuauG/Gt848vyzf3bsS4mvOP9139x7fPnk1dxx9n9txNsS4z9tbFCOb8/NdkcJWcJ/I+mPNG0vghR96XSBkblwcg4+S+gmM83zvOlDGvNXCSzzfHftk5Gkl7Oz+cT5ZNJJTxiwrvBEJ2ZGFrLqkZKe3PN16u9nENrhhGSHbOi5R97CnKv/GmTalMW3c3dRx0AHWdfjJ1HLCfTW0BqES9CjWoYF1arMIty3dhGw+EwMYDsagCRMsMruJyvhUbnAdpcZGx53VlbRlxQf8uXCwPcVxDrmMdyoszAhotb9PkGFvO5QXn8dLg2tqpY//9+bM8rfYDJ78GDKjKznmBcuyKm7FQBp/Df53iyuPyWbh45L2xDueW9PAYUzZ6TCi65n4k7MXl9SPdnrPRtEF4+eG8aRuGKA1BhXcCgfmpHbNmUJvXjOT/dBv5M46eq/aZG1+FxMjmZOvAoZtvNRVdCrB+c1ezF9SII5UtO1dZuwo2lh7J9ytj52zcWH82P88+8qqA5mhZaMM/py9qSJN0c16ICe4h6M9FGXEu7B0XCdt4cD7rRGjCNDm354LjxblreGmxa2AgVefBB0kzc80pRPzAUVi9hrJPPUO5V18PzmHO6V3LxTnfvP4wbo5x8TAtuHe4oAx8vi57iJvPCelIQznEXRl7HUnHAXBNoKOd2qZPI+KHT2X8osI7gWjr66XOAw8Qi64a/BO3ofDnXe1nXk8VgLL1lG8ksn3gU8/R8P2PpBrl3HnMkdR14rGtWUbSx1WutpKWStuleemR/LIyqMDhm/OJSGIZwFrzeO2xYp3JObzKHmFrjZpzR8s4ETJC5OUFLpbmX0Pi8JOOq+S4rBzjudg5u048gTqPPab2wxMfh+/E8I2/psKiN22zvDsPzhmeV16nvFZOw/uBa/J/KSNWuE1jP3g/pEyYHsZNfvAZi2+v68XLzsH/mwK6ow7YTwYZKuMXFd4JBHbh6TrkQGlG8n+3aX/Drly95Q21j0p73pEC4cHCGkM/uZGKy8wG5tVA5YMlJLvOPt2mtBBXwdoKOZ342go7KIvK2sbZyc5DCNfCntcJTNl57fnK07xrcRjXci6eL04saT+ekFbJJZV1aQjzf2x4IQtmHH54TeGVtZixOtWcuVRcv9GcJ/a6wvfDc5Ey9hibVlbWOS9d3hu/nAt7fqQMfP7fFNrZ2sU2mfvsVf92iUpLUeGdQLTzj6n7sENlTiOo9vvln7sNjY5m1REjBQvAZx58jLJPPkOF1bXXcu486nDqufBcM8iqo8Vfd6lk2VWqgAMfFb5nNXliGynrwrVAEe/4UEA8cXFhcS7u+UEZ44vF5p8jMV4prZKrdDy7jg7qOPhgFt3DqH32LPO6KoDpU4V3llLmvgepsGIllYaHoq+Rw8kimnBdGw8eNtxx/vkkzmXi54yUNX7LRJfBNKL2PWZR27SpzV82VRkVKrwTiPaBfuo68jCi/r6KFoD/u3bim+a3Xm990MT6ozp2lPPOG39LuRdfMXNWq9Cx3z7UdeqJsqKVe2BpKVLZspOK1wqYF5eK3KuYUVFXFGhx9ryVcOWcQMCxJSkWbFKe5Lu4dy/Oubh3DneP5XGUTzhHkkMZeT+843Eu62C5dV90AbVjj+UafbuljZso9/J8yj70KJUGWXTlGuY+3P1FXzPC1nG+OA4Hr8fGjQvzjW/iwTnlM3RlQj+4rp/eZNqmTuEHlUNqdkUpY48K7wQCfbxdB+5PnXvuIc3OoN6fsytfz3Fh2dpH1Xs/I4LFNzfnRVnLueYoZ35Aad9nL+r76AfNiPCxAJWuVMAcRqUcVOI2z6+grYtU2nERqIUc545hhzgcC6zZfMATBpcvYVMmPNaPe/mSZuNBWeOwgYJcAw7xJOfypZk5ejzObUbmTqPus89kC262fVGVyT7zHGUffFhGNJeKpjleHJ/LNGXj3LFr+e8JykqcT4ZyOCZ4T8JjwvcNcVeGjxHfnDM4lxxrHeItAN/vrhOO04FVEwAV3okEiwj6d7uPOoI6Zs+0iQb/p92an3nl67Ti+tjoO/vIE5S5lytcDDqqUrm1z5pJPZe/S6YYuQeWloP785xU3nFrya+o2Q/FyqVJLW/OVwlkR86Da3jX8dM4LELB4bLryDlMmSAsPrtImZhzFm9wXIJz+e71xxw2uu8604huVeuN7yH/xkKZOoS+f3lP5Rzw4/dRnlYukvZ4l+b5CAbxSF543sj7B9+5FtE+cwZ1YncunUo07lHhnWi0d1AP/7g69t6zrApO+olzdWD9ctIcX066Uq0gv+htyj7+NOXmvmxWdaoAWgo6Dj2Yus49g9r3a/EIZx9XEbvKnH2prF2FHeTbytxLDyp1/l+LUEysALhwxI+FpZwR4DDPczY/dAll3LnK0iu5hPLo291/P+q+8HyzJnOlQVVcFrvwZB55nHIvvyrdD+G5ku6D48F74b3v4qofY8p654g/MATntcdJGetahBtUhZH82r87/lHhnWC0dbRT76knUSdXTrIY+gjwq4N41VCpqoimh7F05ZsDKt7cqwto6ObfmR2MsHBEEmgp4Mqo98p3U9exRxF1jeFyenhjXEVtK+eIUMYrble5e+WrgzIoZgUj0tTq4rG0WNxZv8E5YvlBPH5/SMP5g2tUcUG56Hnbp06ljsMPo66TT6xq7ZaGM5Rfskz6dQvvLImcIzhn5D7MvcnrCsrYcvI6XJwd4njtLLDyIBK8TlcGN+DSjJPPMHA2v4VgUBXWKIf4pl3ZThk7VHgnGu3t1MPi0YVmU7tLi/8Td+FoWnMrgdZWMVEKy1fK1oH5+Quqz+3lyqj7rNOp88TjpOl5zAkqblOZm4rbT7dO4rYMKnhzdGVQIDjGCIIRUHMOyXPNoxEXXicIo4+U/UCIg3AYD4+B88+R1kWP6TzuGOo67VQzEK6StcsU16yh4V/9Rrb7gwj75xCH12jfB7lf+z6E+QjbuH2d5r0Jj5H8SsegDISZ08x5rUMYrsV0Hn04dR5/jI0p4x0V3olIZyf1HHc09Zx4bNWKOJ7nxyuFQaVzRtMrlQqpXaIBYJQzW7uD//Uzyi9YxBetclW2ervPPVOmF40LpJK2PipycUgz8cBJOaRZvypeWXF8vLX8AvG0ll+QH/G9cPw8kTQTN+e0zhOiSHqSc+XEqjThtkmTZHBQ1/HH2teSDD5vNC9nHnzENjFHX0N4HXM//CeSL86JLcJSBicOj3UD4QLnzmF9Oa/k2fPIOeDkFlsLP4x38nvWdcqJNkEZ76jwTkTYEuhhy6339FNkBCjwf+9Jv32uKqzfWlpxPRlo9eSzlH16jtnwvApd/MDSdc4Z1I7BaeOhSc5V1l4F74RI8lx6ULmbw6oix1lBkHNaP4gjjOtYoXTpge87pPn5fhkXr5SWxtnjqI06WXQ7jz5SBglVhO83v2AhZR9+jIqr1hBls3K8e2gJX4t/P/G4TZP3MzzOCK5fzo+btOCzQVyO99xYwL//jkMOkr7djrEcv6DUhQrvBKXrsEOoh59wO/baIxCQpJ9+tepgJFVFpWPGqNoxwOpdu54yDz9O2edfNGsVV6B97z1l/eauU08aP6M/g8rbEwVU8NaPuFoVPLLd+eRcvsh4aRJ2cStYkWN856d74cBq9OK+8/N8Fy/HYABc9wXnyaIZ1ebtYnP73PNzKfvUs/Z8vthaP/7a/XuGC96LuIvne8dwvvk8wnjg+P+Ywb/9nvPOoq6jDh+7EftK3ajwTlCwmEb3EYdS37vOl0qrHvx6woXjdUe1uiTMq1aq9WQfeZIyD7EltHEj31rle+s87CDq++h1rdsyMC24ZVe528rfWGIuDt8UrYoTDXuORLEQYbRhKeOuxT7HQzEL842LnSfJBdet4GL52HWrY++9qPusM6kDC2ZUgo+Rlo1n51Jh3Xpzr+5+/Ou51xakIc7Ou27wWhPzOSznCNPMdWJl4I8ldtBgz3svow4srKNMGFR4JzBdBx9Ekz/0fmqfNi2wElxV4FcJYZr5l5Z0JcNSlcojPf1VR04pm6XcnJdo6Je/oVKVDePbZs2krrNOpc7jjpbVfsYdrmKPV/xt/Bm319oswB7ixMUXWHfO4LxeXJxfxh5f5uy9NNBhvm7v+6+l9pnTK78+/jylVeP+h2Sf3fD4+OuCs2lOPKUM3zfHQ7H1jrPvsV/WpPF/V97Gg/xxABbM6Ln4AlkWFXvwKhMHFd4JTDuLRs8Jx1DfBedQR8IKP9WqBz/PhZPKVzpHND2MVSrfErjizL+9lDIPPEr5VxdQacegzYgiFtZee1Lv+66kjgP3t6njDLyRIgae6+xMMYWMy/nHcdgXzTCPRSYy3YZdmUh7ec7ZMiJIcu7ROervpw5+gOy5+EJqqyIexS1baPi2O+VzLW7d5t1T7D7lNdm04P7M64+8dheXtOg5wvuLpgflxwMd2Kd4H+r7+AdlZTZ8N5SJgwrvBKatq1MEd9IH3ktdRxzKJvDoJ843oloZy6qpxJVybv7rNPS7O80mCqg8E0DzfM/ll1DX8ePU6gV4IwNxKFEbptdUmWIjsDBLubhgSNiKbyAo8D0n5VxeQn6QF497aWVWdBXHZdG03HXqybLASaW1tEuDg7Iy1fCt/JmuWk2Utxv9y3n863s+nzvyWr33IIz7xxtnxJYd8sX5YXbjBLQSdJ12EnVfcgG1j7cuE6UmKrwTnPb+Phq48jLqPY0rLzs/1a8eXDiaVl8Fkq507VL1XXXkFDdsop0/+iXlX19IpZ1DNjUGP6RgQfkuzO09nB9axjN+xV+j8oc1L9aPLyq+FSjiYgQmHDntlY3H407yfRc/tg7X3kFdJx5H3RdfUPmBgs+JudrZx56m3MuvUWn7Dns8Xze4nr0Hjrv+abMOtJfvx4OHgzBNjkEazinn9cogPp7gh6uuk0+gHv7dy5x0tXYnHCq8Ex2usNp7e2jS+6+i/sveVZe4oawr7x+X9hzVylXKS3vuUZHPU3Hdehq+636Z71mNnksvpO7zz+ZfwgT4KaR580TAYPE64UgSEzgTd3N6Q8EK8wLn95UGYT/di9fhOg86gIX3+KoPPhihnps3n4Z/e7v084bX4/vlc7gHiPDeTR4nhGUrvn57XFIZidubGGd07Ls39Vx0LvVcfL5NUSYaKry7AlzZdh97NPXzD7H3jFOk/8evM1w4mhbGkvOjxOOOaHq1WAtBpZkvUBbTi56ZS8XNW2xGOR0H7Eddp59EXaecIO/brgF/unEhiViALp19KcNORMvEjRjBt07STHpQHs4P+2kpXfdF51MnW27VlobMvThPpg7JPrv8mYb35d2Ld+/mPmw84pBmjik7hxznnYP/j92Xtwr8O0f3Uu8H3kvd7zqvap+4Mr5R4d1F6Jg+jXrPPI0t36ul3xdNjkl1R636ZCT1TfSY2mcYyTVGQn7Jcso+/Rzlnn/RppTT1t9HnSccSz1XXGK2U6vU5DkewBrTNQdXMVaAfAENhMeJTTwtEq8cNudkJ32oI3NoGsWgNmnmP+hAe9MxUHbbdrMJxnMvyCIp4X2Ye0kOu7hLM35EbIN8r4wTYP4/XmmbNEBd559NPVdeSp1HHj6+v6tKVVR4dyG6DzuUhfe91Hfe2TI1w61qNR5pSf2GfXvnzqPhO+6TSrzSJgqdhxxEPZddbOaQjuct1fBgUKs/D585ph1FhIWFJy62Qdw6aZp18YR8OL9MmQVtHdIr5VmH+dPdl1wk4lHJaivlcpR7faE8OOUXLY6eQ+7Nu5fIvSMO36ZxOPrgYcv4rxE+/x/PtPX2UOehB1P/Fz4l/eLjbg66UhcqvLsSHe3UdeB+NPN//QX1nHQCEf9YXX3i1ythmvlnwiH+MUnpSVTKG8kxjaSwcjVln51D2Sefqzy9iN+njoMPoN7rr6X2PfdoyX2NCFg4NawcWY0LA6w84XFCFFp97IL+0JgYBXE/37rIMSN0DAYE9X/iw9SxT+UlDjGIauinN5j1t/N+365z/j1H7z+crwvflg/eB1vOxScIHQcfSD3Xvod6r76C2mfPsqnKREWFdxcD/WVdB+xPU7/0Geq/9CLpE2okqKoqVVdherREumOaBFeyhSXLafD7PzXTiyAecVjM0ELQ9+H3U+dhB4sQN/2+RgBEtebnya8l0GZfaODHhCcU4lCUI+XhgmNi4UoOZaqUw167PRedL33reJ+TKK7fSNmnnqPcs3MlHByfcN7E1yDlvNcgznsPJhgdh7DoXn059X3sOrNKXY2HL2X8o8LbJFAR5LZsoW0vvkQ7Xn2NipWmtTSa9nb5cfadeyZNuu4a6nvXBZIG/ConqfqplV8f46eCw4ILWGYw+8QzZh5oAthIvPPIw6gbi5EccrCkjZ9XYEEzc63uAzedyAcvxAliIF5OmHw/FK9QyEy6KROWC11SWrJr4/vCJgg9V1wq/ZWJr6VQoMLid2j4t3dQYfkqItnyz1zDvyfnwvO7+/B8/zXz/wlHR4esLd57DVu6117JD4WH1P78GwW/h5g7jcVosBSr0lhUeJsE+qh2Ln6b1t12B6256de06bEnaOebb1Fh+w5TYTSZjtmzxOKd8onrqfuEY83evfyk7Nc/LsxVmQ1F66cwPz3RsumOrOf8IwLTizZupOHb7zUrWmFHmziwFHt6qOfdF8koZwjxeAOrVtXqt4dFLHN5k/CFyAlTIFRWrILmZD/dunhTs/TlxtM8F8vDCkvYnKLrdIy8Tx4kJpsgvDCPsvc/QqWdO8vOYVzsnv2w/9qcm4jw54gmZXwf+65/H3VjtkILRBeD2AorVlH2uRdo+JY7pKVoiH35zUzU93IcosLbJIqZDG2ZM5fW3n4Hvf2P/0Svf/EPaMV//CcNLniDioM7WyK+nVzR9bN1MeN/fJ06Dz3QWEOM//Nx4XrFNx73ieaFsfTHNIF8gTJcmWP3IiywUYnuM08V176v6X/EfTX93lIi024qiWpAHc2Qvjg5AXNhEU4TDq1gz3G5YC9dzwXnC85pHf/vPv8c6j7vrMqbevAxqPAzDz5KBf6MsN52cC3/XP59+oLr3ESHHwLbp0+j7rNOo8n828UKVU1fJAPvGz+gYlvN4d/cTlu+8DXa/r/+r4Rzr7wmv5kS+tqVhtDxt4wNKw0kv307rfzFDbTjlfmU37aNisNDNPTW27T1yadp+O13qL2jk3r239dYME3ss0G/YOdee1LXgQdQccs2yq9cJT8w/4ouzDafDYVpIMwvJynNkXy2tMc0AVTShQK1Y1rGySfYxBiwfDvZGsvlKPvMHJsY0tT7qwH6n7vY8uk86gibkgC/xtxL8yn74GM2YRSIiDlBi8WBS3MuKBtzbN1ixHj/Zz5KPeefnbw0JJcrrF1Pwzf8hjJ3PWCs3fh5Aofy5rBdEQz06/vAe2nSn32FOg7a3zxwNbGOwCIlhUVv0c4f30iD3/uxzAIocj1Ryhgrt33aVOo84lBZuGM8tgRNRFR4mwF/WbMbN9HS7/4nDS1ZKl9s6bsaHKTc+g2UXb2WMkuW0PBbi2VRgI5J/dRhm4IbDYS9nS2Mjlmz5AcE6yC/ZBnfDz+92srLv2qS+Ebzo8TjPtG8MFbtGFArfzSUBndKxY+NwzGVJWnTAcztxWeIJ/3S9kF5UPFp5v1VA7vQdJ1xqvRFV4Q/19zclyj7wKM2ocE4wXPil+SAF28bmES9179P5kp38MNm4vecfwfo183ceZ/0LUYEFm53gH+rmGLV98FrqPdD11IXuoi6mie6GDmef20BDf/uLhq6+Xf8sPYo5bAJxboN5juPz4DBPr/ouuo66ThdF7pBqPA2ATQzDy1bTst+8EPKbtjIKSWurM0/WCSFzZvZ6l1CO/lLX9i2lcVgyFhiXV0ikg2ff8s/XOzfi6bnDhbfIlvghfUbzQMBrEAUkb8GJ77RtBA/DOJxR3l6mFLpGEet/JFSGuL3ulSUbdREfGF9xSo2GW3b1UmlHTspz5YAxDpOs+6vGrjf7tPZ4j38EJuSAH+e+bnzpFl9PAALCRsgDHzlC9R59BGJzcwl/r0UV66mnf/+X5R78eXE93tXRxZyOfgg6r3uaupl4e3GSmpoeWn0F42/H/gN5Be+Rdmnn5dlVdGXi7WwC6vWEMHKjYEWIPwmsAVh+4xpNlUZDdrH2wRyO3bQIFu0heFhfmg0T43mwR3/TLiQy1Fm7Vpae8PNtPTv/p5W/J//R1sfe4Kyq1abPuAKiz2MBqxu1Xfx+TTjL/+Ees88lTqw/2mFQS5xzKsw+GEQjzvK08OUSse0gvziJTR0wy1S0WAQXBKYY9r/qQ/LtJekftWxuH+xzmssaynNknBjCd4c69r3nC0jxbtOOt60uCRQ3LiZMg8/QbkXXq7a/76rgoc/zNPt/fD7qP/3f4+6Tj4+9e8yNVwPlYYzVGBrNvfqG7Tzv35O2//mGzT4bz+Q3bwSBxxa8CAkrRDy0DqWv9xdBxXeJoA+3cHFi6nIlXpYBxnRBcYP47CKN93/IL3z9b+kt7/yJ7Txtjspt2atzW0s7X391H3MUTTz//wd9V97FXXsuYeku3sB7s78tFpUKlvtHPWcv5HIE/87Syhz2z1UWLbSpkaRRTUO3J96r7iEOg89yKZGafX9y+IYtQbZwHqHa8EI2JqweKA/Gn27bZMqNFGiC2bJMtr5vR+bObu7IRg8NfCHn6OBr36JOvbi32MTmpYxWhljFnZ8419py8e+QEM/u0n2rnYtXtUQwV6+SqblYcCbMnpUeJsABlYNvv0OFfIQ3qjgunjoSlS0/b+ZlStp25PP0Opv/Qet+J/foPU/u4GyK1dXfRqtm/Y2ae7rOvRgmvK5T4jrPu5oqajdfQJ319G0ED/sSEoD0fRqsZBK6Q2hyK+OKxFMk8gvWCgVSxlc+eF96r32PWKBVBqJi/ts6r36sCWLubC1kMFh42DpSzQtd19wtgzMqbTwB1of0MyJps9SZtim7gbg+8WfZy92Ffvip6jnyndT+4zptR+s6oGt0+KWrZR58DHa/vf/TDu++S0a5odNjPEobtkiAwhTASsXA7DQQsR1mzJ6tI+3CQy+/Tatufse2slWL54Q8fxq+k3dX4BwGBKfv99FtsayK1dRdtkKyq1aTfmNm6TpuZ0rLgzAShoMVDf40WMxgz33lEETGDyBUaTFbdulv83cTXhfIAxVDoN43CeaVy0WUu18o4Kf9NHE2bHfPtS5/z7UvkfCMnz8PqFPC82f8sSPla+q0LR7tWAuZ9epJ5oBSlXAVoiy6AF/lmMFWgx6r7pMhEVaDBKsONny75EnaPjm20R4d5tmzK4u6th7T+q5/GLq+9gHqefCc/h7WP0zrZfi2vXyPcjc/7CIbeaeh0yTMtcnI3mfUe90n306dR58QMUuAyU9KrxNYMeiRbTq9tsps3qNNKWBBJmt6AMIYWbpctrOFnAezc78Y8Gm9+38A8BIx4ZMQ+JzoKm5+6jDZfCVDLhCc1KWK2z+bbo7cvgxF47fQbU7Ks+LplQ6tto5RwU+m3ye2mfOpE62+sVSjIEHlLbuHlnnOffSK8HnWYmm3SvTdc7p1H3yCTKtoxr5V18XK7LS2tRNh79XWNC/7xPXUw+WLU14X0FxxSoZ2DN82938tLB7NGFKfy4/OGFbv4E/+yPqPu1kY+k2AmybyJ95kS1TLLk5/Kvf0tBPbpS50SW2fGt9d6vC9Q6m4GFEfUfSQ6pSF9rU3AQKQ8M0vG69NCEXWcHCf6Jn4vDXPXfG40DKsdhi0vq2x5+klX/3j7T0D/6YNt5wM+XWrm3o4KuOmTNo0ic+TNP/x9ep7z2XitCA6B2lQ+7bBMsoT4+mpD+ucWRfeJkyst/rKrGCk+g69kixSrBkX8VVoSzNvNd2zKHsrrWABoOHM5n7aeMtBg8rGCgE61z6pSswfM+Dsl+ybPm3m4B5uRi0N+Uf/oq6MKoeU9caRHHrVunH3fr1v6Ft7Hbe+FuZG92IlgTURcUN/GCO+dXKqFHhbQL5YRbeDRu4HucnUI47BxFGyE9DrHLchll80W+88/U3aN33fkjL/tuf0vp//z4NvfwqZ6LEKJH+pi7q4SfaqV/+LE3949+njr33EpExd2Dwr+TCla6ePr1SySjpSo0AvLfz5tPwb26TOdWJoFn+6COpD4OEUsxjxL0611BS9vHifo3gtV55sTRp53FHydQTDE5LAmMWCstWUPbBxyn/xiJOaNqnO27AGIHud19EA1//b9T7setkhyYZuTzaVisI4roNMl5h21/9A237i/8texgX1q4zfbiNEF35w9fZvGW3ekhqJtrU3GBgiW6ZN4+W//rXYkGhuRY/rbDZNoy7tLhvMLEgjb/4ssLMps2UW7GScqvXUG7VGirwUygq4/a+vqrWRRow5xIVAvqf0LdZ4geI4o5BGQXs31v0LqN+nPTpYUqlY0C1vJGC14nBI7DQ2icPJFq1aCJsnzyZ8vzwU9rEFRCOqYNG3HfPpRdS5wnHmEq7CoU33qTsU8+bhRBaLGoQ275PXk89l2DOZ3ITamnjZmliztx1PxUrbFqxy8C/TVi5PVdeJrtf9bzrfOrEFLU0D1DVYFEtrFknG38M33o3Dd9xL+U4LPPOsSELlvxsAMG3p72NOtFEfvrJFUf5K+lR4W0wWDxj87yXaMVtt3FlG4qn891fYHwXD33/r5/qwhiwBdHNsLWQ4Uq2iIUwuIKVRfRhFUE4TNG6geXbOXs29Zx0vPQjy+IG2wepODgog78c/uldOOmS1W4jmhfGqh0DauXXDRYN4NeJh43Ogw+k9qlT+CKxu+P3FP3geD8K7ywdkaiN9r57Ln8XdR3PwlujTxBzLnPPzKEixhi0UHjbpkyRda4HvvZlmb+bZJ3jgQUPBoP/8h+UX/zOmA4Aayr8Ybdh0ZojDpEVu/p/72PUc9G55rMbjZWLQYEYOIWHq8eekn5cPMTkX+MHwm2NHXEc+ea0tVPHPnvJ+tGdhx9qE5WRok3NDaaIZjSuyPG8CYcvb9BkHIRNPMwHJs3h0l2qC7sY/AJbozvnv0pr/+H/0sqv/xVt/K+fUvatt83gqBTz8yrS0S4rO03+4mdo2p9/jQauvZLa+/slPQlzT6Gflkrla52n3uukAf1XO3/wc8qzqFbqP0czat9HrqPO446pOL2oGqO9bzwUpbGU2jq77P01/BGlKp1HH07dsMoPPVhaCJIorlorKyZhWctGC8W4AcLKn0EHW4b9f/A5mvQXfywPJJXek1SgxYut3OL2HTR870O0/W+/Sdv+5H+YdZU3bR7d7z2B8u8qXx8LaOg83oagwttgZEAVO3xxIY++uIayaUDc/OPjYnHgwqEfhsPSJpRlwdj0kxtoxe//Ma39u2/S0IsvSzPxaMGWglO48pjxT/+Tuo45KhgMYu6hnHh6pXKOMN+8Ekc0Vk61vJEgzfjYDu3Bxyi/YJFNjdHODyRTJ1Pvey6l7nPPtIn1Uet1VQWDq2oM7hKwxN9oKvkRgAUy8J70XvVum5IAi0Pu5fk0xFbarrzTTdses2St5Sn8m+l931XUPn2Uo5ZZdGXXoBtuoS2f+LIsgoFBVInzzxtA4vcTiXggbbDA766o8DYaPJnCyT/zfa3t4mWNYAM/LRqPuuLQsPT77nzpZdpyy2207v98izZ+/8e085nnpXl0pE2OspPP4YdQ/5Xvpml/9kfUjw25DzpA8vwzVgqDWleO5leLRal13rrAZ8bv0/D9j1BuDltjSX24MCDZ4uzGtJ4Lzpbm1JE2G+LenUsLxLTWqGoBXQ7o72+hwdt9/lmy5Z/bTjGJPJpHn5krvmzltwshr4YfjLrOOo0GvvgZGvjyZ6gLy7Kiyb3C4iE14YcTCO7QTb+jHf/yHzT4g59RBv24b70j0/6aIYLVPhVUIbvWpzZ2qPA2BV9IndXr0sxXN/SdMymmLHDlXTzqx9OD4/kpOLPoLdr6uzto849+QZt/9ivadts9NPzq61TAXL4RCDAqfAysGPjgtTTp0x+l/vddSd1YzQkWGOYTp6DWVeu/K8NIj6sENsrHvMf8m2/blHKwfjMWExCrFyNTW4Rs3pBiOpFU9PhsWqG8/CCCwV4977lU5nkmPhjgoSaXo+yTz1HuaX4QRBPzCB8ExyX8mjv22pN6Lj5f5i73feJD/CDCD2YJYwXSIOMIlq+kzGNPSesAukCwtjjm5orgVugKGS270Ccy7lHhbTT8Qyuxg4A6EYUkhmETj4eB8f08E3d/w+P8Mkn57Phpeei1BbTphz+jVV/9cxbhX9LQi/Mojw2tR2IB82tCxd9/+cU09Wu/L83PXUcdTm2oXGy/o3/GpLOnv2K0ZK3j0p+3Nmi+g8Uru/tgelHS+8TvRdfxx8oo1fZp/PpHKb64gnPVQL+t9PPWgoWgDX3yLdBdDCDCHsGwdjF6NxG2zLAOc/axJ80iJLsI+J0T/yba99mLei69gCb95X+XQVRYIrNu8D0rFGWrvsLipTR89wOyEf32v/0/lHn4cSpixakmUuu7V8J3Ca9XaQgqvA0GI4Hdtn6QQV+AMY83jDuZNHnGmRTnTEo83eT4seR8AwS4sH49bf7xL2jNH/8lrf9f36QhDGxJ2P4rLVg5aeADV9PsH/27WMEd++0dXNW/evRODElpjtidW2eIxsqpllcvmFua5cqusBq7FyX3RWIENCy83quvkGU3G0W114mlPWVhjBrA6jR98U2uKLkixtQzWdy/kugy2N0mc+td0ne+K8wDdZ8RWha6Tj+ZJv1/X6PJ3/gb6jqFLf4RDLoTMDZk82ba+fObaOuf/BXt+JtvUu75F81DcpOp9tsJv4/8XUL3RYrBfUptdDpRo+En160LFtDy22+XqJsQZJwLhz7w0/zUMDcsY8LGN4RppoyJub9w0ueMkdZbt1F+5SrKvL6QsovfoTY7ehlzgOtBHi56+Ekf4nPg/rLYBirhwvIVYt04zF2Evk9SmqM8L5pS37EjAE15/HogdF2HH0ptkwZshgfeA7Y+seQm1sQtYsGCJjQByuvBvXCl1/fJD1dc99gH1mWBRS77/AtiRTWLjoMOkKkygeWf0O0gg9aWr6TBf/2emQM9QYU3Ik4sPlj2se8jH6B+LIt5wdnyMGqm8dX5DeTvDKZ/Dd95Pw1+78eUue8RmRokFm4LRhDXEt0A/mxhyfecd6as4KaMDhXeBgNR2vrGG7T8ttugeCZN/rkQ/ro0P9UPGd//a4iGzV/nh39D3xDE8vxUzeKbW7qc8stWsCW8QeJI75g6xcy7TKg8E4EYoAJi0e1kq6dj1kwRKjyhS+Way0XuInpHhqQ0R4VXEJD+2JEBS7e0eQt1nXEytc+cYfpNYyCtfc9ZsgoTpsk0qzlQ5mdPmkT9H/2A7Ntai9KmzbLpQO6p55vyMADQ7dB9zpnyMIAlNStZQthYAq0HGCAk70+1mn4cEhcfbKaBqUHYtQqb1iMsG2zUKbjSj7tspVkA464HWHjvkxH1BexGhmk7LSC16AJ+SMcuZj3nnCFz3ZXRocLbYCC82xYtohV33UVFTJlg8TU/yVBGfd+l+/lhGkLmbxgPS/hpIS7mp5lYkI4+NxaV4fmvi/WL1bBg+YoVx2JS75M7divByOeeU08iGobwcsWxc8g0k9mHD5B0xmpXieZVi5VTK78maCFYt17W04U1k7gjCx4+0Kzb20vFNWspv2gxP8Q03koRgZ8xnfrQrH/gfja1MtgKrvDW27LAQrOEF5Vvz7VXUt/176vc78zvRf7FV2jnD35GhYX83mAJwwmELz5oQkaXSs95Z1Hfpz4ili7eg3qnbaHlCQ9GBf6uZB54hAb/6+eyghfi8t3xfi/NpO6rQHj5940HDVl5SxkV2sfbBNr5x9gzky1Aaz3iS+76YV1/r4sD45t4mBePu3CSKy9rYkmEZfEjh/W79YabaeXHP08bv/mvNISdTEaw/6+MfOYf5NS//BOa/rd/Tn1XX276hDwBT7qjSncJonnlsfTHjgxYvUM330q5VxfYlGSwXV/3BWYThabQDot3gNUu3SCusI+3efRcdZmspCUjrSuAbRdzr7xGmUeerHuJzbHAfafKvlv8O8ZqTZMwqPAf/4b62NqVz6NOKxcUVq6Skcpb/+j/R9v/6u8ph9/b9h02tzVU+22UvXYBKdgic7q0aimjRy3eJrBz+XLa8NxzlFm3LrYKUtQaRSwMhX5yaugjFPWBO9aEQ/ywwZSzZ2PxxT3iSRwbXWdenk+ZV9+Qh4ZONB/jiT5tBQMLsNNYZ12HH0bdxx9NxW07ZPqIX/Emna3aFcrzoin1HVsfaIrHAwXmLlfchxQtBRA6PMg89Zz4jQQDqmB197738ppbAgIMZsL8z8zdDzbc4sX3oeu0k6jv4x+SdXurDfbKPPioLGeIJSJbZcnVS9W76ugwuwl9/IM08Pufpe4Lz6H2vfYwFn4doouR8sVlK2jo5zeL9Z+56wHKv73ErKnc4gUpqr3e8rwwBb/r3isuoa6Tj5NuJWV0qPA2gaE1a2jzyy/TjiVLqOg1r5mfqvsLP0xxcZMSjZs0hF0uCFONH/41RPMdiPllXW4bBHjHDsqvXU/5Fasojw0Y1pgHB6xRDJcWNMthbmfn/vvJAgLSjM3WI5q3nRBE78qQlOaI5pWXrHasI02ZMjIZqWjxerBOciVk+g5bpIUly2X5SRpBq0ElYFVC+FHxYb3cmnBFjwFNw7ffI/33DQOD8fh9GPj8J826w3vuYTNi8HcJ6wkP//p2yt73cMstumqklX+ZInT+WdR33TVs4V4pDxvts/lBNGWrg8DfeWxaIH3cv7ldtkHMzZ1nNoZo4PejFmlec80yLLx9H7qWuo89yvyelVGhwtsEMps20bY336Qtr74qmyb4hPJp/DCOsPlr0g1haYMfD8MuF5SnRvMNfhpCQYyFsbhtG+UWcoWxYKEZfAVrpYMtWTudwDWhVwMDgtonT5Ifase++8gm/njyl2lMXOlA0ON3VX6XUaL51WKVSVvOB8LRPtBH3WecappWE16/NO+yNYiHjvz8Bfy+bW2YNYNzdqIP/dILqYMtrlrImr4r14i1ielkI3nNSbRPnyYCNPBHX5S+ZnzGiRSKsvjD8O/uovwrr9nEsaemuKDlYtIAdR52sOwihHW5e99/ldmHOcU0LgfGNuDBI//K6yy2D9DQTbdS5rZ7zJ7P/BtoJWkfNMoJj0QIr3/AzlGu1r2gpEP7eJtA16RJNOnAA6k9NtITX2BUxaaf183pdX2y7qse9sEalxx35ygvY8Iu5NJ8/DQTNg44n0pFyq1cTdt+9ita/+d/S5v+4Z9p+BV+kICg1NN82dZG3ScdR5O/8gWa/i9/T31XvlvEQ0ZQx5rrgmtXIJpfHnOuGrXykyiu30C5ea/KCNRq6+PidWGN3s4Tj6X2qRWapUcApn1Jn2LKhTrkIQAtFPbt9d8b5+qGP6sOrnT7Pv0RM3WmkhCh5SSboWG28DAtZqyo+zU70T3mKJr8/32Npvz9X1Lv+66UbpPUYBnMLB56VstWfVu/9v/Rjm98i7JPPisPQ61ubk97tfJyYYqE8Dvt6pTVufAwrYwetXibAKyMLAvUyvvuo/xgdKMCUxeGgmMszzDVxf1UZ536cRMGLhSm+blhPjBh/HUumh+NmTJtIjZofh5iKya/dDkLQSd1ykb55eJZCbGAp02l7lNPpK6jj5CTY6pJpXmd1c6anBdNrXVXtfLjiBWzbTtbQufJ+tWJrxtpLJKYmoU+1sLbS2zG6MCuSF0s5j3nnCnNnTXh2yiu2yh9ivWOsq70vnTsty/1XI7t7T5qKt8KnztGVOeemSvXxjSrZvdhNkrKsPhFPz9UTPrql2QlrvZp0+SzrAf02w79+lba8a3vi7WP5n55UGux4IJaV0zOj6a6GLpRsOOUTGfbY7ZNVUaDCm8TQFMsxHfZ735H2W22qTZGKJ7Gd3FXnYW5hkpxQ5gbpoYlHcj1jwLlx/lHWLjyxBQhzMMsoAltyVJ2yyQL69G2Y13gWgLM+bDEIL4de8ySAUsyUIjfGtnWDHsKx6hxxoT8aEqt40GaMkDm9XIliqY2rFQlFmgCbfw68RqxiAX68oobRj+3tw1N9mecagQhhQXW1tZutjn85a8b0peIh6aeKy6WqUNdxx2NC9icGPw9LyxeQjv/88eUf2EelXbstBmjI1kkRg+mgXUcsC/1feBq6vvQ+6j3sndRJz8UyoNFStHFoEEMnMrcfi8N33SrLPWYe/k1aWqWBTAmhOhGU+L5+D73nHaSjDFAd4MyelR4mwCamNGHueLuuym7aVNkgBVw1ZYRwrASc+EwtV4fhCEXDkuZv34JgHg8tbwM/+NKRCwaFt3corek/7c0PCSVC/p90q6A1c4WHAZedR16ELVNmyKCLOvUwjqICUX8PuKU51d/HUmkKSOWGz5HFh0RXwxyShIgPGCwhSAPX/z+SHPrKFePwsMN1kLuPul4qQRrwvcA4R2+6XemRWE0Vie/DvQv93/0Ouq59CLpb64EBs9hu7qd3/0RhxvTx90U2UKrBD/0dZ16omzu0PexD/L7e6asRpVq8BRuqpAXix6DpTL3PizTzjIPP0GFd5a2vB/Xp9b7VZ4fTUk6HgMk8VAii4VoU3NDUOFtBqj4WEA2v/QS7Vy1inLbkzf8FjHzfGDC0bj7C/y4SXN5roRJicbCUoZozBCmxf0QWwYW8LbtlHn5VcrOfUkq2Q4sPclPw22Yc8qVdaIo+XAZEZQTjpPmZ4hvaetWM/UotjlBjTMl3qdPreNBmjIYIYzKtvuUE8yAG0y1qoBsGVgsyYbvaKIejQiJxfGu86mzjhGlJba0Maq5tG1H3c3NAXiIYKHt//iHqOfKS2uuWIR+cFh+mUefbIjoNhz+zuH1YJlPLHWJ0dmyqcF++4j1mwp+L0uDg7JSGVabGvyvX9DQL35NBbQAxQZStpJaggtGIroAu3H1f+QDMpc59fukVEWFt0lg1SpMK9r2xhs0vG6dTS0HUoZK3zj3zwlBGDfhqO8wKfG4SQlDvg9cKZ8wDX55PoiWwVzE7JuLKfPsHMq98SZ1zJ5JHSwUqX+gXLnLnr/HHyMrX7XPmkH5d5bJXFR/EFfyvYSU50dTah0PapbBw0A2R1ijGgOpOg6svDGALPPY3c0VfZ/Z33cUaxTjej2XX0xdRxxWsYk7DprvM/c9bJZpHGFzM+YmY4nKSV//inw+SctmOtC1krnjXtr585uphO0nxyFopu+54Bya/Bd/LM3mncceaQaJ1XpIdPDnj5HJeKDZ/r//L/v3UuHNt83AqTGkmaILsF75pD/8gnwPK45kV+pChbeZ8A8VC2lgPm913A/f+KFw+qHafhgL/xoqhxHzU1yaw4XDNBMK4vwasdJVka167OaTfXVBsFkCLItUA7BgibBQS/8vP113cyXfPnUyFQdNv7KjxlkS8tOklFO1DF4vWzzts2fJ1BoZnZ0ErEW8Jn4d2Pi9tGnLiMUXa0X3YRekgw8w84VTgFYINH3KALYRrhoFC1cWjsDestgEocrniO3+ILy5p+fUN+q9BbShxYAFt/9TH6a+j14nA6k6Zs9OvzhMkQWXLVoI7dBPbxJLF10I8oAxhqI7MsEF6UUXDytYmW2A37e2rjoeUpSqqPA2CQyy6eRKcv2zz9L2xYvL+nl9IHX4OjsfhOEwL4zFfRc2cfyQwhST5hMea8IuNywVPcKUMxjf/2t9rmwx3xWDrmTxDWzAgH6+QlEspzQDsGB9dLDIYAQlBjB14AmbjxPrl8U9ae5vnPL8NCnlVCuDhUYwXUj6ejGvtsLrksFksFCLBbbil5oBN7Ca6wStCL0fvEbmQ6edQ4lm+8wTz8pC/KWd9Q9yks0AWHAHvvx7HGaRqvSAgdfDD1nYBCHzwKNmrup4AA9zGJR24nHUe/nF1Pu+q6SfsuuEY83DS4rBUzKSnb/LmA6E9ZSHb7uHso8/bfpx0Yowgs+yUaS5cnKZaGqt83TwbxHdHL3sVHQbhwpvk5AlFwcGZBENCG9282abUwlfDs1fI4rR1EpxE46HgIn5aQgjhh+dSQ1zo6WiRMv4f6M+mjlzCxZRZs6LYuW19djFJTC/FAOpqv2AOQ9WMkY9dx17lIgwwWLDqGJUdniAwXzJKiSfPZpa5Q4CKpbBw0Q73ye2DTz9FDMgp5L4smBh2cHCorfFapKHiDqB8PV/7IMyGjzVRvgM+sqxDnB+8Tv8oBCd0lYTvmdYORD7ngvPrTrgCE3M2Exi53/8SAYaJY1ObzWYw9yxz56yX3L/Rz8o04S6zzpNrLdU8IME1plGM3LmkSdkmUeZHrRo8ai6DBpFLbEE5WXSpERBfg9/D/quuky6OZTGocLbZDCqeXDFCtmxqBKuysY+Rgg7yYMfhkLCVEM0HqY6/LOUpwKXb4DvUsIyBr9M9G/MR+XFIoNF8oefep4Ka9dR5557UCemEPFDSRpkqcT99xWLBc2eaDKVuZEQc1umGuVloilpzuGIl8WgJYzoxkb4GLBTcTUvK9BcQJrNsRl8vWB9YIhH+/SplS3PGBDb3EvzZZ1kiHA9oC8Pg2n6P/WRqgPIAJrQM7feLVvboVl7PIDBb/2f/QRN/vM/Yqv9LCO4Kb9z+N7i+zX82zto8Nv/STt/dAMV3mYLFyuujSFpxNZRS2LTnMuV6bvsXdR/3TUyEFJpHCq8Taa9u5t2LF0qTc7pmqZQxScJZHXfxQyIuXSHC0XLhZhwUoqfBlzcPyKaFvolrsiIBSq/fBVlX3qFsovekubX9ilTalbqYkWiyRBW48wZYgF3nYBBPl1sZW0w049qvKfuPkLKU0ByapRIGbwuvj/pl95/n+qjjVGOxQxzoWFFSRN8Hc2UWDGo/wufMs3WKQUElnX+9YWUm/8alXC9Ouj7xIdkv9nOQw6qfj22/LGgyo5/+jbl+XWN5TQaDDrrOvpIGvj935OHlB7Z0GDPugZPoZkcA9LwejJ33CcPSbLOND7rMaQeoSwnmlPPubA+OKxdvJdpH/iUdKjwNpkOtnYwunnL/PmUw3KLKYTCVBPhXyd9oZwaTDhMKQ+Zv7iif5xLN5SHoynlacDF/dxoWujL7kdcgWHTBVRu2AWpyJYSrMEObJ+I/rYalSOsRgxogsXcuc/e1LE3V6o93WKdFPnc1Y5OzitPrX4HIVIOnyO/Lsxrxj6lsmtNlRGf6OeWZvZcVgYipd68AHNO2eof+NwnzINKShEhfl/yb70tC1mg2TQNsNy7jjmCrcWPm52HBqqPoC6sWSvLaGI6jVjVdTxMNAq5Z34Yw+IOaBqXHXSOO1o2c0g1Ahef4YZN0nc7fBtb7rffK/sYy4b02D1oDEn7biaXK09Ncz6/jPTtXnYxdR11uE1RGoUKb5Np58q2MDhIQ+vW0dbX2PpI9fRs5C4upPG4CZm/lUqG4TDF4MfLy8Rz40cDl+YfG00LfQGV3OYtlIMltmy56XvEkzQsQvQB1+i/RHMurL7OQw+iblSuaEJE5VpkEcvmpL+xknUSuY+AaGpymWSkbD4nzatdJx8v4lhrcYH2KZPE0ofwYnGNNP2heLjoOORA6v/k9Ua4UyLN8kuXUfbZubKKVk34fezYey/q+/gH7S5INbYf5Pc5z69j6ObfUe5FfpDgz7Zl8PcF/bidB+wri2D02g35ey+/xOwglKYf3D405RctNg8PN9xCw3fcS/mX+TcKy73GOIJmM7qrj1J08f52d9PApz5MvefZpnqloajwtgARFf4yr7z3XpnfWwtf5uKSh7hJKfcd0XTgQn6Knx+Pm5Cfb0qU49LguxJ+mu8DCbNlVFi3njJcYQ89+JgMpsIo5vbp02XQUk2rzla8aHruOet06jziMOlDNitp1dv8nHytGndgwGXYcoXV1bnfvvJAUO3eZXAZLPfeXsq/sSgyVaoSssrXkYdT3wevlfcpLRiIVli1lnIsKjKaugbSVHvyCTT5f/0ltaM1oUaTNqxBrNg0+P2fmsFvraLDTD2T1bQ+cT1N/rOvymhlWX601vfGAdHl70r2uRdo8Ds/pMFvf192Uap7EFoTSCOQoHK5MGek58L3tH3PWTT5Dz5P3Scez1/ClP3jSmpUeFtAB4SXLQo0N2N0cyFFReULoQv7vsGFKvshSeHwTACxMG5Cfr5fPnpcSPzKVcuz1YSmYoyAzr74MqEpGnN/Mfc17UR9sQjZUus9/ywz8pKPK65ZYwS4Cv79hJSnJpeLAgHFYhpY0hH3Uw2534P2p/zCt6iAObY1Kvu2qVNk/WD0udbVz8YPeKUt22Qz+jSDnrrPOpUGPv8p6jqFXwMs6xoilnvqWZnPKtZuC/tAu04/mfp/7+M08N++QD2XXGCmOqWZKw7wQJbNUeahx2UU9tCPfsFW+3z+DHaYvDGi3iuXl0+TUk6lMmg1GPjYB6mX39+OWTPSvbdKXajwtgCIiDiuOCG+mQ0bbE4tojLmC2OYE/WTckLCUuXlko6Ix4FfPiQajh5XtTxX2kWu+AobNlJh+Srpl8R0pPb+fmm6rSk2/DQu60TPmM6iPYs6Dz6Aug49mC3LHul3lOkfVSpV/54MaVKiQOSxwAQGQcmApGrgfmUeaSdbomv59b5T9f6weIbsTHT5xfUJL9a+HmKr9O4Has6t7eB77rvqcur94NUyWKxqRcv3ipWahm78LVu8D6Vrxh4lbVMmS+tG30c+wJb/NdRz8QX8MHKkWaK0ylQuH/Rz516YJytrYcu+7FPPkayQhjnOE0R0k8uWp6Y5Z8Uy3V2yH/GUP/4Dmcqne+82BxXeFoGNE/r23JM2vvCCrN8c3yA/CVOdGBkrl8dojklzf6MlXDpASrxUPOz/he/y/DJ+usOPh1cxxH3gh2X1q3XrZdnJPCzBwZ3SZwuxaZvMFjAq12oVLOe1c7nOA/anriMPM4NrMKAJYoX+3yqWZflZ06R4oOLGvfb1Uve5Z5pm2lr3yveH5k5MVanW5IwF6tEEjO0I07YCCLgnfqiByMj2fEnwfcAC77nq3bLABAS+6n0zEF2sxDV0w28oN/fl5vXt4t74AQWLlPScdyb1vvdy6vvwB2R+MTaoSNXsLi0qQzI6Ofv4U7IABjYzyL3yOpU2b2mppT5akoWyPLWioKYAx0rr0YXn0sCnPkLtkypv/6iMDhXeFoFKs3vaNBpauZJ2ssNI51qYH5H/xQ/lDL7LiYocYi4HRHOBK+HmDRuixyT/9UtF0x3ReLRM3HdE4lyRF1auoszzLxhrsL2DLcnZRnTYuqnV9yjzZtH/e9Th1HPWaWKFwiIVy8yKUZKFE78nQ3lqcjk+LYsotuOTqRcpLHWZ+9vVxfc2TPkqzbUY5NR92snUffYZdQkvHlRwD8MsNIUlS21qDPSt77+frE4FK7Lm4C1+39CKgL12s48+yRZ75TXIR4x9GEB/P0S3/2PXyZxcCK88TNW6R4D7xMPWps2y6MXOn9xAQz++QZqYJ8r0IEdy2fLUNOesVkby+PvSe+ZpNOmT11P30Ufyl0/7dpuFCm+L6d1jDxHeTfPmyTSbWpgfixFIU+m7sPFdPPQNYar5a/6F8fAvcKEwJRoG0fMbTEp5Sd+Plon7Dj8uYa4cZQDWSy9T5vFnZKRqB1e8qbbFs6AC70Tf65mnikOli8q4PusXpEgt8mMMuhPYdR5zZKrt02TReRbg3IsvU2nrdrGa46A/uPuc02V94XqEVwSMhRXCiybVJLHBeznwlS+I6MKyrmXdyCpV/FA0+I1vSZeA7DfbYGTRlOOOoYHPfowm/flXZOUsWGGptuuz4D4xOhmCu+Pv/5lyz86RJUwnkuCC5PLlqWnOW62My8OSpH3XXEGTPv5BM1ZBrd2mocLbYrB+cx59bxs20I532KJLjf8jQNjE3d9Kfvg3TDX4YRCWCikvE0/xyyQdaXz/b7nv8OMS5gcTjJ5Fn29+8RLT/8uWJdZHliUoaz2RQ3xYsNsmTTKb7x99uOy0AlHEPGI0Q47G+gV+Kpph0Wzcg00FYJ3VEAsRavRPT5vGQvGqvLb4/aDPGE2t6OOse3Qpv35MkZEt67Dcpgd2geo+5wzZGg+rgqWZgoN1izP3PyKLSyTd64jB58SfJ+4HFi4W8OhmwUV/PUZ1pxVddFfkX3ldmsGHfvkbscrzS5abfv5R7ok8Ekby7lQ+pjwnzfkrlYmnl/gz6P/A1dT//vdS12EHy2eiNA8V3haDvt5OLPzPT+UbXnjBbJ6Q4knc/AzCHwNCobz6gmhi0XhIGPNTQbRUSHk4fiRSkBZPd3H/qGha6Dv8uISl2TBLWKwhWHwDC0JwGjbebx/orylIEGj092LKD1aZQvOtzPecNCBNklhsolJfZfT+4ncbIjlYT3rbNrZ4j5JFPmRHn2pYwUFzeOGdJWY1LjSFenQeeZgRocMOqV94GazEVHh7SXSNaBbZrhOOM2sYo08a72Et+P3BlJuhn9wofbyNWpMZnwM2LpCNDK55D/W+5xLqOvUksy41mutTCAAGSBX4wSz70OOyAIaMtp47z0yjGgMrN40gxql+TJhbz7krlS1L7+LvwxGH0qRPYt4ufx/4t6I0FxXeMQB9vR0svtvefJOG17KgpBho5X4skDhTFbm/TvTCCirMMfgh8zcaN/hhUCnPhF1KmBNNd0TLRcvEfUelONZ+hgWTeeZ5s/IVV8ztGEAFqxYWW4pKGtYu5tv2nHWqmfsJ+CEIm++XsuVzgJPPWCVVmpzb5RpYcg99ztWA1QurDmJYxIPF8pUyN9jRdeyR1HPJhfLAMBLhFavvrbfNgh2WDn4A6b3yUpk+JKKb4n2TbQYfe4p2/tcvKrYUpAaWPn8OHfvtI/Ow+z50LQ186dPUfcap1L5nlZ2QfHB9tmLRd4+lMYfvul82M4BFDst8rLbrG8m7UvmYkb/HlY4sS8f3b+YMGsDa3FdcKpuTKM1HhXcMwMCXrkmTaNpRR9HaJ54w04vqqshQUYaVpRNS9zdZchFyMT8HhKWiVC8TL52UAqJH+n/LiZYNCeNsAaMP7613KPP089IELc3I2DIvzcAbAEuTy6L/t/ei86jrxOOkssc5S1gMv4KVlHzPsVT+HCGgsq40No9HX1ktWFDR3FtYs54tt3eMRW/pZGuw5/J38Wus3QebBFauwupMxQ3htB+s8tT3ieulKTetmGeff9FYknNeqvO7Wo5s18eCO/lP/xv1f/6T1HP+WZImq5ClhT+j0vbt0qQ8+K/fo6GbbzPzlfm7MRaM5B1JPqae1HKqlYvnIY4HUWydOO1v/sxMHxrBw51SPyq8YwSanLumTJGVrGD1DrFLj6uAjXziB+SENJrj4tX/GlzYTwPVy8RLI6U8Lblc+Dean5QGIvESV7wsksV16yg7b75MQ5IBWJjb2ddrC9WAKxkMQMIgo64jD6feC8+RFbRk/WeIX4IAx+8pJMyB9YyBUxiwBEFNBazAKSw+bKnl5rK42WtjUFXvle82u8OMQHhzL7ws02mKa/j7xdfoPpstzA+/j3rOOUOaudOAvuvhW26XqUkYnDZS0MKAJuWBP/gc9X/yQ9R10nFsbdmRynW8NvRZY3/cHd/8Ng3f97BsfUhYV3mUDwT1MNIrVT4uOSftdaqVi+cFcXwfTj+Zpn7ty9TND3hYYW8k3zGlflR4xwhZd5i/6D3Tp8tqVpjbK5sopATyZn4iodCFaYbyEgibv/EUgwv7aaBSeRC9piEprfKRLt3PLy8b9QVYPRh8tZYtxVWrZYnE4iYzJxYCKqOAa1UknA8BkgU4DtiPOvbeQ7YixEbwbVxDFbH4f4IVVfmsnAMByOVlgQeMpk51H4yMhOZymKZTWLlGLHvZF/eaK4xIjqBSzL+2gN0bskoWXmP/F9jCxCjmvfe0JWrA73H+1Tdkmzzs75t6cweL9GHvs5esMtV37ZXUe/Xl1HPeWbLkIzZhSD1Sm98LrPOdefRJeQAYvv0+wgb1xTXrWrIrUjVhq0X1Y5Nz016vVrl4vh/HSmsD738v9b/vSuqYPDl164cyelR4xxA0OWN6Efwsiy5GOaOyTf/k7ipi47u/cd/8NT5ISvHLGvwwqJQXPTLM8c8fEk9DKT+t3rBQLMko29zCNyn/zlIZoCRWFCza7m5xNeHPAM3NmLqC7eWw/CQWcAjWjkYfcKyCL7uPgDbCfr1tk/pl56K2aVNSCQzuGWs547r5BQvlurBQe6+4NL1AxUCfcZ7fF0xXwrSkgS9+WlYmSlvJYvAZFp3AwKVaK2D5OMHtPP5o6rnoPOr/+Ieo972XmeZ3+4CRChb+cDODZ2nol7+W/tz8qwvMAK8WWrkjofrdJeemfUW1ysXzgzi/9/hsBj50jYxk7pKxCCq6rUSFdxwwcNBB0ue75bXXKLNxY6r5vcBUXe5vWJGZcDTF/HVpLicsE+aBMDWKHy/Pi6ckpyURLVX9KiFleVyzYDpP9uVXafihx2TwVefsmTJ4pOZqUh5ofka/MRbg6DnvbNlrt7hlixklC2KVfeJZ+TOEkGI1LWxTl3bpPVwLA6mKa9az1T2Tuk8/RcR7xPCDHAQTgj7p61+RUdLYZCAVaO4e3EE7vvEtyvF7WnMkM94IjCDHAhj77UO9bElN+sPPmSlLh7GFi6Uy6wHTyQZ3iqU9+P2f0eA//ZtY7/GR382glqjVovLxI8kpp1rZeF4kjt8APxQNfOC9NOmj11HPKSfaDKWVtJUYG1bGCv4IhjdskM3y5/31X9O2RYsojzVkU4DnVK7qIr7Uf/wX/1zcxPwyJu6XQR584Ocb3zk/Xp4HzN8wPczx0wxpy/hUi8tZuHKB9SpzVY89mvrefZEsCmAW1E85AMsiKyBtZYuLLcfcy6/R0O/upAwLAZa3TCJyL1OnyKpTM374bRlJnHolIIglRD6XE+sQDw4jRfqr0fyeyZoRwyzAaa0bjBjGPrXb/vJ/m43ubb9zJWTKFpZ4vOY91HPx+dK/jebttCOnfdC6gO0Th25ia5vvobB0uVi+te5hpDSiEqx+juTceq9bqXza9Db+PHr5gXLaX/x3GVSFKXVK61GLdzyAph9+Cu2ZOVP6fIfXraPh9etNs3NqXMUWyl/UTwrFS5iwH4v6Dj+enFdewj9v5aOS0w3V8kAYL1GpyNbSjkGxgEU0Fy0mGh6S/XxhVaYVHzTxQjjaZ8ygjn33kmlC2IShfepUmVZT3IaFJGxhD7kXfH65vFnJii1oXDsVfG+4Rwz6Gu2cShk8hnNh0Bma3OsQwMI7S9nS/InZMq/SpvB8r7hHLH7Rx1aU7IvLootpUNLSUOcKSJiTC6t2+Ne30dCvfmc2pX97aUN3EGrMWQy1z5Vcot57qFY+nlcp3jF7puyvO+UPP0fdp54YjClQWo8K7zgBTaEdbI1MPvhgKmazMuAqrfiGPzT3Iwp9EwoFrTwU+g6kxNOiYVApLwyXp4ZXB34YxMvEfZB8TEg8DksPS0/mXn/DrlZltmSU+b9o/k0rwJ0dZg7wIQfJtAuM0MXG9m29LIwsCFjkIz53tA1CwRYarGyMmpYBTROkosOazJg6NPjdH8sc3jJLkx9I2mfPkmZ0rE+NZmUZOHXumWxZ72FaFuoR3EKBikuWUfaZObIy1tCvb6fcs8/Lg1OlxU3GmrjAlZNcovZxUeopX6ksWh6wOMbA9e+n/quvkMVnVHTHDhXecQQGWUF8pxx6qFRc2998UwZdlepqXouLZhiPp5TnuXSTEk+LhkF5XvyYpBJ+GojHQfzqfplaxyfG8wXKv72Esi/Np8LK1WwBsjU5dYq8z2lHHTtguUJ80QfcdcIxXNux8O4cNqKOpQm9z0sEZe06mbYhI3k7UywOMQ7AfsHY6B5b/wWvB+8RWgDwAMIPEd3nnkH9n/owTfrql6j7tJPEqk/7IBOAQWs7Bqmweg0N/+5O2vmfP6Wh2+4x059GscxjveKWhtrnrF6iEQLqiOdXKl9Ci0RfrzQvT/70R6Vvt96HIqXxqPCOQ7Cq1cCBB9JkFuBNL71E+cHB1M3O5udkZBPhMO77SaHQdyDFj0V9hx834fgx8SOQEk9zcT89fnSlYxy1421UymQov2w5DT/5rPQbdsycIZZbqpHPMUw/8kwzCOu0k2UN6QKWffQ3PBBRHpLFOjr320c2+p8IZB94lIZuuIWKLIgOGXTG71UvV94DX/uyiC62LJQ+3JGOul69ljL3P0zb/+YbNHzH/WYnpZSbL9QjZCOh9vmrlxjJ/dU6Jik/nubH0UqDVohpX/8K9V50rlq64wQV3nEImp2xnjP6fCG+mN+Lpue0A65CzA/M/YUflVIXdiG/pAFhPxb1HWEcP/qkY+JHJKWXl3FUOro8p2YcN8gVe5EfZgpr1lFuwZtibclORnvtWZ/FxhUYmqBhUaAPtRM7CZ16Elu2h8piHkW25GQnJBZf3AemcGDu5HgHy0sO3/2ATNvBIiV4LZ18333XXUP9n/8U9V5xMXUdd4z0GY5ofjFb0BitnLn7QdlicOg3t0u/LgZPlVKKbqNJErRkapdMf66QasdUyounx+N42Ou78t009Q8/Rz38gDTSRViUxqPCO04R8R0YoMkHHSQ+mptFgNmlw/3AjI+/oSCGP75QIsO8eJkwnJTmqBQP08tLhFd3JMeTz+HCyceElMc5pciW6PYdVFixkvIrV1Nx4xYRg3Z+4GnrN3vl1gMsZvSjoQ9YNmLYe0+xDjGdSPp+8wWZP4vFI8Y7GMiUxXKcCxZR11FHmMUv0H975aWyvCPWWJZBX/U2KzPoL85h8NSd90nTcuaRJ2TTBVmqE33iLaT+qyUfMdK7rnVcUn6lYyLp/Ll0HXcU9bPoDnzwGuo7/2wzellFd9ygwjuOQZ9vO1foU488UqxfDLrCgKtiJpNirq//I4uGTSxMC+UvzIuXCcN+GoiWieaWHxM/2pCc6kg6p0uL+z7xtPI4p2Ch/Q0b2fJdKIIgC2709VE7NqrHfNd6Kyt8Zmz9dh1zpFi3WA8Zn2Pb9KmyLN+EsHj5IUGmS7E1K5spfPbjZoek/fc1fdT1vidobkcrw9r1lHthHg3dcgcN/scPKffK61TCFKExIJ1Y1i6V7jz1U895g7IsuGj27+KHv4EPf4AmfeQ66j379BF3AyjNQ+fxThAgtIMrVtCKO++kBd/+Nu14+21Z57kaEBb85FBNuvm7xrm5u0YoXb4Jh3nxMvWEQbU8EKa7mB83JMdNSjzdUSkM4nGHnBMVV083Wwjn0MDHP8iV1/tFiOsWGgd+WmhWlUFCJbOIx0QYXIX75nvGlCy55zoHn5XB31Ns67jzh7+god/dxQ84C/n8/ODYgqqn/ivUPmI0d13r2KT8Ssf46fxoI4P+uo45iqb/9Z9RzxmnyPiFkbRKKM1HhXcCge0DM2zxbpg7l5becgutefhhWeO5GqguzWIaoeAal058o3E/LR4GLm7Kg3g54OImHE03vqG6Hz2H7wM/7Iinlcc5BRbrtKmypV8P1rL96HXUffIJ1DFr5ItY7LbwQ0dh2QrKPPwEDd16l2zfh371yN7Ao2R0lVe6o0dzjbTHJpVLn1ai7uOPob4rLqGBa66krqOPkP7ciTKCfndEhXeiwR8X+nk3vvgirX3sMdlWcOMLL1B+x46K044gKEZsmyu+JubSo3kuDJLizg9TXTwkOR6muFC8jE88DsrL8L+uLply1HPOmdR7/tnUe+4Z1H3i8XUvCLFbwt/R4oZNlJ07j7JPPE2ZJ5+l3EvzZXEM9K1XonkVUfozN+oe0pwnqUyl4xLTu/k7ivm555wh21v2nnumCPCIugOUlqLCO1Hhj21w+XJaw+K74o47aMuCBbRz5UrKbtkieXGcoPqC64dFbMQPy+JvNM/50TIuDc6khPFoPv6W5wHfD1NdPCQ5Hqa4ULyMTzwOysuEKbAg+i65kPqvvlw2UJCdj1Kuvbxbwd87WLPYmCE75yUauv0eyj75nMxjTkNzKqL0Z23U9dOcp1KZpPSyNKxGhoF8Bx8gyz5O+tD75KFQW2UmDiq8Exz0/WY2baJlt9xCS9itf+YZGXxVTOhDa5b4gmg8LGOcSw3j8TDwfRc2Jfx4tFzoJ5/Hp944cGeF0GJ6xtSvfol63/0uCatl4YG+bKyvvGAR7fzJjbTzN7eZTSWaXr2M7PyNvqu050sqV+nYsnQZI4AVw2ZS37vOp4EPXisjl/V7OPFQ4Z3owMpgkYWlCwt407x50v+74fnnZeOFeMWHn2dSny9STDgUOoRcOZdmwvG4waSFefEwiOeB5HiInwfK80PfL1mpTJx4WmKZNn6l3d1m16LzzqKB911JfVdcquvdWrAq2PDt95rBUwsWmg0N6p6T25yqqBlnTXvOauWS8pLTSubBb799qe/yi6mfv3dohemYNdOsO67fvwmHCu8uhEw3YrHdumCBND1vfvll2vzKK7T1jTfM6lewghn8TCGYTmid+DoRxV8jxiZsyvth4/v5oR8P+3H8jaZXi4Oo70qU5wOEo3ETSyoL4nGQpgwW2ug+9ijZMhAWR9fRh5v5ursbbOUWN26mzJPPUObBxyjzzBzKv7nYLBrSYppdidV7/krl60rv6hSx7TrmCOo+/lh2R1PXEYdT12EH17XRhzL+UOHdRcEArG0suBiEBQHesWyZ9AEPr10rTdOY4oFVnJzgGh9C40S3XHyT0lzZaLkwDFwZEC3jpyfHQdR3JcrzAcLRuIlVKptEqjJd3dS5z17Uf9VlMrCl+5QTzDxXTD/aDShu3UYFrH39/Is0dMd9lH1ursyHHgtaUYHVc41qZZPygrR2/n1NnSorgmFpUeyG1XXEYdKPizng2GZR1hVXJjwqvLs6/PFivi/Ed93TT0sfMKxg2XxhaFh21SlhZSV27cVSTHQbJ77xPIAYjjUhV8bFwjhwPnDnccTLlB8Tnt/hh0GtOEhOa5NlIidh15f3X0Vdhx9ic3ZR+PuEdcOzz71AQzffKss9Yo5uo/pyx0NlNJJ7qHRMxXOxyMqcbn6Aw5KcGC2P1cC6jjqcevj71HP2GdR7+snUPn06pd7HWZkwqPDuDkB8WVgxD7gwPEy5bdukOXoTi/HWV1+j7QsX0o5Fi0SI24rFmOg6cYTAhgLmN0u7NFc2ngYf+PEwrXLcpEXzgZ/n/sbzfR+YMmFKUhlQKw7KyrCViwEv/VdeRrO++89m0YldtN8ND2mFJcto6//4Bxq6+wGzT6/twpiIjLTyq1tomSCPvx/YrKDjgP2o++gjzCpnxx0tVq3swYxV03p6zNQ1bU7eJVHh3Q0RiwXrPm/eLC63dRvltmyRxTky69aJn9u0mfJbt1B+y1YqbNtOhZ07RZRlqzYMminkRXyBE2HghDMuwCZmwibkwtG4851zuWHcEIb9axhcuK29Q3bUkc3sbZrLDcpYH/hhEI8LqDTZQokvw4dBVn0XnEszvvE3u3ZliVWoVq+lHd/9EWXY6qXSyLfum0hUrCTZavXX9fbLiRULq7a3h9onTWZRnSILW0BcMR2ofSqnTeUw4tPhT5Pvqw6W2vVR4VWEYBOGTZvE5Vhw89tZcNlhcY4iW8pur1ms5QvhjQsmQBriLiea53yXa/DLgHi6f5Z4WUdSuggvdg9K6BdLLG99R3kZTmnnu0FFGxNXjDrtOvhAme+7S1ecGFA1uJNyL71ChVVr+Iuze1QfFV8lHuogrnH4K4BxAJj+Q2gRGeiXAVHYrAA+lnfUNZR3X1R4FUVRFKWFaAeCoiiKorQQFV5FURRFaSEqvIqiKIrSQlR4FUVRFKWF6OAqZdfC/zpHws4LAu6PwY8HyX48SIzG4bW3y+jp3W6Uaj4vU9PkPZCB3HY0dzCoOyGekGdCfh6IxeMjxXXKjTKBUeFVdgkwHaqUzZlVuKwgmHCBw5yeyXKhEhXZl/QCynMYiz+gLMJSloWE80uYq1zk+HDGlMU5EMbPRa7DxxRQNk9dB+5PfeedJRvn7y7g/co+O5d23vuQvH+y2APmtHZ0yj6x8iBi57jK9CtM6xKf0xDu7eUHljYOc76bFy1lkc/nQDmbHpwDU7h6e+xDjs1XlAmICq9SFyJwXNFiGUoRN9+xQGGjBogZRAlih68XhC4sB6FDHGXYsYjJ3OBA7IwgYjWkQAgjx9kyGQ6zMIqw4hz4GiNu5xo711bE7k0chsCiDHwbxvUl35VHOSwIIefgMti0HWVtvtyDfx0Ot7GPVYemfuZjNOl9V9l3adenNDhIgzfeQlv/+T/ksxMxhDDC+oeIQlQljnnU7Lexg2/LiLDCaOV8ly7l/TDysLRicA4O2+uYspwO3wl1F/I4zQk58rEClC0ji1PgPBB7nAdpLh1lIPoQeL6OHIdz4CEBaRJGeY6zL+d2Dwb2Om4ZyMR5vYriocI70eGPrwDrY8sWKgwNGTGDSHg+ykAoRTzYSZjTgjJeeRE8lLHHiVj6ZeCQFogpxzkMcRTLMJPhskjjPAgojkM+4ra8WJQipOY8WBFLRJrjLmwsVT4nxNgdB+HluCnjLFHOh/AyqMex2AZ84OIunOSDeBmQFI6nwWrrPugA6r/kQpqMtZovOMdk7gZgeVEsGbntO/9F2ZfnU3HbDvMdiOG/Z6DhlQ1ED0LnLGURRLtwBcJsIYtQs9hSN5eB8MKCRlkrkkZYbTrE1Aqv5PM5jAWP8nw+d6yXLsKL6+DhQsSb8+2DBhZxcQ8Tcj/2QULC3oOE3CPOKeXCB4tIurQQ4Nzs4/j+PuqcPcu+EcpEQoV3ggMhzGzeLJsf7Hj7bVmPGesyw/KEIIsFyhViHqLMPuIIQxClLMpweT8sx2KlKi6DsnIOvo4cx18XER1xZm1muDCMkMkPw9E04Mddiom7UFgmKW5SKsdd2PlJaY4wLUytWo4rxvb+fuo6+CCa8sFraMpHrqPuQw4yFeVuRHHTZsrMfYm2fes/KTv/dSqu22AeiJrIaCsrfpS0oerUKlU1H4KK7wKsZogzhB0+4hBOLCVpHwiwZrNrmpfmdxFuzkfTPT9AiLCjeR3n4DBWwJLjJg1Q92GH0KSLLzDXUyYUKrwTHFiiWG95zp/+Ka24805jAcJSlUz+az9e+ZjjYRuHH3wNbLrEEsI++LlDOOPiG/rO+XEjb6FfLezH8Tea7vDTXGo8DlyaC/s+CNPC1KT8zhnTaNJll9C0z36Cek87WdZplgp1dwMtD8MZKrAA7/j5zTT4m9so++LLNnNsSCusPmmOqFUmKb8EQRSHWBiWR1cRSz4KFjDHS5LEvuQhKRqWQJDO2n30ETT1umto1p98hWPKREOFd6LDHx+s1AX//u/09s9/TpvmzbMZrQF1gbNaywXYD4dlTCzMA6F1bBz++ucwKSZsYkl50bjz42WAS3FxEM0z+Me2s8XSe9LxNOWa99DARefLzjId06Zypn/EbgZqDxbg3JKllMHevA88Qjtvu4dK27aZ7oEGMBIxjVPPGWqVrZQfTy+PhymVyvrpyWGWY7aEp37sQzTzDz5P/aefYtOViUTH3zI2rExEuNJHf097V5dYvltee8304bYcIz5hBRKVr6gPqqU5kspEz22uVx4vr7Ti53aYdJcb9wGa+br235cGLr6Aplx3LU2+6jLqOfZo0+y3O4suwMtnq61jxnTq2Gcv6tx7T2kBKOWyVBrcaUaCj4KJIrpx/HImHKaU5xlqh02o95QTxdpFM7M0QSsTDhXeXYTe2bNlcNX2RYtoaG3jNiZPS3i1iGQFfpgaFSrE/Ds1cb+0Cbsy/plMmh8Pw4Z4vPyYkIQ0FtUO9KUdchBNvuxdNOMLn6Ep77mUOvecLf28SpR2DPbhB5SeM4wVVsL4AOxsNTTMkaKkNQP/+5OWeo6pVDaeXh43KdXKVcqLlrExjC3g7+P0T3+MJl9+CXXts7dJVyYc2tS8CzG4fDmtuOsumvO1r8lgqbEA8uX6fV3Y+NE4/hq/WtiP++kmDOJ5jkplHPG00Dch+dvRQQNnnEozv8iCe9Xl1DlzBr8AFdyaoEYpFigzdx7t+NUttP1Hv2ABHpQm6Wo0oyKq95yVysfTk8rFrXM/Vun45HT/b+hDdNHVse///XvTxKzfxQmLWry7EB29vdTR10dDdjP7/M6dNqf1OOszrFictIHKYcTMMSbdxKuXAfG4IZ4PQrFNvjeOdXZSD1u5Mz/zcZr1pc/SwNlnUAeLrkzrUGqDtxMjb6dOoa5DD6buE4+jEgtvces2tn6HTJkGEH5+9VHruKT8eFoYTwpVK29w8Wh6VLojefzd6z7kQNrzL/6U+lh8ZT9fZcKiwrsL0c6CAeHtmTGDtr/1Fg2z+GLg1djj+lz9vlcjdqHkuZAvgn4YFVF5GXdeRzxuiJ8HJKURde21F0264Dyafv0HaOo175FKrmP6dDOvUqkLTIlpnz6NOvfblzrQ98tCjHnbhY2bzXxxW64ZpD13UrlKx5r0MNcvFz8mXdz/G+Lifno3P8BMufoKmv6R66hzBn8f9SFwQqPCu4vR3t1Nkw48UPp5h1avFsu31f29jmgFEoqvI7Q9DYgnlYnevcuLC2c0jvyk4xLP1dYmA6V6DjuEplx8oVRu0973Xuo5+CAdvDJKZM4zv7fdRx1OHfvuTW38YIgBV8WdbPnaVcsaTfQzrkxSueppSaHyY6rF0+TF0zByfhJ/L2d++mPUc8Rhu+fUtV0M7ePdRdmxdCkt+Pa3adH3v0/5HTts6thh+nj9vl8/jn9hmpNQP+5STbmwjMuL+sY5/HQTC/NhyXb091HvYYfSHl/4PZp+zZXUzRaa0hzQ15t9dQFt+Zfv0PDTz1Nh3Toz7ShFNTSSiqrSMUnp0bQwVrts+niafuBIWnsbTTr/HJr5+U/TzE982KYqEx21eHdROvv7pc8XC2q0em5vEtFKJanJ2Umhw4/H8xwm3a+oAFKdBRweGbWA3X30HnIwzbz+Otrn61+lKRecR52zZmozXhOBtYapR33nnskW8D5UHB6m/KrVZuGXOol/7klUK2PyoiWSyqdJqx4P5bZaOYQjwszvVee+e9PsP/g8Tb3qchlhr+waqPDuokA8uidPpo6BARpeu5YyGzfK0o/jh6ho+hUQRDiMG0k28VBGo2FQLuYgqQkaA1W6uPKffuUVNPujH6LpV7+H+o87hjqmTlXRbTaYd97dRe3TplLnHrNkZ6fOvfYQSxjrPdcjwP53phJhmfLSScePNC0aj9u10fyksDsiyOPvIdZhnv3Fz9LU91xG3Qfsp+MMdiFUeHdhYPV2s5h0TppEO955h7Jbt46LwVZhZWNEMayInEiGImpSQvGMWrLmrykbljH48fB8ndOnU/8xR9O0yy+hWR++jqa9+2JpZpaF9Xf3xTBajIx6PnA/dgdQOz8gYsMA9P+W0P9boe83/K5UJ1quWsww0rTyeDQlqbyfZsIxi5i/hl17701T3v0uFt7PyAh7jN1Qdh20j3dXhz9ebHgw/x//kZb97ne0deHCcTLS2RDt6w37b51Lnvcbj5swcHFjG9gyGDwFK3faNJp86sk069qraTaLbifH1YoYJxQKNPTsXNp2429o5wOPUn7laioO7WQBjlZP1WI+1Sq1pLyRpVW3bEFS3D/KhUK/RB1TprDoXkx7/dnXqP/E42SpUmXXQoV3d4A/YkwteuM736HFv/iF7GI0nvDFEmEnxn7Y5QGXF/rOmTiAHyzewdZCz5570n5f/jzNuOIy6j/iCFllSUV3fIHtIAsbN9HQM8/T1p/eSDsfeoyK3lz0tBVVtXKV8tKlm1i8bLW4CzuxjeclifD0D1xDs3/vkzT1sovNqHptidnl0Kbm3QH+4WKgFZaVxJrO2958kwqo0MbtM1con+4OjR9WQIj71VFiXy6/7v7DD6PZ17yX9v/K79P0d11EfQcfJINUZC9UZVwhW+PxA1HH7FnUfeThsvgG9m4uYOENNEHbcrWoVq6+vNoWLfDTwrAJ4W9SflyI4WPg2bSrLqeZH7ueJp93Nlu+k+U7rOx6qPDuJsC6w8Ia3VgMgn/MQ2vWmI3zx2RDhWT8SojvWP6GvqNa3Ag1Hi6695hN0y84j/Zg0Z199VU046ILqJsrdG22G9/ge4r+Xozm7dp/P+qYxZ8ZNl0oFqmwefOI+34r5VdOL89BSlJ5P82EzdEuvVY+wFzdgTNPo1mf/jhNOf8c6t5rT5uj7IpoU/NuBkY2D65YQa//67/S6gceoO3vvEPFMVrXuRKQ0ngzctBszA5E+4JtHvpxJ0+mvv33p2mnnEz7fPQjNPW0U6h75kwcokxASoUCZRe+STvufZC2/fYOyi1ZRvmNm6k0PGxLGGpVYpXzkyQ2uXw8zcWN7/+NlkXYv0q0TMmI7ikn0ezPfoqmv+cyWZlK2bVR4d0Nkcps2zZ69ZvfpCU33UQ7liyxOeOPuOg6oQ3DYbxz0mSadcEFdMBnPkV7vfdKamPrVvtxdwG4isJo59zqNbTpez+i7bffQxkW4zjJFZmTt8ok5cXT/Hhcql0sqUw8L0mAp13xblm8Zcb73qvf190EFd7dFIjv9sWLacXdd9M7N9xAG198UdLGI05go1aujbe1UWdfH806+2za55qraSb7/QcdRN2z2MrV/rFdB4hvNku5latpeN582vHQY7Tttrsov269rP9cqxKrlJ+UHk9LEkvgwkn50XImFknj72ZbVyfN/uj1NPO6a2nS2WdSF76zym6BCu9uDIQW83vXPPIILf3tb2nDnDmU2bSJM8bfV8IXXADR7Zu9B009+miaddaZNPPMM2n6KadQ7777SB+vsutS2LSZMm8upqHn5tIgu51zXqTs0uUizJWo9I2OpptYvKwfdyXK0wzV8p2POePd++5N09nSnfH+a2jg5BNYdGfZXGV3QIVXoSyL7aqHHqKlv/kNbXj+edq5atU4W+UqBDswdQ0M0OQDD6QZJ51Me77rItrr0kupb6+9dPH43QlYwGzpDj7zPG2//2HayX7mrXcov2YtlfI5Ubmkii2eFsZNyM9PDkdFFbi48f2/5X7H1MnUe+ghNPXC82nPz32aeg8+kNr7+22usrugwqsEbH71VVr8s59Jvy92NipixPN4+Xq0tYnoYlT21KOOoiO++EXa68ILqX+//WwBZXelODRMQy/Pp803/oa23XoX5ddvkAfHpK4TXzbj32w/HpdXF0s+xv9rQDhyLYzWZkt34LRTaI+PXU+z2XVOmSLfa2X3Q4VXCcAKVxDcDc89R2//8pe09oknZJnJ8QCmQu1xzjm033vfS3tdfDH1zpolS2Fqs7KC1a2Kw0OU37CJrd63aevtd9O2Bx6m4QUL+bmxvHqLp1QSWVCpbHKZ8EyR47r4gXGP2bIu+Iyr3kP9xx9HndN0XfDdGRVeJQLm9WJDBVi/655+Wvp/N7/yiqS1GlgIvXvsQbPPPJNmn3UWzTjpJJpyxBE0sP/+aiko5RSLss/vMPp/X32ddr44j3Y8/jQNvfkWFbdvt4ViosiUx8MUPy85nCy2EuavKHa/mnzGaTT1ogvYP5X6DjnELIyh7Nao8CqJYMGCwWXLaB1bvWuffJI2z59P2996i7JbtjR1rWdMp+gcGBBxnXzYYTTt2GNpj/POo5mnnipWrloJShqw21Fm6TLa/sjjNPjCSzS88E2OL6cc+oD5ux2v9KLxuA0c5lcqF6SjS6S/j7r33YdF9yCafNqpNPWCc2nKWWdSx0A/P03qdCFFhVepBX89dq5eTetYfJf8+te09fXXZd3n/OCgNE2jEhs1XFl1sHXb0ddHXVOm0GS2Cva57DLa+9JLxcrV5mRlNGRXrqbtTz5NW+99gLY98QwVtm2jAn9/ZeEY2w8crwTL4ybFTw/CaH3p6qT2vl7qmDSJeg46kKa960KadfWV1HfkEdQ5dYotqCgGFV6lJhikUshmZX3nrW+8QeueeopWP/ggrX/mGcpz2mjFV9aoZct2rwsukP7bmaecQt3Tpsn60iK62qysjAJ8fzHVqLBtO+VWrabN9z1IWx94mAbnzaccps95xG1dF4tXkn65tt4e6j3gAJpy7tk07ZKLaMrpp1HXXnvI91dG2quVq8RQ4VXqIrd9u1i8GISF9Z6x09G2t96S+cCwjLHpPlbFSlyGEs1wbNn27bmnOIxIhnU75cgjadKBB1L/PvtQ7157UQ/Wk9YmZaXRoA+Yv5fZ1WtYgNdQZtly6f8dfPV1Gn5rMWVWrKT8ps3Bg6SpGL2/+P6ymGJP5+79+Lt6wP7Ue/BB1HvowbL5Rtcee8gay10z+PvL33NFqYQKrzIy+GtTZEsCArxz+XIaXLmSMhs2yCCsHAtvfmhI+oJlSgcqLBZSiC6ak3tmzqReOBbfARbfARbdrkmTdB6u0lLQ3JxlAR5ezKK7bAVl16yl/ObNVNjJ313bDB0ILn93XVNyx9Sp1L3nbOreey/py+3hB0aIrbbMKGlR4VUajjRNc8WF3Y8gvrIRvRVdNL8pyrgED5PZnOkD3rGDSrk815Cczt/fjv5+FtwpLL66j7MyelR4FUVR4pRVi6zAatAqDUKFV1EURVFaiLaZKIqiKEoLUeFVFEVRlBaiwqsoiqIoLUSFV1EURVFaiAqvoiiKorQQFV5FURRFaSEqvIqiKIrSQlR4FUVRFKWFqPAqiqIoSgtR4VUURVGUFqLCqyiKoigtRIVXURRFUVqICq+iKIqitBAVXkVRFEVpISq8iqIoitJCVHgVRVEUpYWo8CqKoihKC1HhVRRFUZQWosKrKIqiKC1EhVdRFEVRWogKr6IoiqK0EBVeRVEURWkhKryKoiiK0kJUeBVFURSlhajwKoqiKEoLUeFVFEVRlBbSVmJsWGkQW7ZsoWXLltGOHTuoWCza1HLa29tpn332odmzZ9PAwIBNbRzZbJY2bdpEb731lk1Jpq2tjTo6Oujoo4+mqVOn2tT0rFu3jlauXEmDg4M2JZmenh55vbNmzZJwo8H7vWbNGnHVwGvF+33UUUdRd3e3TW0umzdvprVr19KGDRtsSjm4rz322IMOPfRQmzJyMpkMrVq1Sq6HcC3wmRxwwAHU399vUxoDqhdc/9VXXxU/qbrB68Z1jzjiCOrr67OpjQPvPb4TGzdutCmVwX0ceeSRch/4fcbBbwrnW7JkCeVyOZs6PsBvd//996cpU6Yk3nsSeA1bt26lt99+W15bJVBH9Pb20oEHHijfFWV0qPA2gQULFtCtt94q4pvP521qOahwLrnkEjrrrLPkB9No8IOaN28e/eIXv7ApyeBHCiH8wz/8Q6l06uXpp5+mBx54gFasWGFTkpk+fbq83tNPP51mzJhhUxsHKsPHH3+cnnjiCZuSDF7rfvvtR1/+8pdp2rRpNrW54J7wPlV7COrs7KSTTjqJPvKRj9DkyZNTV55JbNu2jZ5//nl69NFHRfBrcfzxx9Nll10m4jea68YZHh6W38EPfvADeSBNAq8b340vfelL8jto5PUB3vennnqKFi1aZFOSwe8RwoLvBcQL8TgQXTxE/Pa3v5UHvfHE4YcfTldddZX4aR8o8T1ZuHAh/epXv5JwJSC8eCi89tpr5ferjBIIr9JYHnzwwRKLaYkreDzUVHT84yj96Z/+aYnF0R7ZWFavXl367ne/m3ht33EFU+KKpvTwww/bI+vjxz/+cemEE05IPLfv9t1339I3v/nN0tKlS+2RjWXOnDmlL3zhC4nX9h1bu6Wzzz67xFa6PbK58MNX6a/+6q9KBx98cOL9+O7iiy8usUiUhoaG7NEjg0WudOedd5ZYyBOvE3fnnntu6Wc/+1mJrR57hsbAVnfppz/9aWn27NmJ14XjSr3EDxryuxkcHLRHNo5//Md/LPGDReK1fYffAAuX3EOxWLRHR1m+fHnp+9//fomtvsRzjKU7//zzS/fee29p586d9m5rww9lpZtuuqnEopp4Tuf4YajED2WlG2+80R6pjIbGPloqihIBTXmwcmEloTm+FvxQQnfccQdx5WlTRgaa0tGSstdee6WyfnBvc+fOrdo1MhLQDQHLu1pzN9dD0sz5wgsvSPN4o8B50eL0yiuviNVdC7SCnHnmmWKBw8JTlGahwqsoTYQtV3rooYfonXfeqdqH5kCzMJrLV69enapvthJoJkUz+jHHHEN77723Ta3M+vXr6bXXXpPuiWrdI/UA4cPrefbZZ2u+lkKhQHPmzKnZXVEPuOabb74pDxVpmoXRzA3hTWpiVpRGosKrKE0CAobBbej/TmPtAgxQW7x4Mb344oty7EhxA+bQZ3zwwQfb1MrAwsY9oh90tNa2Y/v27bR8+XIRv1oDkWBpv/zyyyK8jRJ+vJewtjHADMJeDQymQv/ucccd1/A+ZkWJo98wRWkSTkTRhJpmRC2AlYjj7rnnHmkeRXw0QHgPOeSQmmKC60AoMRCp0iCoeoHoQsgxaKdWEzbyMbIWr7naIJ96wOvBoDYMiKoFBg7hAQWj7rWZWWk2KryK0iRgvUFAIQD1CCiapx988EFpnh7tlBWMUobwTpo0yaZUBs2xaOYejaXtA9FF83VaYJWiPxyjbEcL3m+8HoxmTiO8GNWN6WWK0gpUeBWlCaC5FNOb7r///rqbbmH9QSxeeumlUYsQBlZBeI899libUhncJ5q40d87WsGH8EF4X3/9dZuSjpEckwSsdog45u+m6VtX4VVaiQqvojQBjM7FSGZU/vWKGEQLwv3cc89Jv2c91nIcNJtCeE8++WSbUhlcE6OQcc/VFvqoBe4X4o0Hj1qLmcRBczPmwUMsR/O6cV2MZsbDRLVmbjTBY045Wgb23Xdfm6oozUWFV1GaAEQXo3TRbDxSAcE5ILzo8xyNCGHQ0IknnijWb7X+S1wDzb24bprpN5WA0L3xxhvSx4vXXw8QfvSLYzR0rQFR1cCDT5rpUXhPYOli1S4sWtJIMGALgn7OOee0xGFgGEay6+Cw8Y9+QorSYCBgaLLFNJrRgAFZEDBYbrUEpBp77rmniAsGEHV1ddnUyuB6mE88UiCYEL20I7l9cCysVTy0jGY6Fa6Nz6CWeGMZxPPPP1/mOzcSiB+mJ/3d3/0dPfnkky1x3/nOd2Q6VDOWY1UaiwqvojQQCCQsRjSXorl1tGAqDvqJR2P9wcqdOXMmvetd70o1yAr3Ppq1iHGvEM6RCC+A1YvR1VhuciRgDjQGpuH9r9VSAOE999xz5eGkWeD9b5VTJgYqvIrSQCA6GBmMQUK1BvWkqSzRZIq+XvijsQCd8GIN4lpgYBKEdyRWr1ubGX21WIxjJKB/GVOwMCp5JJY++qjRXF3r/ceGCGhixtrGad4XRWkUKryK0iAwOAmiBeGtJVpY0hFNv9iZqhqYigQRwUIQo5nfip1r0AyJnWVqNTfj4QH3P5LRxbhHNzI6zWjiJCC4sFjRRzySxTxgsUN8a4GHEQw6S/OeKEojUeFVlAYBkYCliwFRtZqZMeDp7LPPTrXTC8Qcu12h73Okg6ww0Aejm+HSWHcQXvT11gvmAOPBI80SjZWAlYvj0Vxdb3M9HhrQL46HlVqgXxf9u2huVpRWosKrKA0CI3FvueWWVAs2XHDBBfShD31IKv5awIrEghoQw5H2ewIsIZl2C0o0F8+fP1/6eesRe7x2DPQZjfACvE708+I9TQtaHNCvjGbyWouAoIkf/bp4+FHhVVqNCq+iNAA0q6Jp9L777qvaJIzRrhjgBAE877zzZOEGWKHVRqLCioOQoLkZTbAjBddGc3Ma4YX1jn5lWI9pxR6WOR4OIHyj6Y8GOB4jozFQCoKaBhyDRUfQMlDrGIjuYYcdJhtI6KYISqtR4VWUBoDKHhYiRiFXEx0M6DnhhBPoyCOPlG3oDjroILrwwgurjjZ282thSaLfdaRTiyC8uC6uWWt0M66H6UwQe6wdnQYINe6v1qAoWJuYP1ttvimujyU38aCRdjEPvO+YwpWmeRoPO9i5CU3wOhpYaTUqvIoySiCMGNADYazVNItBTu9973vF0oLwYIDV1VdfLQN9qgkRwKAlrH080mZcCAyuc+ihh8po3lqg2RibDKS9HkRy3rx5NpYM7gFNu3joqGbl4z2E1QqLGyOkawGhxwNCmn5h3AMeQLDghKKMBSq8ijJKYJ1BECG81YCwYnlCCK0bzTx9+nTp70Xzb62+RjRh4zpoTh0NWEwDTdy1gPBikwFcN00/L5qYMbCsGhBbWNyf+cxnUi3RiAcatCLUAs3haJZG2WpN/QBNyxDeo48+2qYoSmtR4R1DUJmhXwwDQmAtNNphgMxo1txV0oEFMyCItQb0YBTtaaedJtaeE1mIAJp90dxca99cfF9wHYwaHg3O2qvVxArrHYtZQMxqvTY0M+M7h/LVgKWPAWWXX365PHzUugeMEscI5VqLeeB7jj5h9E1Xe0jAww8ePDCqPM1iIiMF94D34mc/+xl97WtfG7X7x3/8R9npKm1/tzK+6fhbxoaVBoEK6OGHH5Z+P1hDtcCTOipvLJTQaIfmSdxPNVAZoc/tIx/5SKpN0+OgeRF9a7VGoGIaCwb3oNJHk2ujQeWPhRfwmquB14rBNddff31D1uf97W9/K6OOa61vDCvzuuuuo1NPPZU6Ozttqmn6RNxZd9WEA5Yd+iUxMAv+SAYGwep0q0NVW0sa6XAYhAQrFc3ilYDoYcN/9HNXw70HGE38zDPPyIC0aoO30G+L1gDMt8U6xJWEGu/bb37zG/kdVZs/jPcZon/xxReL+NYLrGnMEX7ooYdqzjF2Dy54eMAD02gcWh/QOnLGGWc0dDAYmufRUgFRr9aXj/cdrTVYhEWb6BsA/7CUBsOVcOmss84qcQWHGm3cO/4hl1gUS/ywYF9Bffz4xz8unXDCCYnn9t2+++5b+uY3v1launSpPbKxzJkzp/SFL3wh8dq+GxgYKHHFX1q5cqU9cmSw9VHaunVr6ROf+ERp5syZiddyDt+FT3/60yUWiBI/jNkzGIrFYmn79u2lP/uzP6t5HjgWr9Kvf/3rEluh9gz188QTT5SuuOKKUn9/f+I1nGOhKr3nPe8p3XffffbIZP71X/+1xNZ84jmcw7k+/vGPlxYuXCjvwTe+8Y1U35uLLrqoxKJaYiGzV4uCz+GOO+4oHX300aWurq7Ec8CxeJT4YaX0ne98Z8TfQX5QKH3/+98vzZo1K/EazXJspZf++q//usQPIvZOGgM/LJduuummEj9UJV7XOX44Lx1xxBGlG2+80R6pjAZtalaUEQJrEYtMYAAQRgBXA02s6FOE9RgfRAVrAs2eGO2cpu/VzRdGN8VISbt4BFps0IKA1gSuL2xqOejbrdWyghYPWJnuPTjllFNkdHEt0BWDQVOVWo9geaIMPodqTdJ4n9FKAOsZn4eijBUqvIoyQtD8h+ZNdCnUAk3sJ510ko0lAyHC/N5auEUq0ESYdqpPHDQbYys5TG+q1HwLILbo38W1IL5x0BQMwcX83VprM2MzfvSvugcPPGRAeP1m9yTQFYPuDDzoJE1TQtMvmumrPRgANNXiNWNkd61rKkozUeFVlBGAfknMM0VffrWBRxA1iBv6dSE81UBfJsQIU32qCQOsOkyZQR8t7mEkYK1oWJ/YIKBWPzeuB3FDP2ocCD/GEqAvs9bAH/QNYmCXAwII4a3V1+pbtEkPGrg35NUCwnvRRRfJ+IJqDxuK0mxUeBVlBED40LwKMao2yAaL72PeLBZrqNW8ieZmlIXVW22OK4DIQfRx/TQD+OJggA4ECIN1am3UAHAdWJVxMMf3scceq/nwgSZeNLX7g/fw3kB4azWvw8pFszoG8MWb1/E+QHgxgKkasLLxOjEorZmjmRUlDSq8ilInaNJEZY+RzLWsPAjOu9/9brHq0oxGhdX7nve8R8ShmlUGsYUQLVy4cMTNzejfxV60aTaBxyIWsCp9kcf7gOZlNHtX62+G9Y45u3ioiIs8hBdN7LUsUAg8FvNAM7sD18coY9wbmrqrgdeKBx/076IFQlHGEhVeRakT9GtC8CAE1axNiAkE9Iorrki1PjKAMGGqTZoFNdDcDat7pAtqwKpG3/M+++xTs88Tggdxw5Qp97AB0UPfL9KqTQnC68BAriSBd83rEMP4oDMfPFxg+hHm67r3HJYw+n7R95zU9+sDSxuiCytbm5mVsUaFV2kZsFAwx7JWJTlScH64ZoP1iDGaGc2r1a6HeY+o7DGKF32qaYAwYH9YzJes1TSN9xGii/WUR/K6IXS4xyOOOEIW9agGxA6jqTHCGQ8eAIPKIPwQ3WqfKYQXTbyYOx0HeRD+WpYoxB6iiyZlt0gH7gn3g/7fWkB4MbitVaKL6+AzR9/+NddcM2qHecfoH6/2cKJMHPRTHEPw48ToUoz0RMXTaIfBLGktrdGSpkJD5Yz+0GpW4mjAIKBaTb+jBQKHqS2wtGpdC8KJChPiVs8oWgjQZZddJoOsalW0bplGDLKq97XjM8N9YdAXBlnVAoKH5m0nvLgm3otqoovFSmDFn3jiifI+xMHrw4NGmo0i8PligQ5Y2IjjIQ4PHhj1XA3cA5q0W73wA/rQ8QD12c9+dtQOi46gSV6Fd9dAV65qAmlXrkKfHwa3XHLJJVLxJInnaBwsGVQ6WPmmGvgxj2blKlh/sLpqVYDo70QFj2UTUdk2GgwAghBg9aJqoIkVVhb2w61n5SoIDPoaf/KTn8iAIidAlcBrveqqq+R6aJZFc20ah35TWL5YJxnLJVYTNogPhBoPWBAXfI71AhFDMzJWn6pmOeO7jHy8JnyWuL9f/epXVft3MZIYgvGxj31MVp6qBO77kUceqTkfGu8LvtdwGOD2ne98R35v1e4bD7fYmAIPM6O1eNOuXIXfFJrW8bo/+MEPysP1aBx+l/jNjPb+46AJX1euGgP4C6s0mLQrV3ElUvrqV79aYiuixF/6hru333679O1vfzvx2r4b7cpVN9xwg6wElXRu32FVpk996lMlFkZ7ZGO56667Sh/4wAcSr+07FgNZjYkfFOyR6eCKtnT//feX+CFJVkFKOrfv2OIpcSVVYmuvdNJJJ6V2KA+H9wufTdK5fceWdemTn/ykrEI0EoaGhuR7wgJe9XUhjwW+xIJbYvEp/c3f/E3N+8Pr/5d/+ZcSi7O9WjlsqZc2bNgg72tvb2/ieZzD9/Qf/uEfZNWxm2++ucQPG4nlfHfllVeWbr/9dnu10ZF25SoW3gmx0pOuXDU2aLvFGIKnSDzBo58LVkujHawSnL/Z4DppLEdYiHi6rjYQZzSgD7DatBYHrCtYX/U228HCufvuu8U65N+OTa0MrGNYrOiXxGCstA7l4WD5VrN2HXjN6OvEtdJu4ecDixzN2mgOrvae4DXjPUCrAgaWpZnKhH5djJzGd7wSaPlBfyhaaWr1a/MDpTQ14/ViNHWa15t2hSxFaRUqvMqoQaWZZtMDCC+mfmzfvj2VoNQLmrrdwJtqQATQbIcKPy1YNQkL+mNkbZqN1gFECceN1KHPNo3A433Fa4cYYgBUveABEE3V6Pao9TCCa2HBjEcffVSEtxr4TmBzBTS513oARF8zrp9mkBe+Q9ihCQuIVBNefL54IMQc6jRbECpKq1DhVUYNKrc0fbYYHIOpHxCJkVhmlYA4wYqGJZRm+Ua0BsCyqkd40feIPlBU+rC6xhsQ6nvvvVes8VpWaBIQJozAxUMJhLgSEF7sAIUHELReVANijpG46OetJejIx/VrrdoFYNmjjx2jy6u1nsCSx9xh9I9W619WlFajwquMGgy6qNVE6ICli8FYtRY8qAdYhhB0nDNNUzMeFGCJ1TPSGKJ+xx13jEvRBRAgNL1i4M9I7hEDkLBJA0SymnWKhydYumgKr2X5YwBUrWUyHRBet/0gNlOoBoQXg/nQ7F2t5QSfM0aVY2lKRRlPqPAqowbWLiyVtGDEN6bANKq5GRXwrbfemlrM0QQKSyxt/zeaxiE2sPJg8Y1HYPXjAQTNwHhv6wVWrpv+kjTtxydN8zfO5zbcTwvEt95jqgHhTfN6FKXVqPAqowbzL2HxwqURM1hLmIqCubCjBaKIJse77ror1YYBGAiGAT9ofkwrvBBdzBdFc/NImnFbBQTRzTEeyX02Sqggumi6xoAmWNL1gKkzabZGrAU+Z0wZw7nwuhRlPKHCq4wajBJ2iySgwqsF5n1CeG+77TaZgzlSKxJNqhDd3/3udzLKtdp8UgfmVkIQ0vQ7AggYhAxNm80YENZo0NSMRSZq7Z+bBAbJYYMGPJikfShJAn3naLbG+tTVRjMngQcibKaAfvhqfc21QPMyzoPPeyRzmxWlmajwKg0BVhK2XKvVP+eAONxwww2yny0s1VrLDjogJhBDNC9j6g2amP/jP/5DFjZIAyyqtE2ZuBbEHcJbq/kWIoE+Y1j/zXIQkFoPCxhkhRYFNIvXa/VCJNEvC8FM+zkmgXtMM0I5CXRb4MEozSCramBgF9ahTvNwpSitRleuagL1rFyFygHWQZodYuoFI4exowyaYauBygmV+khXrgI4HuKLFXAwnzaNtYX7g6Dh/YJw4fhazYIY3INBPRDs733ve3TnnXeK6KYRbbzOD3zgA7L2LSzeWuCzw2pKmLsLMav2mmDpw8L65Cc/KZ9pMxzuHw8CtQZP4T1CWWzOUK944XPAtCm4pI3va4Hj8V589atflWZejCyuF3wvMC0KD1ZYmWskYKOJj3/849LUPRrLOU7alavc93m8r/SE75KuXNV62rgyqa89SqkJfpR/9Vd/Jf2C1ZpRIVZ/9Ed/RJ/4xCekmbbRQPhhEf7+7/++TUkGDwBoZkRZ/LBGAoQPldKf//mfy48YFXca8ING0yasHIxqhfCjfxAWF5ob0eSJyheVAvpYYR1DqDGyFRVGrY0KHBAivMd/+qd/Su9///tTNYnjs/uLv/gLeV8wjagaGL179dVXi/A2C8xbxRKN+H5VA2J30kkn0Xe/+12xYPHZ1gO6Af7t3/6NbrrpJpuSHljmmDf7gx/8QN6TeqZsOSD4DzzwAH39619PPWfaB1bz5z73OfkN4rU3Unjx/cP3G98LPGBWAteE6F977bVi/bcK/GbwwIWBcvjO1wLz3jEn+ytf+UrVOfA4F36ff/d3fycP6MroUOFtAruj8AKMqoUFigofliIsr3qAGKKvGINiKgkvXhNcPV9bVBo4NyqXj370o9LCUAs0fePh4fOf/7zM361l3WAR+z/4gz8Y1ftXCzxofPvb36bvf//7Na1eNPN+7Wtfk/Wo6xlxDiB2/+///T+5Vq3rxEETL9Ym/u///b+PqKkZoLkcLTWf+tSnZGBbvWMA0DrwhS98QcS30aQVXoCme7z3aea4NwqI/T//8z+nbqpX4R0jILxKY0m7VjMLb4ktsNK8efPskY0FaxGzCCZe23csvKNaq9nBVq+syfvXf/3XsqZv0rXGwvFDhax9/MQTT8ga1mlgq6v0wx/+sHTggQcmntN3eO/wmqutR9wI8P6yJVk66qijEu/Dd2x5li644ILSM888I2sh10va6/iOH0BkrWmsizza94IfrkrXX399zTWEkxwLrnzWzYAfxlKt1TxWjh92SvPnzy/xw4q94+roWs1jg448UBoGLD9Yqti9Bs2u4wUMFoIFhoFVaZqYAfoY0Y+cZqQ01hhGsypeezPB+4tmXGwqXwtYqtjCD/2RaQee+aDpH2sc1wNaTtBicc4559TdvB0H1iLWeE7aw7cW6IPEfGBFGa+o8CoNBeIAgYPwovl1tBXwaMEAHzS3vvvd75Z+L9xfLbA5AQZTYU5smqZWtiylsk9z7tGCdY8xcAgPENX68PihWpro0V+LZtt6GYnwoosADwZ4n0fSt+sD4cXm+fUMOkS3BN4frH6lS0Qq4xkVXqXhwPJDpY2BRhC8kVgtjQD95hhIhQEuaRf3ABi8BdFFHx76rSuB82EgGF4r+jZbAUaWwprDa0tjvWNAFuY619vfjr5CXKeeOb0QPAzqQt/iaB9CcE23hGRaEcWgMuz1jAeAtPesKGOBCq/SFFBxQ3Q/+9nPyoAjCFMrKkNYWhB+WKDXX3+9DPRBU3BaILTYSB/rHtcCI3hhfWIh/latjoTXB2G58sorxbKsBabkvPbaa3XvWoSBbXioSCvwsL5hJUN4GwHOh88RU7TQVZCGkVjJijIWqPAqTQOVN5qc//Iv/1JGbsNaq9Y8OlpgZeGaGLX8zW9+k7785S/Xvfwg5pBCqLADTy1giaE5vdUWPR5q3ve+98lc5FqWJUYE4/VgQY16weeFTQbSPFTA2nSrTjWStP217rPHgxDeH0UZz6jwKk0HlhCmd2Bu55e+9CWpSGGdNAqIOaw/zF/EdIdvfetbUgGPZLAT+kQhVNWamAEqeTSDYgBQq/sT8d6hBQFN3GlEH03N2L82zSIjPlh2Ea0Vad5HPODgc8YUuUaCPmN8X2o9sOEhAdY2Bnc1+h4UpdHoylVNAAsAYA4v5iOigobFkOQgFhAIPNWjwmg0mHuK7eywY03S9Z1DxYqKC9ZbM/oq0cSM14p+VsztxOAr9N9BNCAiEAQIXdolDmHd4J4xVxGVLawy3DtGU6Op0S0aUa91jQFJ2PoPq2mhTzTpvXIOYnDppZfS5ZdfPqLVmUYDXj+anGGdY24zPueke3QOQgQRRf8nvo9pBz6hHMpjHWzMa8ZnlXR+ODz0XHjhhSOeu1sJvLeYV4x+d3yeSdeGw2d+2WWXBQPPmgUG261cuVKWEUVfdtK9jKVDMzu6V/B7TvM543PF/F185/FeoxUlyeF8aPLHQEK818ro0AU0mgAm/WOZQfxAq1lO+GFgaogbENJosHMP1kTGtJhqoCLHjw79sRDEZoP3BO/NggULxKFSxaIYGE2MigDNoxBh30JDJQcBx32iYkVzIh4SMIoVzZtwSK/V9FoN/BR++ctf1txgHaASwoYC+OzSClkjwXuD1buwUEmaUcvor33ve98r911PawM+q5tvvln6ivF9qgRED33pzWh2x3cYK1nhO1OpusJ3Ab+lkS5TmRZML3PLsNa7uEgrwAPuF7/4Rfl9pPle4jXg94eFb6q9Hvyu8PCGh9x6u2+UclR4lXEBfvRuZSqMJoYVB6sTX09YOrC8UKmgZQBP9bB4612HWFEUZTygwquMC2DBwcp1DnH/qwnxhYPY4kke4dFYt4qiKGOFCq+iKIqitBAd1awoiqIoLUSFV1EURVFaiAqvoiiKorQQFV5FURRFaSEqvIqiKIrSQlR4FUVRFKWFqPAqiqIoSgtR4VUURVGUFqLCqyiKoigtRIVXURRFUVqICq+iKIqitBAVXkVRFEVpISq8iqIoitJCVHgVRVEUpYWo8CqKoihKC1HhVRRFUZQWosKrKIqiKC1EhVdRFEVRWogKr6IoiqK0EBVeRVEURWkhKryKoiiK0kJUeBVFURSlhajwKoqiKEoLUeFVFEVRlBaiwqsoiqIoLUSFV1EURVFaiAqvoiiKorQQFV5FURRFaSEqvIqiKIrSQlR4FUVRFKWFqPAqiqIoSgtR4VUURVGUFqLCqyiKoigtRIVXURRFUVqICq+iKIqitBAVXkVRFEVpISq8iqIoitJCVHgVRVEUpYWo8CqKoihKC1HhVRRFUZQWosKrKIqiKC1EhVdRFEVRWogKr6IoiqK0EBVeRVEURWkhKryKoiiK0kJUeBVFURSlhajwKoqiKEoLUeFVFEVRlBaiwqsoiqIoLUSFV1EURVFaiAqvoiiKorQQFV5FURRFaSEqvIqiKIrSQlR4FUVRFKWFqPAqiqIoSgtR4VUURVGUFqLCqyiKoigtRIVXURRFUVqICq+iKIqitBAVXkVRFEVpISq8iqL8/9urYwIAAACEQfZPbYtdUAIgJF4ACIkXAELiBYCQeAEgJF4ACIkXAELiBYCQeAEgJF4ACIkXAELiBYCQeAEgJF4ACIkXAELiBYCQeAEgJF4ACIkXAELiBYCQeAEgJF4ACIkXAELiBYCQeAEgJF4ACIkXAELiBYCQeAEgJF4ACIkXAELiBYCQeAEgJF4ACIkXAELiBYCQeAEgJF4ACIkXAELiBYCQeAEgJF4ACIkXAELiBYCQeAEgJF4ACIkXAELiBYCQeAEgJF4ACIkXAELiBYCQeAEgJF4ACIkXAELiBYCQeAEgJF4ACIkXAELiBYDMdsGJ1NpGa7BIAAAAAElFTkSuQmCC;aspect=fixed;clipPath=inset(14.33% 11.4% 19.33% 11.76%);movable=0;resizable=0;rotatable=0;deletable=0;editable=0;locked=1;connectable=0;" vertex="1" parent="HCrk2KYDXEB9rWcXeqYh-8">
          <mxGeometry x="76.62230891761328" y="51.7268769599705" width="66.15503597122303" height="62.98872592248783" as="geometry" />
        </mxCell>
        <mxCell id="HCrk2KYDXEB9rWcXeqYh-10" value="" style="fontColor=#0066CC;verticalAlign=top;verticalLabelPosition=bottom;labelPosition=center;align=center;html=1;outlineConnect=0;fillColor=#CCCCCC;strokeColor=#6881B3;gradientColor=none;gradientDirection=north;strokeWidth=2;shape=mxgraph.networks.pc;" vertex="1" parent="1">
          <mxGeometry x="610" y="283" width="100" height="70" as="geometry" />
        </mxCell>
        <mxCell id="HCrk2KYDXEB9rWcXeqYh-14" value="" style="shadow=0;dashed=0;html=1;strokeColor=none;fillColor=#4495D1;labelPosition=center;verticalLabelPosition=bottom;verticalAlign=top;align=center;outlineConnect=0;shape=mxgraph.veeam.portal_admin;" vertex="1" parent="1">
          <mxGeometry x="805" y="106" width="72" height="76" as="geometry" />
        </mxCell>
        <mxCell id="HCrk2KYDXEB9rWcXeqYh-16" value="" style="image;html=1;image=img/lib/clip_art/computers/Server_Tower_128x128.png" vertex="1" parent="1">
          <mxGeometry x="61" y="482" width="80" height="80" as="geometry" />
        </mxCell>
        <mxCell id="HCrk2KYDXEB9rWcXeqYh-18" value="" style="image;aspect=fixed;perimeter=ellipsePerimeter;html=1;align=center;shadow=0;dashed=0;spacingTop=3;image=img/lib/active_directory/database.svg;" vertex="1" parent="1">
          <mxGeometry x="238" y="684" width="86.49" height="64" as="geometry" />
        </mxCell>
        <mxCell id="HCrk2KYDXEB9rWcXeqYh-20" value="" style="shape=image;verticalLabelPosition=bottom;labelBackgroundColor=default;verticalAlign=top;aspect=fixed;imageAspect=0;image=data:image/png,iVBORw0KGgoAAAANSUhEUgAAAGAAAABgCAYAAADimHc4AAAACXBIWXMAAAsTAAALEwEAmpwYAAAJcElEQVR4nO2cWVBcxxWGkQBboLpvFrbLecxWlVQlFVfFzosXJVJMLFu2kGwxrEKWJbRvgJ2Q1zxEkvOciiuJFuJgjMQAGgRCLMO+DTPsUswiFLAkM5ZAkSxnqT/Vd4Geubc9F90eLhf3qfrfbtFV/3fo031OQ0yMCBEiRIgQIUKECBEiRIgQIUKECBEiRIgQIUIEifzAt2Ly/CUx+f65mHw/VuX1qvJh1XGiHqw61i1r9bEurD7aqaoDq48QtWP14TbEympF7CGiFsQeakbsQaImxB0g8iLuQCPi9hM1KNpXj7h9dYjfS3RFUW4t4nMvK9pTg8eIdlfjsd2XFL1bpcqDx3ddVPROpaoKPL6zXNaanW6sySEqw5odF1Sdx5psolIkZH+ChCyiEiRkEn2MhMxiJGQUIzHj74rSP0Ji+t+QmEZUhARX0Vxi6tlSKbXoO/zMLwgEY/IDkM2nAWjmswAciQDgYAQA+xQA8SwAeyIA2BUBQA4bQAIBkEUD+FgPQDY/FEBi2jmsdZ1DoutMMGHbX5+xDqCgrySmgJgfDsCnAyCbrwPQbgCgxQCA1wBAvQGAWgMA1QYAPAYAiPnhAMpCAcxnPwNARgQALgXAWtdZJKaeKeYAIDAXAiAvAoCjEQAcigBgPwsAnf0aADX7aQDU9rMAoNIAgNsAwHkDACU6AKHbjwagyADA6bs8fgNAA4gr8OPFklvY7fsKOV1f4rmiacTm6wHEH+/ES8XT6ncP8PzZG4g/qgewo+EmfjM8h18PzeL9wVm8N3gXBQN3kN9/B3l9X+B4IIhjgSCO+mdwpPdzHPZ9joO+2zjQcwv7u29hX9dN7O36DLmdn2FPxzR2t0/h3bYp7Gr7J95pvYGdLTeQ0zyJ7ObryGqaQKZ3AhmN40hvHENawxhc9aNIrfsU2698irev/ANv1V7DtsvXsLXmKrbUjODN6hG8cWkYm6uG8HrVEF7zDGLTxQG8WjmAX1X0I7miD6+U9+GX7gCe/7BVNV8BsDb1DPgAyF8A8ELJLRwe/h/29v8Xu/z/Rlb3Q/zo9KRu/3+xeFr33Y//Mq4rwIUj91YMgI1lfsp87gCU/T+n6yH2BP6DHN9XyOj8Em+33Udy7V0dANZ34QW4UACIBCC0AKe1PUB290O4Oh5ga8t9bPbew8ueoK4Ap7XdN/huRrf/FwoAiwCQ58dPzk5he9sDbGn+FzY1zCG5bhbf+9OErgA/e3pS9933/zj6DQJwJhoAehFb4McP/jyJ9ZeCWF8VlM2PPd4TBqADccc68cMPx7G+agbrPTOy+fHyKYgG0ITs+pVUhFuiAEA1X38D7vnm3oDT9TdgovACzBWAs2/AFQY34DIDAKWWb8BLAMCmG3Bu6A1YfwFbPjfg6ADgfgNuMrgBN6yIG7BmPhcAvx25h0giJ5nC4Tm5mGoFVSuq7w/elQvrewOkuC4UWLnI9n+hFFpZSrHVCq5cdLXCq+qQj+i2XIQP9iiFWCvG+7tvygVZK8p7O5XCnNs5LRdnuUBrRVoVKdSaSMHWivbOlknkEDVPYoes68huUkQKeZZXKeaZ3nG5oMtFvWFMFinsafWjcnEnijqAwmHK/KGvM/8OZb5ifJ5mfsCM+bcV83uIFOMPdC/C/PapBfNDjFdPS9qJSTXftPGq+bLx6qlKPlmpp6uoAWBlfYj5A5T5/UbmBynzFeOV4yZlvu/rzL9Jma8YP29+hxnzo5P1qXXq0TZaAJY8633UlrOYrO+gjZ8yn/XNRsZPmM767dS9gjsAYvyC+Q7O+lbK/MVkfSOd9WOGWa+ZzxVAyJZjOuvDCu1Kz/o6Yrx2o1bEBUBo1ivmu+pG8fQfLkL6Xemy1JOnKrCpcpCZ9cnufiSdqrC8TtLJcvz8fG9I1ivmX8O22mvWAbCy/ukPKm03WYoE4YMKZtYTQLzWIRDorN+m9ZMucwDA2nLsNlcyKdaWw3sdOus187devmodAGuvt9tYyaRCjV8otPwBKMYr5l+Vu6kpNZwAGBVaJwHYYXDC4b0OnfXE+BS1nW0ZgFErgRwv7TZWMinW8ZL3OnTWp9SMYEu1IssAWJcqu42VTIp1vOS9Dp31xHgyyHnz0jAHAIxLlWMANBlfqqIBQMt6zfw3eABgXarsNlYyKdalivc688ZXK8YrY0wOAFitBLuNlUyK1UrgvQ6d9doMmcgyAFYrwW5jJZNitRJ4r0NnvTbAf93DA4Cugab0cZwEIN2gjxMNAFrWK+YPyi8oLANgTarsNlYyKVbPnvc68+Z7Fsx/7SIHAKzupd3GSial616qbWPe62hbjmy8/HZIeT/EAYBxz/4pBzTjkk6VMydV3AFQWU+M1x5vWQbA6tmnVF9d1hCSTpVjwwU/c1LFez0661/VXs5V9lsH4Jj5bOPiJlW8AdBZr5lPni5aBrAiJlVXwocl/AHQWU+UrL4btQ7AdNaHmb8M57NvUT177gCorE+mHu1aBmAt640fQpnP+uvzL5p5zGfpYQlvAHTWE+PlF9M8ACxJ1rdweAhlIuvpnj1vAHrzA/KTdcsAeD3/i1bWu8yYbzCp4g+AMt+tmL+RCwDGlrPZM8R1sC1x1rqT5Xj5E5/xpKp6hPt6dNZvVLWhzG8dAOt4+dQyNl+iXiuwJlW81woxv8wvm88FAGvLsdtcyeKkivc6dNZv4AvA+FLlJABbDCZV3AGEGc8NAOtSZbexksVJFe91NkQLAOt4abexksVJlWMAsI6XdhsrWZxUOQqA0aXKSQA2G0yqHAOAdamy21jJ4qTKMQBYf1Nlt7GSSdFZT/fsnQOA0bN3DACP8aTKMQBYfRy7jZUsTqocA4A1qbLbWMnipMoxAJbqDxykKIk1qXIOAMak6smTy78Zt+6EmzmpeuKEm9s65GdFDQCrZ/+Kuw9JyxjCuhNu/Oyjduak6rlzbXji924u5v/0XGv0ADzSfNbCpCqF6tmHN9BYl6qQQhu217MmVUr30tg0nrIMYCnms1sp4+mePdP8sEtVaKHtZ5tPTapY3cvlB8B7fTba89mUJc16fc8+irL+j1szvROlj/qPKszOZ1NWWNZr+sWF3hLLADK8o9/N9I7PWH0Ixcz6GjNZr3/0GnK8XF5Zr5hf1hvc6O75tmUA8m9B7eQzGY3jxen1Y7OPlPW1Rlm/yC1Hl/UmzV/yrPfPksznZr4IESJEiBAhQoQIESJEiBAhQoQIESJEiBAhIsbp8X9hqi+xFrHlIgAAAABJRU5ErkJggg==;" vertex="1" parent="1">
          <mxGeometry x="761.9967175292969" y="479.0033587646484" width="96" height="96" as="geometry" />
        </mxCell>
        <mxCell id="HCrk2KYDXEB9rWcXeqYh-26" value="数据上传" style="text;html=1;align=center;verticalAlign=middle;whiteSpace=wrap;rounded=0;fontSize=20;" vertex="1" parent="1">
          <mxGeometry x="238" y="160" width="119" height="22" as="geometry" />
        </mxCell>
        <mxCell id="HCrk2KYDXEB9rWcXeqYh-27" style="edgeStyle=none;rounded=1;orthogonalLoop=1;jettySize=auto;html=1;fontStyle=0;curved=0;strokeColor=default;targetPerimeterSpacing=0;endSize=12;startSize=12;strokeWidth=3;" edge="1" parent="1">
          <mxGeometry relative="1" as="geometry">
            <mxPoint x="330" y="300" as="targetPoint" />
            <mxPoint x="432" y="190" as="sourcePoint" />
          </mxGeometry>
        </mxCell>
        <mxCell id="HCrk2KYDXEB9rWcXeqYh-28" value="命令下控" style="text;html=1;align=center;verticalAlign=middle;whiteSpace=wrap;rounded=0;fontSize=20;" vertex="1" parent="1">
          <mxGeometry x="339" y="274" width="119" height="22" as="geometry" />
        </mxCell>
        <mxCell id="HCrk2KYDXEB9rWcXeqYh-29" value="华为云" style="text;html=1;align=center;verticalAlign=middle;whiteSpace=wrap;rounded=0;" vertex="1" parent="1">
          <mxGeometry x="444" y="188" width="60" height="30" as="geometry" />
        </mxCell>
        <mxCell id="HCrk2KYDXEB9rWcXeqYh-30" value="树莓派" style="text;html=1;align=center;verticalAlign=middle;whiteSpace=wrap;rounded=0;" vertex="1" parent="1">
          <mxGeometry x="247" y="368" width="60" height="30" as="geometry" />
        </mxCell>
        <mxCell id="HCrk2KYDXEB9rWcXeqYh-31" value="PC服务器" style="text;html=1;align=center;verticalAlign=middle;whiteSpace=wrap;rounded=0;" vertex="1" parent="1">
          <mxGeometry x="630" y="360" width="60" height="30" as="geometry" />
        </mxCell>
        <mxCell id="HCrk2KYDXEB9rWcXeqYh-32" value="Mysql服务器" style="text;html=1;align=center;verticalAlign=middle;whiteSpace=wrap;rounded=0;" vertex="1" parent="1">
          <mxGeometry x="66" y="585" width="70" height="32" as="geometry" />
        </mxCell>
        <mxCell id="HCrk2KYDXEB9rWcXeqYh-33" value="系统前端网页" style="text;html=1;align=center;verticalAlign=middle;whiteSpace=wrap;rounded=0;" vertex="1" parent="1">
          <mxGeometry x="787" y="570" width="60" height="30" as="geometry" />
        </mxCell>
        <mxCell id="HCrk2KYDXEB9rWcXeqYh-36" value="" style="image;html=1;image=img/lib/clip_art/computers/Server_Tower_128x128.png" vertex="1" parent="1">
          <mxGeometry x="474" y="585" width="80" height="80" as="geometry" />
        </mxCell>
        <mxCell id="HCrk2KYDXEB9rWcXeqYh-37" value="网页后端" style="text;html=1;align=center;verticalAlign=middle;whiteSpace=wrap;rounded=0;" vertex="1" parent="1">
          <mxGeometry x="484" y="678" width="60" height="30" as="geometry" />
        </mxCell>
        <mxCell id="HCrk2KYDXEB9rWcXeqYh-38" value="Mysql数据库" style="text;html=1;align=center;verticalAlign=middle;whiteSpace=wrap;rounded=0;" vertex="1" parent="1">
          <mxGeometry x="251" y="762" width="60" height="30" as="geometry" />
        </mxCell>
        <mxCell id="HCrk2KYDXEB9rWcXeqYh-39" style="edgeStyle=none;rounded=1;orthogonalLoop=1;jettySize=auto;html=1;fontStyle=0;curved=0;strokeColor=default;targetPerimeterSpacing=0;endSize=12;startSize=12;strokeWidth=3;" edge="1" parent="1">
          <mxGeometry relative="1" as="geometry">
            <mxPoint x="141" y="463" as="targetPoint" />
            <mxPoint x="243" y="353" as="sourcePoint" />
          </mxGeometry>
        </mxCell>
        <mxCell id="HCrk2KYDXEB9rWcXeqYh-40" value="数据及警告存储" style="text;html=1;align=center;verticalAlign=middle;whiteSpace=wrap;rounded=0;fontSize=20;" vertex="1" parent="1">
          <mxGeometry x="57" y="398" width="119" height="22" as="geometry" />
        </mxCell>
        <mxCell id="HCrk2KYDXEB9rWcXeqYh-41" style="edgeStyle=none;rounded=1;orthogonalLoop=1;jettySize=auto;html=1;fontStyle=0;curved=0;strokeColor=default;targetPerimeterSpacing=0;endSize=12;startSize=12;strokeWidth=3;entryX=0;entryY=0;entryDx=0;entryDy=0;" edge="1" parent="1" target="HCrk2KYDXEB9rWcXeqYh-18">
          <mxGeometry relative="1" as="geometry">
            <mxPoint x="93" y="744" as="targetPoint" />
            <mxPoint x="134" y="565" as="sourcePoint" />
          </mxGeometry>
        </mxCell>
        <mxCell id="HCrk2KYDXEB9rWcXeqYh-42" value="数据及警告存储" style="text;html=1;align=center;verticalAlign=middle;whiteSpace=wrap;rounded=0;fontSize=20;" vertex="1" parent="1">
          <mxGeometry x="188" y="590" width="119" height="22" as="geometry" />
        </mxCell>
      </root>
    </mxGraphModel>
  </diagram>
</mxfile>
